%
T1C.008F0S0
X-020016Y-015547
X-01954Y-0135
X-02005Y-0135
X-02046Y-013476
X-01913Y-01319
X-01972Y-01291
X-02007Y-0129
X-02037Y-01266
X-0189Y-01243
X-02036Y-01231
X-01961Y-01205
X-02035Y-01204
X-02035Y-01175
X-01891Y-01162
X-02034Y-01143
X-01973Y-01115
X-02032Y-01113
X-02002Y-01113
X-019142Y-010713
X-01961Y-0107
X-02006Y-00987
X-019139Y-009847
X-01911Y-00942
X-01882Y-00932
X-020056Y-009056
X-01882Y-00902
X-0191Y-00878
X-01998Y-00821
X-01909Y-00816
X-019Y-00764
X-02001Y-00744
X-020463Y-007432
X-019Y-00709
X-02001Y-00692
X-020463Y-006912
X-01946Y-00641
X-02031Y-0064
X-01988Y-0064
X-01915Y-00627
X-02045Y-00613
X-01898Y-00593
X-020433Y-005777
X-02041Y-00541
X-01898Y-00517
X-02037Y-00492
X-01907Y-00472
X-02008Y-00459
X-02035Y-00459
X-01978Y-00458
X-0194Y-00458
X-01944Y-00346
X-0205Y-00346
X-02051Y-00293
X-01904Y-002666
X-019323Y-002547
X-01886Y-00251
X-01941Y-0016
X-0197Y-00158
X-020325Y-000938
X-01886Y-00085
X-0189Y-00056
X-01962Y-00048
X-02015Y-000457
X-01974Y00004
X-02007Y00004
X-02031Y00007
X-01915Y00019
X-02037Y00047
X-02036Y00085
X-02034Y0012
X-01904Y00138
X-02031Y00157
X-01978Y00178
X-02011Y00181
X-01907Y00189
X-01903Y00249
X-0203Y00249
X-01971Y00249
X-01971Y00307
X-0203Y00307
X-01903Y00307
X-01914Y005584
X-01871Y005655
X-02008Y00591
X-01914Y006836
X-02008Y00732
X-020586Y007615
X-01902Y009603
X-01754Y012275
X-01704Y00815
X-01623Y0072
X-01732Y0059
X-01642Y00581
X-01728Y00554
X-01668Y00554
X-01811Y00414
X-017761Y003801
X-01657Y00344
X-01762Y00336
X-01844Y00307
X-01773Y00298
X-0171Y00283
X-01773Y00269
X-01844Y00249
X-01666Y00248
X-018065Y002277
X-016275Y00209
X-01715Y00201
X-01762Y00188
X-01847Y00188
X-01649Y00136
X-01832Y00121
X-017152Y001129
X-017152Y000532
X-01831Y00053
X-01772Y00053
X-01648Y00045
X-01772Y-00015
X-01831Y-00015
X-01849Y-00093
X-01772Y-00094
X-016738Y-001207
X-01827Y-00195
X-01769Y-00197
X-01676Y-00228
X-01813Y-00268
X-0177Y-00287
X-01863Y-00289
X-01831Y-0029
X-01619Y-00316
X-01677Y-00318
X-01852Y-00374
X-01677Y-00407
X-0162Y-00407
X-01678Y-005
X-01775Y-005
X-0183Y-00521
X-017169Y-005823
X-01829Y-00585
X-01639Y-0059
X-01864Y-00678
X-01744Y-00714
X-01626Y-00714
X-01803Y-00721
X-01803Y-00751
X-01626Y-00768
X-01744Y-00768
X-0182Y-00796
X-01744Y-00821
X-01626Y-00821
X-01832Y-00829
X-01832Y-00859
X-01811Y-00878
X-01744Y-00879
X-01626Y-00879
X-0183Y-00902
X-0183Y-00932
X-01807Y-00941
X-017644Y-009503
X-01655Y-0102
X-01646Y-01087
X-017175Y-010935
X-017903Y-011472
X-0183Y-0117
X-01629Y-0117
X-01751Y-01179
X-01677Y-01179
X-01752Y-01222
X-01677Y-01222
X-0183Y-01235
X-01629Y-01235
X-01425Y-014548
X-014Y-01425
X-014488Y-014248
X-01535Y-014
X-01462Y-01324
X-015542Y-013226
X-014Y-013
X-013995Y-012603
X-01534Y-0126
X-01591Y-01235
X-014Y-012
X-015942Y-011701
X-01465Y-01085
X-01577Y-01083
X-01372Y-01078
X-01533Y-0105
X-01432Y-01027
X-01483Y-01015
X-01535Y-01015
X-0159Y-01005
X-01414Y-00945
X-0152Y-00937
X-01569Y-00916
X-01541Y-009
X-01415Y-00873
X-01533Y-00873
X-01533Y-00822
X-01415Y-00822
X-01414Y-00768
X-01532Y-00768
X-01414Y-00711
X-01532Y-00711
X-01554Y-00686
X-01455Y-0067
X-01576Y-00661
X-01371Y-0066
X-014Y-006
X-016Y-006
X-01615Y-00515
X-016Y-005
X-013909Y-004831
X-014635Y-004358
X-01579Y-00432
X-01529Y-00397
X-014153Y-003773
X-014295Y-003082
X-01529Y-00308
X-01618Y-00228
X-01528Y-00218
X-014304Y-002172
X-016Y-00148
X-01432Y-00127
X-01595Y-0009
X-015151Y-000878
X-013708Y-000809
X-01528Y-00061
X-013708Y-000207
X-01455Y-00017
X-014Y0
X-01595Y0
X-01528Y00046
X-01457Y00085
X-01391Y00086
X-015915Y001271
X-015614Y001798
X-01385Y00204
X-01464Y00205
X-0142Y00265
X-015683Y002671
X-014827Y002778
X-01609Y00304
X-015234Y003114
X-014528Y003304
X-01564Y00349
X-014528Y003777
X-016051Y003896
X-015993Y004654
X-01615Y00516
X-01401Y01017
X-01374Y01049
X-01419Y01099
X-01431Y01151
X-014234Y012716
X-0144Y01289
X-01423Y01306
X-013377Y01
X-012811Y008912
X-013369Y00697
X-01152Y004556
X-011752Y003781
X-013012Y003777
X-011832Y003348
X-013002Y003342
X-011567Y002794
X-012322Y002794
X-01335Y00266
X-012128Y002046
X-01336Y00204
X-013541Y00161
X-013Y001
X-012635Y000921
X-011731Y000909
X-01207Y00064
X-01289Y00049
X-01289Y0
X-01215Y-00007
X-01131Y-0002
X-012662Y-000265
X-012667Y-000806
X-012099Y-000808
X-01125Y-001
X-01361Y-00164
X-01209Y-00171
X-01276Y-00171
X-01156Y-001716
X-01143Y-00216
X-013101Y-002167
X-0119Y-002323
X-013455Y-002533
X-01186Y-00288
X-01311Y-00308
X-01132Y-00314
X-012532Y-003435
X-01209Y-00346
X-013367Y-003778
X-013521Y-004431
X-013Y-005
X-012453Y-005055
X-011469Y-005311
X-013Y-006
X-012Y-006
X-012937Y-006606
X-011343Y-006644
X-01217Y-00676
X-011343Y-007105
X-01295Y-00711
X-01131Y-0076
X-01295Y-00768
X-01296Y-00822
X-01179Y-00822
X-01296Y-00873
X-01276Y-00917
X-012Y-00925
X-012Y-01
X-01339Y-01009
X-011737Y-0118
X-01309Y-0119
X-012027Y-01244
X-012778Y-012612
X-013384Y-012612
X-013382Y-013
X-012787Y-013003
X-011282Y-013136
X-01213Y-013202
X-011278Y-013619
X-012154Y-014361
X-013Y-015
X-012Y-015
X-011Y-015
X-01Y-015
X-009Y-015
X-010004Y-013582
X-008747Y-013539
X-010425Y-013197
X-009956Y-013082
X-009Y-013
X-009054Y-012482
X-010782Y-012456
X-009971Y-012444
X-009Y-0114
X-01Y-0111
X-009Y-0109
X-010618Y-010774
X-010852Y-010768
X-011074Y-010764
X-010726Y-010557
X-010967Y-010555
X-010618Y-010336
X-01085Y-010334
X-011074Y-010334
X-009098Y-010099
X-010033Y-009698
X-010034Y-009285
X-011018Y-008704
X-010022Y-008239
X-00928Y-008237
X-010883Y-008221
X-009995Y-007095
X-00923Y-006941
X-010131Y-006681
X-009124Y-006634
X-00912Y-00614
X-010139Y-006004
X-011Y-006
X-008763Y-005614
X-01Y-005
X-009Y-005
X-009025Y-004406
X-009868Y-0044
X-010622Y-004301
X-011076Y-004293
X-01085Y-00429
X-01072Y-004096
X-010978Y-004093
X-01Y-004
X-010631Y-003884
X-010853Y-003884
X-011078Y-003879
X-009015Y-003792
X-009951Y-003235
X-010792Y-003101
X-009Y-003
X-009985Y-002798
X-00934Y-00267
X-010363Y-002252
X-01092Y-00216
X-01Y-00215
X-009Y-00215
X-01092Y-00176
X-01Y-00175
X-009Y-00165
X-008807Y-000791
X-008983Y-000362
X-009418Y-000362
X-010079Y-000154
X-009566Y000574
X-00994Y00063
X-01061Y000831
X-01102Y000833
X-009089Y000864
X-009476Y000872
X-00971Y00133
X-010147Y00144
X-00917Y00157
X-009429Y001592
X-010639Y002006
X-010864Y002008
X-011096Y00201
X-010752Y002263
X-010992Y002266
X-00922Y00245
X-00972Y00245
X-010867Y002491
X-010644Y002493
X-011096Y002494
X-00939Y00267
X-010311Y002745
X-008724Y002873
X-010116Y003346
X-00939Y004671
X-00955Y00617
X-00619Y013521
X-00835Y01312
X-007646Y013061
X-00836Y01289
X-008407Y012636
X-006721Y011782
X-00754Y01147
X-00787Y01129
X-00762Y01126
X-00789Y01106
X-007542Y009853
X-00722Y009268
X-00711Y00899
X-007428Y008815
X-00712Y00865
X-0071Y00831
X-00662Y00796
X-0071Y00796
X-00711Y0076
X-00661Y0076
X-00711Y00725
X-00711Y00688
X-007044Y006555
X-0067Y006465
X-0073Y0062
X-008276Y006047
X-00714Y00603
X-007852Y005902
X-008031Y005724
X-00837Y00406
X-00837Y00381
X-007921Y003806
X-0077Y003801
X-007414Y003801
X-007073Y003587
X-00626Y00351
X-007283Y003439
X-00627Y00328
X-00697Y0032
X-00762Y002691
X-007082Y002585
X-00765Y00245
X-00727Y00245
X-00853Y00233
X-006696Y002206
X-008149Y001462
X-008502Y001386
X-007811Y001304
X-00755Y0013
X-006697Y001295
X-00798Y00103
X-006676Y000993
X-0072Y00095
X-007651Y00093
X-008536Y000848
X-00837Y00062
X-007192Y000511
X-007628Y000245
X-00721Y00021
X-006679Y000127
X-007626Y-000178
X-00858Y-000354
X-00717Y-00061
X-00666Y-00061
X-007624Y-000646
X-008296Y-000783
X-007325Y-001169
X-007564Y-001406
X-006684Y-001456
X-00847Y-001743
X-007703Y-001749
X-0072Y-00185
X-007648Y-002135
X-007239Y-002278
X-006692Y-002295
X-007646Y-00261
X-007187Y-002784
X-008498Y-003179
X-00669Y-00321
X-007658Y-003535
X-007262Y-003559
X-008586Y-003793
X-007193Y-003884
X-0067Y-00389
X-007753Y-004162
X-007226Y-004304
X-008612Y-004406
X-007555Y-00456
X-0067Y-00467
X-0072Y-004684
X-008262Y-005033
X-007463Y-005063
X-007961Y-005547
X-00758Y-005696
X-006664Y-005959
X-008223Y-005984
X-007311Y-006127
X-007599Y-006293
X-008227Y-006563
X-006695Y-006688
X-00728Y-00675
X-00702Y-00677
X-007547Y-007343
X-00663Y-007421
X-00749Y-00759
X-008335Y-00768
X-00757Y-00781
X-007081Y-007847
X-006542Y-008183
X-008265Y-008241
X-00767Y-00826
X-00747Y-00843
X-008533Y-008694
X-007955Y-008922
X-006912Y-009053
X-006576Y-009302
X-007498Y-009632
X-006588Y-009686
X-007194Y-00993
X-00866Y-0102
X-0069Y-01025
X-0082Y-010272
X-006552Y-010524
X-007876Y-010642
X-007Y-011
X-00797Y-011
X-006515Y-011089
X-00743Y-01191
X-007402Y-012134
X-006862Y-012402
X-008122Y-012435
X-007Y-013
X-008Y-013
X-006465Y-013431
X-007627Y-013639
X-006767Y-013652
X-007Y-015
X-008Y-015
X-008221Y-015548
X-003705Y-015001
X-005723Y-014278
X-005486Y-012678
X-005518Y-011086
X-004247Y-010512
X-005515Y-010286
X-004619Y-010172
X-004998Y-009783
X-005484Y-009649
X-003816Y-009285
X-004177Y-008969
X-00531Y-00865
X-00461Y-00846
X-005088Y-007966
X-004521Y-007888
X-004013Y-007722
X-005412Y-007602
X-004502Y-007358
X-004843Y-007036
X-006162Y-006888
X-00537Y-00687
X-00476Y-00667
X-00518Y-00666
X-004356Y-006554
X-00495Y-00652
X-005687Y-006214
X-00518Y-00619
X-00416Y-00616
X-005703Y-005668
X-00475Y-00545
X-004184Y-005244
X-004851Y-005086
X-00482Y-00476
X-004188Y-004725
X-00569Y-0045
X-004828Y-004265
X-0057Y-00372
X-00486Y-003155
X-003706Y-002947
X-004863Y-002645
X-0057Y-00201
X-004141Y-001829
X-004855Y-001559
X-005717Y-001161
X-005709Y-00056
X-004123Y000321
X-004854Y000418
X-005712Y000421
X-005708Y00099
X-004866Y001107
X-005696Y001303
X-004843Y001429
X-003736Y001726
X-003794Y00194
X-004889Y002151
X-00514Y00217
X-00543Y00219
X-00371Y002456
X-00529Y002974
X-003794Y00314
X-00603Y00328
X-00501Y00393
X-00451Y00407
X-00616Y006
X-00618Y00639
X-005114Y006524
X-004584Y006539
X-005685Y0067
X-00614Y0067
X-004088Y006814
X-003838Y006864
X-004652Y007033
X-00615Y00706
X-00512Y00722
X-00615Y00743
X-00569Y00743
X-00484Y00751
X-003861Y007737
X-005691Y007789
X-00615Y00779
X-00392Y00805
X-00613Y00814
X-00569Y00814
X-005064Y008204
X-003889Y008303
X-00613Y00848
X-005116Y008485
X-003882Y008738
X-005188Y008819
X-00611Y00882
X-00384Y009034
X-004761Y009132
X-0061Y00915
X-005201Y00915
X-003899Y009624
X-003909Y010017
X-005776Y010058
X-006064Y010204
X-003929Y011106
X-004029Y012142
X-004184Y013518
X-002191Y013523
X-002256Y012084
X-003284Y011856
X-003252Y011616
X-001302Y011603
X-00245Y01141
X-002052Y01134
X-002186Y011157
X-00287Y01047
X-00228Y01047
X-00201Y010407
X-00168Y010405
X-002531Y010396
X-00367Y01031
X-003369Y00992
X-001794Y009671
X-002356Y009668
X-002907Y009668
X-001243Y009668
X-00337Y009632
X-003378Y009347
X-00235Y009156
X-002904Y009156
X-001784Y009147
X-00124Y009138
X-003295Y00904
X-003301Y008745
X-002904Y008638
X-001776Y008627
X-002349Y008624
X-003627Y008491
X-002286Y008205
X-002792Y008012
X-001392Y007997
X-001811Y007972
X-00303Y007764
X-003599Y00771
X-003046Y006974
X-002274Y006965
X-00326Y006953
X-002832Y006901
X-0035Y006875
X-00205Y006866
X-001653Y006863
X-001387Y006861
X-002555Y006857
X-003201Y00617
X-00225Y00614
X-001889Y00611
X-001494Y006102
X-00279Y006079
X-00208Y00601
X-0025Y00591
X-00296Y00582
X-00232Y00578
X-00267Y00575
X-001603Y005494
X-00135Y00549
X-001325Y005269
X-002277Y004506
X-001361Y004395
X-001348Y004171
X-001606Y004151
X-001617Y003932
X-001845Y003916
X-001993Y003754
X-002237Y003541
X-001886Y003509
X-003167Y003169
X-0024Y00297
X-002683Y002947
X-00217Y002946
X-001914Y002944
X-001531Y002589
X-002064Y002545
X-002299Y002544
X-001844Y002538
X-00267Y00248
X-002969Y002458
X-002689Y001921
X-002337Y001916
X-00153Y00191
X-002578Y001726
X-003201Y001658
X-002669Y001504
X-003492Y001024
X-0018Y001
X-0016Y001
X-0018Y00075
X-0016Y00075
X-00295Y00067
X-003492Y000512
X-003162Y000511
X-00358Y00007
X-003172Y-000099
X-002716Y-000101
X-00327Y-00025
X-0027Y-00035
X-00317Y-00041
X-003623Y-000437
X-002716Y-000613
X-002937Y-000883
X-00354Y-00098
X-003193Y-001165
X-003492Y-001535
X-002914Y-00169
X-00351Y-00177
X-003515Y-002047
X-002916Y-002146
X-002014Y-002559
X-002916Y-002658
X-003228Y-00266
X-003172Y-002914
X-002916Y-002914
X-001948Y-002916
X-00246Y-002916
X-002204Y-002916
X-001402Y-00294
X-001948Y-003172
X-003071Y-003492
X-002815Y-003492
X-00258Y-00351
X-002303Y-003515
X-001901Y-003972
X-001901Y-004419
X-002351Y-004561
X-003284Y-00469
X-001896Y-004888
X-003382Y-005014
X-003382Y-005345
X-001894Y-005373
X-003483Y-005691
X-001895Y-005817
X-002305Y-005892
X-001896Y-006302
X-00185Y-00721
X-001852Y-007461
X-003013Y-007675
X-002552Y-008046
X-001368Y-008172
X-003573Y-008244
X-001552Y-008338
X-003045Y-008514
X-002841Y-008758
X-002614Y-008905
X-003042Y-009395
X-00197Y-009443
X-003366Y-009701
X-00321Y-01035
X-00196Y-010613
X-00321Y-011
X-001952Y-011878
X-003002Y-012287
X-001952Y-012728
X-003037Y-013068
X-003037Y-01356
X-0013Y-014169
X-002508Y-014322
X-001301Y-014769
X-001239Y-015059
X-003209Y-015763
X001316Y-014034
X0004Y-01397
X-000285Y-013782
X-000556Y-013488
X-00074Y-01314
X-00073Y-01284
X-00073Y-01254
X00124Y-01224
X-00074Y-01224
X000033Y-011925
X-000848Y-011886
X000085Y-011589
X-00022Y-01121
X-000844Y-011137
X-00068Y-01081
X-0007Y-0105
X00121Y-01049
X-0007Y-010209
X-00069Y-00989
X-000816Y-009544
X-0003Y-009177
X000937Y-008997
X00075Y-00878
X00096Y-00865
X000597Y-00847
X00092Y-00831
X00068Y-00807
X0004Y-00794
X00028Y-00775
X00003Y-00751
X00027Y-00751
X-00103Y-00733
X00012Y-00731
X-00007Y-00717
X000868Y-006733
X000453Y-006491
X000314Y-006236
X000803Y-00525
X000829Y-005016
X000843Y-004481
X-0009Y-002939
X-000397Y-00293
X00036Y-00292
X-000151Y-00292
X-000663Y-00292
X000616Y-00292
X001128Y-00292
X00067Y-002684
X000919Y-002664
X-000131Y-002657
X000125Y-002657
X001188Y-002461
X000125Y-002461
X-000131Y-002461
X-000663Y-002454
X-000418Y-002274
X-000399Y-002041
X-000893Y-000893
X00116Y-00038
X-00056Y001508
X-001145Y001705
X-000854Y001705
X-0004Y00205
X-0002Y00205
X0Y00205
X-001013Y002165
X0Y002642
X000732Y00265
X-000387Y002717
X-000643Y002717
X00061Y00291
X001162Y002932
X000893Y002947
X00039Y00295
X-00011Y00319
X-000129Y003442
X-00036Y003771
X-000484Y003962
X000868Y004002
X-000612Y004143
X000754Y004187
X-000818Y004194
X-000836Y004411
X-001176Y004497
X000338Y004621
X000915Y004712
X000529Y004906
X-00036Y00494
X-00015Y005055
X000341Y00514
X-00053Y00514
X-00085Y00518
X000567Y00518
X-00007Y00528
X00017Y00529
X001313Y005317
X-00066Y00532
X-000999Y005341
X00041Y005983
X001186Y006155
X-000899Y006801
X-000303Y006807
X-00113Y006856
X-000599Y00739
X000702Y007555
X-000327Y007719
X-000589Y007853
X-000375Y008159
X-000669Y008289
X000559Y008328
X000722Y008485
X00102Y00856
X-000703Y008582
X-000287Y008738
X00101Y00886
X-000375Y009041
X-000341Y009329
X000678Y009625
X001228Y009627
X-000398Y009784
X000771Y010169
X001009Y010207
X-00023Y01021
X-0011Y01048
X000517Y010589
X0012Y010589
X000048Y010605
X-000702Y01127
X002278Y013224
X001707Y010589
X003728Y010549
X003199Y010463
X002104Y010409
X003342Y010267
X001922Y010248
X002319Y010193
X00373Y01013
X00163Y01002
X00136Y01001
X00246Y00994
X00269Y00993
X003792Y009902
X002939Y009728
X003126Y008892
X002251Y007996
X002648Y00774
X002956Y007422
X003325Y007067
X001354Y006847
X001874Y006013
X001328Y00599
X00163Y00596
X002111Y00588
X00365Y00585
X001997Y005703
X001783Y00536
X00148Y00514
X00178Y00513
X002006Y004534
X001776Y004487
X001555Y003828
X002282Y0038
X002559Y003575
X002204Y003172
X002463Y003169
X001434Y002972
X0022Y002966
X002463Y002913
X001434Y002716
X00189Y002714
X003445Y002659
X002976Y002464
X00265Y00218
X002434Y002179
X002916Y002146
X002972Y001894
X00266Y00189
X002917Y001643
X003174Y001639
X00297Y001436
X003174Y001383
X00269Y001377
X002919Y001127
X003174Y000871
X00266Y000867
X0029Y000858
X003174Y000615
X002916Y000611
X00161Y00042
X002919Y00036
X003174Y00036
X003174Y000104
X00161Y0001
X00351Y-00051
X00372Y-00052
X00243Y-00067
X00269Y-00067
X002916Y-000924
X00269Y-001182
X002719Y-001442
X00367Y-00163
X002716Y-00169
X002397Y-001791
X003174Y-001895
X003174Y-002151
X003174Y-002407
X00163Y-00255
X0038Y-00265
X001883Y-002657
X002658Y-00266
X002914Y-00266
X002145Y-00269
X00243Y-0027
X002428Y-002913
X00188Y-002914
X002914Y-002916
X00164Y-00292
X002152Y-00292
X001384Y-00292
X00235Y-0046
X00188Y-00487
X00282Y-00508
X00224Y-00523
X00175Y-00545
X00335Y-0056
X00261Y-00561
X00215Y-00596
X00197Y-00616
X00216Y-00639
X00324Y-00699
X00377Y-00752
X00273Y-00893
X00312Y-00898
X00312Y-00928
X00319Y-00954
X00302Y-0097
X001642Y-009815
X00323Y-01003
X001339Y-010209
X0015Y-01088
X00217Y-011354
X003557Y-011589
X00133Y-01254
X00169Y-01276
X00137Y-01307
X00597Y-014462
X005007Y-014462
X004684Y-014034
X004684Y-012911
X00476Y-01262
X00457Y-01237
X004364Y-01205
X005124Y-01128
X00568Y-011099
X00439Y-0108
X00457Y-01001
X004222Y-010002
X00476Y-00987
X00439Y-00979
X005113Y-008803
X004842Y-008787
X0055Y-00851
X00616Y-00842
X00571Y-00836
X00517Y-00829
X00565Y-00775
X00464Y-00764
X00465Y-00675
X00553Y-00577
X00535Y-00552
X00438Y-0048
X00455Y-0046
X00429Y-00435
X004028Y-004228
X006263Y-003773
X006048Y-003438
X00404Y-00294
X0047Y-0026
X00488Y-00248
X00454Y-0023
X0051Y-00155
X0051Y-0012
X0048Y0023
X005037Y0023
X00445Y00235
X00495Y0028
X00624Y00286
X0052Y00305
X00455Y0038
X00565Y00395
X00475Y004
X00499Y006443
X004448Y00822
X004105Y008569
X00501Y00892
X004695Y00935
X0039Y009494
X004693Y009587
X004239Y009627
X00421Y00986
X005206Y010115
X005204Y010576
X004182Y010881
X005205Y01104
X005207Y011522
X004796Y012457
X008792Y013472
X007947Y012508
X006706Y012504
X006989Y011525
X006989Y011054
X006983Y010581
X00699Y010115
X007055Y008644
X006917Y007199
X00706Y00555
X00651Y0054
X00706Y00525
X006524Y005055
X00706Y00495
X00816Y00481
X00651Y004719
X00705Y00465
X00854Y00437
X0067Y0042
X008155Y00418
X00761Y004
X00761Y0037
X00815Y00365
X008155Y00292
X00671Y0028
X00878Y00273
X00635Y00265
X00815Y00225
X0065Y0022
X00786Y00124
X00805Y00095
X0086Y0008
X00805Y00065
X0086Y0005
X00805Y00035
X0086Y0002
X00805Y00005
X0086Y-0001
X00805Y-00025
X0086Y-0004
X00805Y-00055
X0086Y-0007
X00805Y-00085
X0086Y-001
X00805Y-00115
X0086Y-0013
X00805Y-00145
X0086Y-0016
X00805Y-00175
X0086Y-0019
X00805Y-00205
X00755Y-0021
X00645Y-0021
X0078Y-00295
X0065Y-003595
X00878Y-00378
X0065Y-003912
X008345Y-004
X00854Y-00463
X008155Y-00482
X00707Y-005
X0076Y-005
X0076Y-0053
X00707Y-0053
X0082Y-00535
X00705Y-00555
X00705Y-0058
X008155Y-00608
X00878Y-00627
X00815Y-00675
X008378Y-006913
X0072Y-0084
X006365Y-009646
X008016Y-012911
X00697Y-014458
X006817Y-014924
X009887Y-012572
X008903Y-008901
X01024Y-00825
X01045Y-0081
X01045Y-0077
X01033Y-00755
X0098Y-00735
X0106Y-0073
X01105Y-0072
X010865Y-0069
X009605Y-0069
X008975Y-0069
X010235Y-006898
X009795Y-006275
X00941Y-00627
X01067Y-00627
X009605Y-00589
X010865Y-00589
X008975Y-00589
X010235Y-00589
X010865Y-00501
X010235Y-00501
X008975Y-00501
X009605Y-00501
X009795Y-004385
X00941Y-00438
X01067Y-00438
X010235Y-004
X010865Y-004
X008975Y-004
X009605Y-004
X009252Y-003612
X0107Y-00335
X010347Y-003273
X01072Y-00301
X0098Y-00289
X011Y-0026
X01035Y-00225
X00925Y-00225
X008975Y0021
X009605Y0021
X010865Y0021
X010235Y0021
X010693Y002465
X011Y00247
X009795Y002725
X00941Y00273
X01015Y00305
X010864Y003108
X009605Y00311
X008975Y00311
X010235Y00399
X009605Y00399
X008975Y00399
X01065Y00399
X009795Y004615
X01067Y00462
X00941Y00462
X01131Y00462
X01099Y00462
X010865Y005
X00895Y005
X010235Y005
X009605Y005
X009295Y00528
X010503Y005396
X01085Y0056
X010185Y005795
X009387Y006087
X009036Y006528
X0109Y010106
X008871Y010112
X010896Y010572
X008866Y010577
X010886Y011045
X008866Y011046
X008866Y011538
X010884Y011539
X010699Y012476
X009295Y012535
X009847Y013486
X011969Y012517
X01185Y011529
X012938Y010582
X012954Y01011
X01368Y009439
X0127Y00933
X012127Y00897
X011435Y005795
X011753Y005649
X01296Y00509
X01181Y005
X01244Y005
X012258Y004
X01318Y0034
X01325Y0025
X011868Y002309
X012755Y0021
X012125Y0021
X01236Y00187
X01337Y-00269
X0122Y-0029
X0126Y-00345
X01244Y-004
X01181Y-004
X01319Y-00496
X0134Y-00539
X01339Y-00566
X01161Y-00568
X01318Y-00575
X01374Y-00607
X01234Y-00661
X012125Y-0069
X012755Y-0069
X01336Y-00711
X01427Y-008408
X01425Y-00648
X01507Y-00609
X01403Y-00602
X01537Y-00566
X01455Y-00546
X01387Y-00502
X0144Y-00467
X01576Y-00451
X01534Y-00437
X01408Y-00425
X01548Y-00379
X01411Y-00365
X0158Y-0036
X014Y-00297
X01541Y-00267
X01497Y-00236
X01576Y-0023
X0153Y-00205
X0151Y-00195
X01488Y-00186
X01577Y-00177
X01507Y-00168
X01414Y-00154
X01536Y-00152
X01441Y-00134
X01505Y-00101
X01479Y-001
X01454Y-00092
X01481Y-00075
X01532Y-00058
X01453Y-00048
X0154Y-00015
X01473Y-00012
X01484Y00036
X01546Y00043
X01512Y00066
X0154Y0011
X013857Y001807
X01549Y00213
X01612Y00281
X01537Y0031
X0156Y00321
X01493Y00328
X01387Y00339
X01475Y00355
X01565Y0036
X01437Y00385
X0143Y00405
X01521Y00422
X01483Y00438
X0145Y0049
X01411Y0051
X016314Y00577
X015439Y006594
X015252Y007927
X015615Y008277
X015968Y008624
X014366Y008803
X016298Y008969
X014752Y009176
X015096Y009503
X015429Y00983
X014072Y009855
X015778Y010155
X016241Y010501
X014593Y01067
X014936Y010988
X015408Y011354
X015777Y011682
X016102Y011991
X014009Y012408
X016935Y011139
X016611Y010829
X017827Y010286
X017478Y009971
X017133Y009649
X016646Y009292
X017607Y007945
X017133Y006461
X016729Y00611
X01811Y00525
X017636Y005025
X017102Y004984
X018159Y000024
X018305Y-002165
T2C.01F0S0
X-016621Y-015295
X-016891Y-015184
X-016627Y-015
X-016888Y-01486
X-011807Y-00549
X-0117Y001232
X-006848Y009701
X-006624Y009542
X-00795Y006341
X-010261Y-003437
X-01092Y-005541
X-01052Y-005545
X-010297Y-009903
X-01098Y-011942
X-01055Y-011944
X-004018Y-004042
X-004243Y-000459
X-003492Y001672
X-004065Y001958
X-00448Y010449
X-004747Y011095
X-004541Y011212
X-004747Y011353
X-000847Y010363
X000226Y006172
X-000535Y006012
X001155Y001155
X000643Y001155
X000131Y001155
X-000125Y001155
X-000637Y001155
X001155Y000644
X000643Y000644
X000131Y000644
X-000125Y000644
X-000637Y000644
X-001149Y000644
X-000637Y000132
X-001149Y000132
X001155Y000132
X000643Y000132
X-000125Y000132
X000131Y000132
X-001149Y-000124
X-000637Y-000124
X000131Y-000124
X000643Y-000124
X-000125Y-000124
X001155Y-000124
X00064Y-000618
X-001149Y-000636
X000131Y-000636
X-000637Y-000636
X-000125Y-000636
X001155Y-000636
X-000125Y-001148
X000131Y-001148
X000643Y-001148
X-000637Y-001148
X001155Y-001148
X-001149Y-001148
X00269Y-002171
X002434Y-001148
X002427Y-000381
X00269Y-00038
X002434Y000132
X002434Y000388
X002434Y001155
X002434Y001411
X004764Y004918
X004764Y00514
X004766Y005368
X008497Y009222
X01225Y00795
X01185Y00795
X006569Y007185
X006359Y006551
X008665Y006386
X006628Y006316
X006411Y006315
X01634Y-012796
X015961Y-012791
X016499Y-01254
X01616Y-012535
X015818Y-012524
T3C.012F0S0
X-00119Y-002579
X-00209Y-00197
X-002512Y-001369
X-0016Y-00115
X00155Y00125
X00835Y00119
X0016Y-00135
X-00026Y-00181
X00666Y-00768
X00669Y-00801
X012189Y-009941
X011596Y-009523
X01275Y-00765
X00895Y00119
X0096Y00119
X01025Y00123
X0105Y0015
X01175Y00185
X014598Y-009775
X014915Y-010338
X015781Y-011172
T4C.014F0S0
X-01294Y-010123
X-012861Y-003599
X-01292Y002679
X-012251Y006177
X-012472Y006437
X-011869Y010044
X-011869Y010413
X-009188Y008882
X-009181Y008535
X-003717Y-007221
X-005082Y-012546
X-005086Y-012949
X-005086Y-013425
X-005088Y-01395
X00394Y-011057
X-002967Y-007239
X001773Y002294
X002829Y006542
X001987Y006656
X004465Y007289
X005393Y007706
X004974Y007728
X011033Y009174
X01075Y008
X011315Y006625
X008084Y006073
X010428Y-009557
X010522Y-0099
X010873Y-013027
X016119Y-013092
X014914Y-008002
X015184Y-007734
X01175Y-0076
X014878Y-007487
X011322Y00624
X011717Y006248
X011712Y006624
T5C.018F0S0
X01085Y00135
X-009247Y01063
T6C.01969F0S0
X-017165Y-012871G85X-017165Y-012595
X-01566Y-015007G85X-015384Y-015007
X-002893Y-015002G85X-002617Y-015002
X-00196Y-008708G85X-00196Y-008432
X-017155Y004037G85X-017155Y004313
X-014703Y004674G85X-014428Y004674
X-004505Y004658G85X-004229Y004658
X-017167Y-005007G85X-017167Y-004731
T7C.035F0S0
X-019681Y-016181
X-021181Y-014681
X-01903Y-01403
X-021181Y-013681
X-021181Y-012681
X-021181Y-011681
X-021181Y-010681
X-021181Y-009681
X-021181Y-008681
X-021181Y-007681
X-021181Y-006681
X-021181Y-005681
X-021181Y-004681
X-021181Y-003681
X-021181Y-002681
X-021181Y-001681
X-021181Y-000681
X-021181Y000319
X-021181Y001319
X-021181Y002319
X-021181Y003319
X-021181Y004319
X-021181Y005319
X-021181Y006319
X-021181Y007319
X-021181Y008319
X-021181Y009319
X-021181Y010319
X-021181Y011319
X-021181Y012319
X-019681Y013819
X-016681Y013819
X-017681Y013819
X-018681Y013819
X-014681Y013819
X-015681Y013819
X-01803Y-01403
X-01703Y-01403
X-016681Y-016181
X-018681Y-016181
X-017681Y-016181
X-015681Y-016181
X-014681Y-016181
X-013681Y-016181
X-012681Y-016181
X-011681Y-016181
X-010681Y-016181
X-009681Y-016181
X-013681Y013819
X-009681Y013819
X-010681Y013819
X-011681Y013819
X-012681Y013819
X-006681Y013819
X-007681Y013819
X-008681Y013819
X-004681Y013819
X-005681Y013819
X-006681Y-016181
X-008681Y-016181
X-007681Y-016181
X-005681Y-016181
X-004681Y-016181
X-003681Y-016181
X-002681Y-016181
X-001681Y-016181
X-000681Y-016181
X000319Y-016181
X-003681Y013819
X000319Y013819
X-000681Y013819
X-001681Y013819
X-002681Y013819
X003319Y013819
X002319Y013819
X001319Y013819
X004319Y013819
X005319Y013819
X003319Y-016181
X001319Y-016181
X002319Y-016181
X004319Y-016181
X005319Y-016181
X006319Y-016181
X007319Y-016181
X008319Y-016181
X009319Y-016181
X010319Y-016181
X008319Y013819
X010319Y013819
X009319Y013819
X007319Y013819
X006319Y013819
X012319Y013819
X011319Y013819
X013319Y013819
X015319Y013819
X014319Y013819
X013319Y-016181
X014319Y-016181
X015319Y-016181
X011319Y-016181
X012319Y-016181
X016319Y-016181
X017319Y-016181
X018819Y-014681
X018819Y-013681
X018819Y-012681
X018819Y-011681
X018819Y-010681
X018819Y-009681
X018819Y-008681
X018819Y-007681
X018819Y-006681
X018819Y-005681
X018819Y-004681
X018819Y-003681
X018819Y-002681
X018819Y-001681
X018819Y-000681
X018819Y000319
X018819Y001319
X018819Y002319
X018819Y003319
X018819Y004319
X018819Y005319
X018819Y006319
X018819Y007319
X018819Y008319
X018819Y009319
X018819Y010319
X018819Y011319
X018819Y012319
X017319Y013819
X016319Y013819
M30
