*
*
G04 PADS 9.5 Build Number: 522968 generated Gerber (RS-274-X) file*
G04 PC Version=2.1*
*
%IN "core_QCA9558_0102.pcb"*%
*
%MOIN*%
*
%FSLAX35Y35*%
*
*
*
*
G04 PC Standard Apertures*
*
*
G04 Thermal Relief Aperture macro.*
%AMTER*
1,1,$1,0,0*
1,0,$1-$2,0,0*
21,0,$3,$4,0,0,45*
21,0,$3,$4,0,0,135*
%
*
*
G04 Annular Aperture macro.*
%AMANN*
1,1,$1,0,0*
1,0,$2,0,0*
%
*
*
G04 Odd Aperture macro.*
%AMODD*
1,1,$1,0,0*
1,0,$1-0.005,0,0*
%
*
*
G04 PC Custom Aperture Macros*
*
*
*
*
*
*
G04 PC Aperture Table*
*
%ADD010C,0.001*%
%ADD045C,0.01*%
%ADD098C,0.004*%
%ADD130R,0.023X0.021*%
%ADD131R,0.021X0.023*%
%ADD132R,0.04X0.039*%
%ADD137C,0.061*%
%ADD141R,0.06X0.052*%
%ADD150R,0.039X0.04*%
%ADD151R,0.013X0.013*%
%ADD172R,0.052X0.06*%
%ADD175C,0.051*%
%ADD181C,0.121*%
%ADD194R,0.143X0.068*%
%ADD204R,0.056X0.064*%
%ADD205R,0.064X0.056*%
%ADD220R,0.037X0.037*%
%ADD221R,0.037X0.051*%
%ADD222R,0.051X0.037*%
%ADD315O,0.04037X0.07974*%
%ADD317R,0.051X0.081*%
%ADD319O,0.07974X0.04037*%
%ADD321R,0.081X0.046*%
%ADD322R,0.046X0.081*%
%ADD323R,0.046X0.061*%
%ADD324R,0.042X0.052*%
*
*
*
*
G04 PC Circuitry*
G04 Layer Name core_QCA9558_0102.pcb - circuitry*
%LPD*%
*
*
G04 PC Custom Flashes*
G04 Layer Name core_QCA9558_0102.pcb - flashes*
%LPD*%
*
*
G04 PC Circuitry*
G04 Layer Name core_QCA9558_0102.pcb - circuitry*
%LPD*%
*
G54D10*
G54D45*
G01X1931811Y1410693D02*
Y1404131D01*
Y1410693D02*
X1929766D01*
X1929084Y1410381*
X1928856Y1410068*
X1928629Y1409443*
Y1408818*
X1928856Y1408193*
X1929084Y1407881*
X1929766Y1407568*
X1931811D02*
X1929766D01*
X1929084Y1407256*
X1928856Y1406943*
X1928629Y1406318*
Y1405381*
X1928856Y1404756*
X1929084Y1404443*
X1929766Y1404131*
X1931811*
X1925220Y1410693D02*
X1925675Y1410381D01*
X1926129Y1409756*
X1926356Y1409131*
X1926584Y1408193*
Y1406631*
X1926356Y1405693*
X1926129Y1405068*
X1925675Y1404443*
X1925220Y1404131*
X1924311*
X1923856Y1404443*
X1923402Y1405068*
X1923175Y1405693*
X1922947Y1406631*
Y1408193*
X1923175Y1409131*
X1923402Y1409756*
X1923856Y1410381*
X1924311Y1410693*
X1925220*
X1919311D02*
Y1404131D01*
X1920902Y1410693D02*
X1917720D01*
X1914084D02*
Y1404131D01*
X1915675Y1410693D02*
X1912493D01*
X1909084D02*
X1909538Y1410381D01*
X1909993Y1409756*
X1910220Y1409131*
X1910447Y1408193*
Y1406631*
X1910220Y1405693*
X1909993Y1405068*
X1909538Y1404443*
X1909084Y1404131*
X1908175*
X1907720Y1404443*
X1907266Y1405068*
X1907038Y1405693*
X1906811Y1406631*
Y1408193*
X1907038Y1409131*
X1907266Y1409756*
X1907720Y1410381*
X1908175Y1410693*
X1909084*
X1904766D02*
Y1404131D01*
Y1410693D02*
X1902947Y1404131D01*
X1901129Y1410693D02*
X1902947Y1404131D01*
X1901129Y1410693D02*
Y1404131D01*
X1890675Y1409756D02*
X1891129Y1410381D01*
X1891811Y1410693*
X1892720*
X1893402Y1410381*
X1893856Y1409756*
Y1409131*
X1893629Y1408506*
X1893402Y1408193*
X1892947Y1407881*
X1891584Y1407256*
X1891129Y1406943*
X1890902Y1406631*
X1890675Y1406006*
Y1405068*
X1891129Y1404443*
X1891811Y1404131*
X1892720*
X1893402Y1404443*
X1893856Y1405068*
X1888629Y1410693D02*
Y1404131D01*
X1886584Y1410693D02*
Y1404131D01*
Y1410693D02*
X1884993D01*
X1884311Y1410381*
X1883856Y1409756*
X1883629Y1409131*
X1883402Y1408193*
Y1406631*
X1883629Y1405693*
X1883856Y1405068*
X1884311Y1404443*
X1884993Y1404131*
X1886584*
X1881356Y1410693D02*
Y1404131D01*
Y1410693D02*
X1878402D01*
X1881356Y1407568D02*
X1879538D01*
X1881356Y1404131D02*
X1878402D01*
X1867947Y1409756D02*
X1868402Y1410381D01*
X1869084Y1410693*
X1869993*
X1870675Y1410381*
X1871129Y1409756*
Y1409131*
X1870902Y1408506*
X1870675Y1408193*
X1870220Y1407881*
X1868856Y1407256*
X1868402Y1406943*
X1868175Y1406631*
X1867947Y1406006*
Y1405068*
X1868402Y1404443*
X1869084Y1404131*
X1869993*
X1870675Y1404443*
X1871129Y1405068*
X1864538Y1410693D02*
X1864993Y1410381D01*
X1865447Y1409756*
X1865675Y1409131*
X1865902Y1408193*
Y1406631*
X1865675Y1405693*
X1865447Y1405068*
X1864993Y1404443*
X1864538Y1404131*
X1863629*
X1863175Y1404443*
X1862720Y1405068*
X1862493Y1405693*
X1862266Y1406631*
Y1408193*
X1862493Y1409131*
X1862720Y1409756*
X1863175Y1410381*
X1863629Y1410693*
X1864538*
X1860220D02*
Y1404131D01*
X1857493*
X1855447Y1410693D02*
Y1404131D01*
Y1410693D02*
X1853856D01*
X1853175Y1410381*
X1852720Y1409756*
X1852493Y1409131*
X1852266Y1408193*
Y1406631*
X1852493Y1405693*
X1852720Y1405068*
X1853175Y1404443*
X1853856Y1404131*
X1855447*
X1850220Y1410693D02*
Y1404131D01*
Y1410693D02*
X1847266D01*
X1850220Y1407568D02*
X1848402D01*
X1850220Y1404131D02*
X1847266D01*
X1845220Y1410693D02*
Y1404131D01*
Y1410693D02*
X1843175D01*
X1842493Y1410381*
X1842266Y1410068*
X1842038Y1409443*
Y1408818*
X1842266Y1408193*
X1842493Y1407881*
X1843175Y1407568*
X1845220*
X1843629D02*
X1842038Y1404131D01*
X1839993Y1410693D02*
Y1404131D01*
Y1410693D02*
X1838175Y1404131D01*
X1836356Y1410693D02*
X1838175Y1404131D01*
X1836356Y1410693D02*
Y1404131D01*
X1832493Y1410693D02*
X1834311Y1404131D01*
X1832493Y1410693D02*
X1830675Y1404131D01*
X1833629Y1406318D02*
X1831356D01*
X1825447Y1409756D02*
X1825902Y1410381D01*
X1826584Y1410693*
X1827493*
X1828175Y1410381*
X1828629Y1409756*
Y1409131*
X1828402Y1408506*
X1828175Y1408193*
X1827720Y1407881*
X1826356Y1407256*
X1825902Y1406943*
X1825675Y1406631*
X1825447Y1406006*
Y1405068*
X1825902Y1404443*
X1826584Y1404131*
X1827493*
X1828175Y1404443*
X1828629Y1405068*
X1823402Y1410693D02*
Y1404131D01*
X1820220Y1410693D02*
X1823402Y1406318D01*
X1822266Y1407881D02*
X1820220Y1404131D01*
G54D98*
X2040511Y1686931D02*
X2042611D01*
Y1684831*
X2040511*
Y1686931*
X2044011D02*
X2046111D01*
Y1684831*
X2044011*
Y1686931*
X2040511Y1686629D02*
X2042611D01*
X2040511Y1686269D02*
X2042611D01*
X2040511Y1685909D02*
X2042611D01*
X2040511Y1685549D02*
X2042611D01*
X2040511Y1685189D02*
X2042611D01*
X2044011Y1686629D02*
X2046111D01*
X2044011Y1686269D02*
X2046111D01*
X2044011Y1685909D02*
X2046111D01*
X2044011Y1685549D02*
X2046111D01*
X2044011Y1685189D02*
X2046111D01*
X1800000Y1792319D02*
X2200000D01*
Y1492319*
X1800000*
Y1792319*
G54D130*
X2098470Y1720501D03*
Y1723701D03*
X2108391Y1530672D03*
Y1533872D03*
X1965245Y1668416D03*
Y1665216D03*
X1960911Y1638931D03*
Y1635731D03*
X2020540Y1611288D03*
Y1614488D03*
X2077649Y1720075D03*
Y1723275D03*
X2081649Y1720075D03*
Y1723275D03*
X2118894Y1725172D03*
Y1728372D03*
X2122894Y1725172D03*
Y1728372D03*
X1976511Y1647331D03*
Y1644131D03*
X1980145Y1688785D03*
Y1691985D03*
X2009287Y1672518D03*
Y1669318D03*
X2013730Y1672518D03*
Y1669318D03*
X1994049Y1587983D03*
Y1584783D03*
X1989349Y1588083D03*
Y1584883D03*
X1978811Y1672731D03*
Y1675931D03*
X1979611Y1664131D03*
Y1667331D03*
X1984611Y1657031D03*
Y1660231D03*
X1888311Y1670131D03*
Y1673331D03*
X1889611Y1608231D03*
Y1611431D03*
X1888211Y1542931D03*
Y1546131D03*
X2008911Y1719431D03*
Y1716231D03*
X2019311Y1735331D03*
Y1732131D03*
X1968653Y1743150D03*
Y1739950D03*
X2013511Y1722531D03*
Y1719331D03*
X1905711Y1666131D03*
Y1669331D03*
X1906611Y1602931D03*
Y1606131D03*
X1906311Y1537431D03*
Y1540631D03*
X2004311Y1719431D03*
Y1716231D03*
X1901611Y1666131D03*
Y1669331D03*
X1988811Y1602531D03*
Y1599331D03*
X1902611Y1602931D03*
Y1606131D03*
X1901711Y1537431D03*
Y1540631D03*
X1988442Y1668459D03*
Y1671659D03*
X1969162Y1679099D03*
Y1682299D03*
X1992325Y1666275D03*
Y1669475D03*
X1990811Y1640131D03*
Y1636931D03*
X2009918Y1698614D03*
Y1695414D03*
X1983911Y1607231D03*
Y1610431D03*
X1973211Y1638931D03*
Y1635731D03*
G54D131*
X1984011Y1602531D03*
X1980811D03*
X1972405Y1691899D03*
X1975605D03*
X1991973Y1657417D03*
X1988773D03*
X1995082Y1653270D03*
X1991882D03*
X2008414Y1639345D03*
X2011614D03*
X2033210Y1619272D03*
X2030010D03*
X2112211Y1625231D03*
X2115411D03*
X2088411Y1582131D03*
X2085211D03*
X1964933Y1682330D03*
X1961733D03*
X2035641Y1702004D03*
X2032441D03*
X2030011Y1685731D03*
X2026811D03*
X2062641Y1707394D03*
X2065841D03*
X2100544Y1558737D03*
X2097344D03*
Y1554197D03*
X2100544D03*
X2124211Y1678131D03*
X2127411D03*
X2124211Y1673631D03*
X2127411D03*
X1995017Y1648807D03*
X1991817D03*
X1995017Y1644807D03*
X1991817D03*
X2029411Y1689531D03*
X2026211D03*
X1976111Y1621631D03*
X1972911D03*
X2020711Y1618931D03*
X2017511D03*
X1992325Y1673375D03*
X1995525D03*
X2006626Y1748314D03*
X2003426D03*
X1953091Y1773159D03*
X1949891D03*
X2005647Y1758890D03*
X2008847D03*
X2018570Y1645296D03*
X2021770D03*
X2026191Y1696150D03*
X2029391D03*
X1972911Y1616931D03*
X1976111D03*
X2121711Y1698131D03*
X2124911D03*
X1986911Y1664131D03*
X1983711D03*
X1968711Y1647431D03*
X1971911D03*
X2064711Y1642631D03*
X2067911D03*
X2064711Y1638631D03*
X2067911D03*
X2023527Y1701817D03*
X2026727D03*
X2070890Y1732511D03*
X2074090D03*
X1997531Y1719315D03*
X1994331D03*
X1980562Y1720219D03*
X1983762D03*
X1969945Y1668416D03*
X1973145D03*
X1965411Y1638931D03*
X1968611D03*
X1973145Y1663885D03*
X1969945D03*
X1983911Y1615031D03*
X1980711D03*
G54D132*
X1996746Y1661569D03*
X2002946D03*
X1996668Y1632665D03*
X2002868D03*
X1996711Y1639131D03*
X2002911D03*
X1972911Y1611331D03*
X1966711D03*
X2003925Y1668075D03*
X1997725D03*
X2130911Y1667631D03*
X2124711D03*
X2017211Y1638131D03*
X2023411D03*
X2000444Y1761968D03*
X1994244D03*
X1946911Y1760431D03*
X1953111D03*
X2063994Y1714694D03*
X2070194D03*
X2039611Y1706446D03*
X2033411D03*
X1997091Y1730414D03*
X1990891D03*
X1946911Y1767431D03*
X1953111D03*
X1925247Y1739202D03*
X1931447D03*
X2106317Y1554666D03*
X2112517D03*
X2113008Y1724670D03*
X2106808D03*
G54D137*
X1821511Y1513831D03*
X1831511D03*
X1841511D03*
G54D141*
X1997879Y1606958D03*
Y1614458D03*
X2055811Y1721849D03*
Y1714349D03*
G54D150*
X1998006Y1690118D03*
Y1683918D03*
X2046711Y1616431D03*
Y1610231D03*
X2027011Y1650531D03*
Y1644331D03*
X2070109Y1727156D03*
Y1720956D03*
X2015620Y1693231D03*
Y1687031D03*
X2027702Y1613864D03*
Y1607664D03*
X2092649Y1724775D03*
Y1718575D03*
X2013611Y1734231D03*
Y1728031D03*
X1964511Y1758631D03*
Y1752431D03*
X2100554Y1541357D03*
Y1547557D03*
X2064109Y1727156D03*
Y1720956D03*
X2037369Y1719097D03*
Y1712897D03*
X1882611Y1676331D03*
Y1670131D03*
X1883911Y1614431D03*
Y1608231D03*
X1882411Y1549131D03*
Y1542931D03*
X2043915Y1719097D03*
Y1712897D03*
X2086649Y1718575D03*
Y1724775D03*
X2120558Y1533836D03*
Y1527636D03*
X2113990Y1533877D03*
Y1527677D03*
X1894811Y1670131D03*
Y1676331D03*
X1896111Y1607531D03*
Y1613731D03*
X1894911Y1542431D03*
Y1548631D03*
G54D151*
X2038759Y1683635D03*
X2040559D03*
X1975611Y1683731D03*
Y1681931D03*
X1986837Y1692176D03*
Y1690376D03*
X2000358Y1674571D03*
Y1672771D03*
X1985111Y1677231D03*
Y1675431D03*
X1996511Y1678731D03*
Y1676931D03*
X1983225Y1667743D03*
X1985025D03*
X1983234Y1670546D03*
X1985034D03*
X2022363Y1691594D03*
Y1689794D03*
X2002611Y1682931D03*
Y1684731D03*
X2012111Y1682331D03*
X2013911D03*
X2005211Y1679631D03*
Y1677831D03*
X2036011Y1677531D03*
X2034211D03*
Y1668531D03*
X2032411D03*
X2034211Y1666131D03*
X2032411D03*
X1974988Y1660388D03*
X1973188D03*
X1977411Y1651631D03*
X1975611D03*
X1980311Y1647531D03*
Y1645731D03*
X1984311Y1640431D03*
Y1638631D03*
X1981311Y1640431D03*
Y1638631D03*
X1975011Y1629731D03*
X1973211D03*
X1984411Y1627531D03*
X1986211D03*
X2002982Y1627219D03*
X2004782D03*
X1981111Y1621131D03*
Y1622931D03*
X2038711Y1666231D03*
Y1664431D03*
X2031311Y1658331D03*
X2029511D03*
X2031311Y1655131D03*
X2029511D03*
X2031811Y1649931D03*
Y1648131D03*
X2037411Y1651531D03*
Y1653331D03*
X2034211Y1642731D03*
X2032411D03*
X2024111Y1633631D03*
X2025911D03*
X2010511Y1631331D03*
Y1633131D03*
X2014611Y1628531D03*
X2016411D03*
X2024111Y1631231D03*
X2025911D03*
X2036511Y1629231D03*
X2038311D03*
X2036811Y1632831D03*
Y1634631D03*
X2020711Y1622831D03*
X2018911D03*
X2025911Y1626931D03*
X2027711D03*
X2032911Y1623131D03*
X2031111D03*
X2037611Y1622631D03*
X2039411D03*
X1990011Y1617231D03*
Y1615431D03*
X2003224Y1672743D03*
Y1674543D03*
X2040588Y1686451D03*
X2038788D03*
X2013911Y1678731D03*
X2012111D03*
X2029411Y1682731D03*
X2027611D03*
X2040211Y1677631D03*
X2038411D03*
X2038711Y1671331D03*
Y1669531D03*
X2062650Y1703644D03*
X2064450D03*
X2036111Y1661931D03*
Y1663731D03*
X2033711Y1653331D03*
Y1655131D03*
Y1660131D03*
Y1658331D03*
X2034211Y1648131D03*
Y1649931D03*
X2042411Y1650231D03*
X2040611D03*
X2037211Y1646131D03*
Y1644331D03*
X2013111Y1633131D03*
Y1631331D03*
X2020928Y1631145D03*
Y1629345D03*
X2031111Y1629231D03*
X2032911D03*
X2034411Y1634631D03*
Y1632831D03*
X2012311Y1623931D03*
Y1625731D03*
X2027711Y1622931D03*
X2025911D03*
X2039411Y1625031D03*
X2037611D03*
X2101311Y1706231D03*
Y1708031D03*
X2095811Y1702231D03*
Y1700431D03*
X2095311Y1672031D03*
Y1670231D03*
X2101311Y1672031D03*
Y1670231D03*
X2107811Y1706231D03*
Y1708031D03*
X2114311Y1706231D03*
Y1708031D03*
X2120311Y1706231D03*
Y1708031D03*
X2129311Y1706231D03*
Y1708031D03*
X2103911Y1696131D03*
X2105711D03*
X2114911D03*
X2116711D03*
X2103911Y1683131D03*
X2105711D03*
X2110411D03*
X2112211D03*
X2107811Y1672031D03*
Y1670231D03*
X2114311Y1672031D03*
Y1670231D03*
X2118811Y1673031D03*
Y1671231D03*
X2137311Y1674831D03*
X2135511D03*
X2101811Y1617231D03*
Y1619031D03*
X2107811Y1617231D03*
Y1619031D03*
X2114311Y1617231D03*
Y1619031D03*
X2120311Y1617231D03*
Y1619031D03*
X2096311Y1611531D03*
Y1609731D03*
X2093311Y1589231D03*
Y1591031D03*
X2099711Y1585131D03*
X2097911D03*
X2132411Y1614131D03*
X2134211D03*
X2103411Y1603131D03*
X2105211D03*
X2116411D03*
X2118211D03*
X2103411Y1596631D03*
X2105211D03*
X2118211Y1595631D03*
X2116411D03*
X2107811Y1582531D03*
Y1580731D03*
X2114111Y1582831D03*
Y1581031D03*
X2119811Y1583031D03*
Y1581231D03*
X2139311Y1582031D03*
Y1580231D03*
X1978611Y1683731D03*
Y1681931D03*
X1984005Y1692153D03*
Y1690353D03*
X1989838Y1685424D03*
Y1687224D03*
X1988255Y1677214D03*
Y1675414D03*
X1974988Y1657988D03*
X1973188D03*
X1981311Y1651531D03*
X1983111D03*
X1986411Y1652931D03*
Y1651131D03*
X1983211Y1647531D03*
Y1645731D03*
X1975011Y1632131D03*
X1973211D03*
X1990911Y1632431D03*
Y1630631D03*
X1987611Y1617231D03*
Y1615431D03*
X2102167Y1723284D03*
Y1721484D03*
X2104631Y1533859D03*
Y1532059D03*
X1992659Y1685444D03*
Y1687244D03*
X1991311Y1676531D03*
X1993111D03*
X2035324Y1698015D03*
X2033524D03*
X2033011Y1681731D03*
Y1679931D03*
X2044311Y1680731D03*
Y1678931D03*
X2007611Y1679631D03*
Y1677831D03*
X1988811Y1652931D03*
Y1651131D03*
X2037211Y1639531D03*
Y1637731D03*
X2002811Y1679631D03*
Y1677831D03*
X2038711Y1659431D03*
Y1661231D03*
X2042811Y1627531D03*
Y1625731D03*
X1984086Y1772230D03*
Y1770430D03*
X1986503Y1754077D03*
Y1755877D03*
X1998830Y1774280D03*
Y1772480D03*
X2008545Y1732427D03*
Y1734227D03*
X2004773Y1754919D03*
X2006573D03*
X1962711Y1726889D03*
X1964511D03*
X1974490Y1753328D03*
X1976290D03*
X1968904Y1733257D03*
X1967104D03*
X2002811Y1723931D03*
Y1725731D03*
X1977322Y1724906D03*
Y1726706D03*
X2017311Y1721531D03*
Y1723331D03*
X1968904Y1730254D03*
X1967104D03*
X1980246Y1730289D03*
Y1728489D03*
X1991896Y1725681D03*
X1993696D03*
X1969136Y1726889D03*
X1967336D03*
X2003641Y1729821D03*
X2001841D03*
X2003641Y1732721D03*
X2001841D03*
X2001307Y1737028D03*
X2003107D03*
X2007711Y1722831D03*
X2005911D03*
X1967392Y1769294D03*
Y1771094D03*
X1970111Y1758831D03*
Y1757031D03*
X1964953Y1743150D03*
Y1741350D03*
X1959711Y1758631D03*
Y1756831D03*
X1968889Y1736633D03*
X1967089D03*
X1973011Y1757031D03*
Y1758831D03*
X1975511Y1744531D03*
X1977311D03*
X1977211Y1757131D03*
X1979011D03*
X1983103Y1755877D03*
Y1754077D03*
X1992203Y1755877D03*
Y1754077D03*
X1995103Y1755877D03*
Y1754077D03*
X2003564Y1770442D03*
Y1772242D03*
X1991048Y1770424D03*
Y1772224D03*
X1993993Y1770424D03*
Y1772224D03*
X1997922Y1756508D03*
Y1754708D03*
X1970392Y1769294D03*
Y1771094D03*
X2012811Y1741631D03*
X2014611D03*
X2006616Y1744589D03*
X2004816D03*
X2006577Y1751972D03*
X2004777D03*
X1987211Y1770431D03*
Y1772231D03*
X1996969Y1766591D03*
X1995169D03*
X2000822Y1756508D03*
Y1754708D03*
X2012811Y1738731D03*
X2014611D03*
X2007711Y1725731D03*
X2005911D03*
X2025111Y1743831D03*
Y1742031D03*
Y1736931D03*
Y1738731D03*
X1978460Y1733267D03*
X1980260D03*
X1970279Y1718942D03*
Y1717142D03*
X1961174Y1731525D03*
Y1729725D03*
X1986254Y1726813D03*
Y1725013D03*
X1989303Y1754077D03*
Y1755877D03*
X1974522Y1724906D03*
Y1726706D03*
X1971722Y1724906D03*
Y1726706D03*
X1958411Y1742331D03*
X1956611D03*
X1975505Y1741584D03*
X1977305D03*
X1958396Y1745651D03*
X1956596D03*
X1961919Y1745623D03*
Y1743823D03*
X1970811Y1752131D03*
Y1753931D03*
X1977586Y1718864D03*
Y1717064D03*
X1974784Y1718908D03*
X1972984D03*
X2003107Y1739946D03*
X2001307D03*
X2014611Y1744531D03*
X2012811D03*
X1978509Y1736111D03*
X1980309D03*
X1973711Y1734731D03*
X1975511D03*
X1963045Y1719483D03*
Y1721283D03*
X1967379Y1718942D03*
Y1717142D03*
X1958325Y1738903D03*
X1956525D03*
X2093911Y1660631D03*
X2095711D03*
X2093911Y1663631D03*
X2095711D03*
X2099411Y1659131D03*
X2101211D03*
X2099411Y1662131D03*
X2101211D03*
X2093911Y1654631D03*
X2095711D03*
X2093911Y1657631D03*
X2095711D03*
X2099411Y1653131D03*
X2101211D03*
X2099411Y1656131D03*
X2101211D03*
X2093911Y1648631D03*
X2095711D03*
X2093911Y1651631D03*
X2095711D03*
X2099411Y1647131D03*
X2101211D03*
X2099411Y1650131D03*
X2101211D03*
X2093911Y1642631D03*
X2095711D03*
X2093911Y1645631D03*
X2095711D03*
X2099411Y1641131D03*
X2101211D03*
X2099411Y1644131D03*
X2101211D03*
X2093911Y1636631D03*
X2095711D03*
X2093911Y1639631D03*
X2095711D03*
X2099411Y1638131D03*
X2101211D03*
X2093911Y1633631D03*
X2095711D03*
X2099411Y1635131D03*
X2101211D03*
X1983342Y1726813D03*
Y1725013D03*
X2007627Y1628253D03*
Y1630053D03*
X2090211Y1647131D03*
X2088411D03*
X2088911Y1663631D03*
X2090711D03*
X2088411Y1649631D03*
X2090211D03*
X2088411Y1644131D03*
X2090211D03*
X1961233Y1724112D03*
X1963033D03*
X1942411Y1726631D03*
X1944211D03*
X1976329Y1747599D03*
X1974529D03*
X1976329Y1750446D03*
X1974529D03*
G54D172*
X1974645Y1586688D03*
X1982145D03*
G54D175*
X2181382Y1519289D03*
G54D181*
X1812093Y1780587D03*
X2180016Y1505704D03*
X1829505Y1549330D03*
G54D194*
X1928611Y1721731D03*
Y1731131D03*
G54D204*
X2090561Y1575131D03*
X2083061D03*
X1982145Y1595588D03*
X1974645D03*
X2041040Y1691931D03*
X2048540D03*
X2122061Y1544231D03*
X2129561D03*
X2114016Y1519997D03*
X2106516D03*
X2055618Y1705403D03*
X2048118D03*
G54D205*
X1962111Y1645881D03*
Y1653381D03*
X2039311Y1617381D03*
Y1609881D03*
X2010411Y1606906D03*
Y1614406D03*
X1960511Y1767381D03*
Y1774881D03*
G54D220*
X2085899Y1740575D03*
X2093399D03*
X2099399D03*
X2106899D03*
X2105811Y1540581D03*
Y1548081D03*
G54D221*
X2089649Y1732575D03*
X2103149D03*
G54D222*
X2113811Y1544331D03*
G54D315*
X1840156Y1526800D03*
X1992209Y1568430D03*
X1840258Y1695878D03*
X1840140Y1605440D03*
G54D317*
X1815000Y1492319D03*
X1825000D03*
X1835000D03*
X1845000D03*
X1855000D03*
X1865000D03*
X1875000D03*
X1885000D03*
X1895000D03*
X1905000D03*
X1915000D03*
X1925000D03*
X1935000D03*
X1945000D03*
X1955000D03*
X1965000D03*
X1975000D03*
X1985000D03*
X1995000D03*
X2005000D03*
X2015000D03*
X2025000D03*
X2035000D03*
X2045000D03*
X2055000D03*
X2065000D03*
X2075000D03*
X2085000D03*
X2095000D03*
X2105000D03*
X2115000D03*
X2125000D03*
X2135000D03*
X2145000D03*
X2155000D03*
X2165000D03*
X2175000D03*
X2185000D03*
G54D319*
X1856593Y1504056D03*
X1984264Y1504107D03*
X1866154Y1700870D03*
X1968140Y1700714D03*
G54D321*
X2200000Y1507319D03*
Y1517319D03*
Y1527319D03*
Y1537319D03*
Y1547319D03*
Y1557319D03*
Y1567319D03*
Y1577319D03*
Y1587319D03*
Y1597319D03*
Y1607319D03*
Y1617319D03*
Y1627319D03*
Y1637319D03*
Y1647319D03*
Y1657319D03*
Y1667319D03*
Y1677319D03*
Y1687319D03*
Y1697319D03*
Y1707319D03*
Y1717319D03*
Y1727319D03*
Y1737319D03*
Y1747319D03*
Y1757319D03*
Y1767319D03*
Y1777319D03*
X1800000D03*
Y1767319D03*
Y1757319D03*
Y1747319D03*
Y1737319D03*
Y1727319D03*
Y1717319D03*
Y1707319D03*
Y1697319D03*
Y1687319D03*
Y1677319D03*
Y1667319D03*
Y1657319D03*
Y1647319D03*
Y1637319D03*
Y1627319D03*
Y1617319D03*
Y1607319D03*
Y1597319D03*
Y1587319D03*
Y1577319D03*
Y1567319D03*
Y1557319D03*
Y1547319D03*
Y1537319D03*
Y1527319D03*
Y1517319D03*
Y1507319D03*
G54D322*
X2185000Y1792319D03*
G54D323*
X2175000D03*
X2165000D03*
X2155000D03*
X2145000D03*
X2135000D03*
X2125000D03*
X2115000D03*
X2105000D03*
X2095000D03*
X2085000D03*
X2075000D03*
X2065000D03*
X2055000D03*
X2045000D03*
X2035000D03*
X2025000D03*
X2015000D03*
X2005000D03*
X1995000D03*
X1985000D03*
X1975000D03*
X1965000D03*
X1955000D03*
X1945000D03*
X1935000D03*
X1925000D03*
X1915000D03*
X1905000D03*
X1895000D03*
X1885000D03*
X1875000D03*
X1865000D03*
X1855000D03*
X1845000D03*
X1835000D03*
X1825000D03*
X1815000D03*
G54D324*
X2030111Y1737931D03*
Y1746931D03*
X2037511D03*
Y1737931D03*
X0Y0D02*
M02*
