*
*
G04 PADS 9.5 Build Number: 522968 generated Gerber (RS-274-X) file*
G04 PC Version=2.1*
*
%IN "core_QCA9558_0102.pcb"*%
*
%MOIN*%
*
%FSLAX35Y35*%
*
*
*
*
G04 PC Standard Apertures*
*
*
G04 Thermal Relief Aperture macro.*
%AMTER*
1,1,$1,0,0*
1,0,$1-$2,0,0*
21,0,$3,$4,0,0,45*
21,0,$3,$4,0,0,135*
%
*
*
G04 Annular Aperture macro.*
%AMANN*
1,1,$1,0,0*
1,0,$2,0,0*
%
*
*
G04 Odd Aperture macro.*
%AMODD*
1,1,$1,0,0*
1,0,$1-0.005,0,0*
%
*
*
G04 PC Custom Aperture Macros*
*
*
*
*
*
*
G04 PC Aperture Table*
*
%ADD010C,0.001*%
%ADD097C,0.005*%
%ADD098C,0.004*%
%ADD102C,0.006*%
%ADD130R,0.023X0.021*%
%ADD131R,0.021X0.023*%
%ADD132R,0.04X0.039*%
%ADD133R,0.064X0.072*%
%ADD137C,0.061*%
%ADD141R,0.06X0.052*%
%ADD145R,0.041X0.029*%
%ADD150R,0.039X0.04*%
%ADD151R,0.013X0.013*%
%ADD152R,0.01X0.015*%
%ADD153R,0.025X0.019*%
%ADD154R,0.00887X0.02069*%
%ADD155R,0.02069X0.00887*%
%ADD156R,0.00887X0.00887*%
%ADD158C,0.01478*%
%ADD159R,0.166X0.078*%
%ADD162C,0.011*%
%ADD163O,0.091X0.025*%
%ADD172R,0.052X0.06*%
%ADD175C,0.051*%
%ADD181C,0.121*%
%ADD182R,0.045X0.045*%
%ADD183R,0.093X0.039*%
%ADD185R,0.015X0.031*%
%ADD186R,0.031X0.015*%
%ADD187R,0.075X0.075*%
%ADD190R,0.023X0.035*%
%ADD191R,0.022X0.029*%
%ADD192R,0.035X0.023*%
%ADD193R,0.029X0.022*%
%ADD204R,0.056X0.064*%
%ADD205R,0.064X0.056*%
%ADD214R,0.01281X0.01478*%
%ADD215R,0.01478X0.01281*%
%ADD217R,0.029X0.021*%
%ADD223O,0.071X0.011*%
%ADD224O,0.075X0.025*%
%ADD225O,0.025X0.091*%
%ADD226R,0.027X0.017*%
%ADD227R,0.036X0.061*%
%ADD232R,0.13289X0.06399*%
%ADD313R,0.099X0.068*%
%ADD314C,0.02462*%
%ADD315O,0.04037X0.07974*%
%ADD316R,0.052X0.042*%
%ADD317R,0.051X0.081*%
%ADD318C,0.046*%
%ADD319O,0.07974X0.04037*%
%ADD320R,0.045X0.123*%
*
*
*
*
G04 PC Circuitry*
G04 Layer Name core_QCA9558_0102.pcb - circuitry*
%LPD*%
*
*
G04 PC Custom Flashes*
G04 Layer Name core_QCA9558_0102.pcb - flashes*
%LPD*%
*
*
G04 PC Circuitry*
G04 Layer Name core_QCA9558_0102.pcb - circuitry*
%LPD*%
*
G54D10*
G01X1944950Y1527202D02*
X1943395Y1525647D01*
X1944809Y1524232*
X1946365Y1525788*
X1944950Y1527202*
X1944809Y1524232D02*
X1944809D01*
X1944709Y1524332D02*
X1944909D01*
X1944609Y1524432D02*
X1945009D01*
X1944509Y1524532D02*
X1945109D01*
X1944409Y1524632D02*
X1945209D01*
X1944309Y1524732D02*
X1945309D01*
X1944209Y1524832D02*
X1945409D01*
X1944109Y1524932D02*
X1945509D01*
X1944009Y1525032D02*
X1945609D01*
X1943909Y1525132D02*
X1945709D01*
X1943809Y1525232D02*
X1945809D01*
X1943709Y1525332D02*
X1945909D01*
X1943609Y1525432D02*
X1946009D01*
X1943509Y1525532D02*
X1946109D01*
X1943409Y1525632D02*
X1946209D01*
X1943481Y1525732D02*
X1946309D01*
X1943581Y1525832D02*
X1946320D01*
X1943681Y1525932D02*
X1946220D01*
X1943781Y1526032D02*
X1946120D01*
X1943881Y1526132D02*
X1946020D01*
X1943981Y1526232D02*
X1945920D01*
X1944081Y1526332D02*
X1945820D01*
X1944181Y1526432D02*
X1945720D01*
X1944281Y1526532D02*
X1945620D01*
X1944381Y1526632D02*
X1945520D01*
X1944481Y1526732D02*
X1945420D01*
X1944581Y1526832D02*
X1945320D01*
X1944681Y1526932D02*
X1945220D01*
X1944781Y1527032D02*
X1945120D01*
X1944881Y1527132D02*
X1945020D01*
X1943395Y1525647D02*
X1943395D01*
X1943495Y1525547D02*
Y1525747D01*
X1943595Y1525447D02*
Y1525847D01*
X1943695Y1525347D02*
Y1525947D01*
X1943795Y1525247D02*
Y1526047D01*
X1943895Y1525147D02*
Y1526147D01*
X1943995Y1525047D02*
Y1526247D01*
X1944095Y1524947D02*
Y1526347D01*
X1944195Y1524847D02*
Y1526447D01*
X1944295Y1524747D02*
Y1526547D01*
X1944395Y1524647D02*
Y1526647D01*
X1944495Y1524547D02*
Y1526747D01*
X1944595Y1524447D02*
Y1526847D01*
X1944695Y1524347D02*
Y1526947D01*
X1944795Y1524247D02*
Y1527047D01*
X1944895Y1524318D02*
Y1527147D01*
X1944995Y1524418D02*
Y1527158D01*
X1945095Y1524518D02*
Y1527058D01*
X1945195Y1524618D02*
Y1526958D01*
X1945295Y1524718D02*
Y1526858D01*
X1945395Y1524818D02*
Y1526758D01*
X1945495Y1524918D02*
Y1526658D01*
X1945595Y1525018D02*
Y1526558D01*
X1945695Y1525118D02*
Y1526458D01*
X1945795Y1525218D02*
Y1526358D01*
X1945895Y1525318D02*
Y1526258D01*
X1945995Y1525418D02*
Y1526158D01*
X1946095Y1525518D02*
Y1526058D01*
X1946195Y1525618D02*
Y1525958D01*
X1946295Y1525718D02*
Y1525858D01*
X1947213Y1524940D02*
X1945657Y1523384D01*
X1947072Y1521970*
X1948627Y1523525*
X1947213Y1524940*
X1947072Y1521970D02*
X1947072D01*
X1946972Y1522070D02*
X1947172D01*
X1946872Y1522170D02*
X1947272D01*
X1946772Y1522270D02*
X1947372D01*
X1946672Y1522370D02*
X1947472D01*
X1946572Y1522470D02*
X1947572D01*
X1946472Y1522570D02*
X1947672D01*
X1946372Y1522670D02*
X1947772D01*
X1946272Y1522770D02*
X1947872D01*
X1946172Y1522870D02*
X1947972D01*
X1946072Y1522970D02*
X1948072D01*
X1945972Y1523070D02*
X1948172D01*
X1945872Y1523170D02*
X1948272D01*
X1945772Y1523270D02*
X1948372D01*
X1945672Y1523370D02*
X1948472D01*
X1945743Y1523470D02*
X1948572D01*
X1945843Y1523570D02*
X1948583D01*
X1945943Y1523670D02*
X1948483D01*
X1946043Y1523770D02*
X1948383D01*
X1946143Y1523870D02*
X1948283D01*
X1946243Y1523970D02*
X1948183D01*
X1946343Y1524070D02*
X1948083D01*
X1946443Y1524170D02*
X1947983D01*
X1946543Y1524270D02*
X1947883D01*
X1946643Y1524370D02*
X1947783D01*
X1946743Y1524470D02*
X1947683D01*
X1946843Y1524570D02*
X1947583D01*
X1946943Y1524670D02*
X1947483D01*
X1947043Y1524770D02*
X1947383D01*
X1947143Y1524870D02*
X1947283D01*
X1945657Y1523384D02*
X1945657D01*
X1945757Y1523284D02*
Y1523484D01*
X1945857Y1523184D02*
Y1523584D01*
X1945957Y1523084D02*
Y1523684D01*
X1946057Y1522984D02*
Y1523784D01*
X1946157Y1522884D02*
Y1523884D01*
X1946257Y1522784D02*
Y1523984D01*
X1946357Y1522684D02*
Y1524084D01*
X1946457Y1522584D02*
Y1524184D01*
X1946557Y1522484D02*
Y1524284D01*
X1946657Y1522384D02*
Y1524384D01*
X1946757Y1522284D02*
Y1524484D01*
X1946857Y1522184D02*
Y1524584D01*
X1946957Y1522084D02*
Y1524684D01*
X1947057Y1521984D02*
Y1524784D01*
X1947157Y1522056D02*
Y1524884D01*
X1947257Y1522156D02*
Y1524895D01*
X1947357Y1522256D02*
Y1524795D01*
X1947457Y1522356D02*
Y1524695D01*
X1947557Y1522456D02*
Y1524595D01*
X1947657Y1522556D02*
Y1524495D01*
X1947757Y1522656D02*
Y1524395D01*
X1947857Y1522756D02*
Y1524295D01*
X1947957Y1522856D02*
Y1524195D01*
X1948057Y1522956D02*
Y1524095D01*
X1948157Y1523056D02*
Y1523995D01*
X1948257Y1523156D02*
Y1523895D01*
X1948357Y1523256D02*
Y1523795D01*
X1948457Y1523356D02*
Y1523695D01*
X1948557Y1523456D02*
Y1523595D01*
X1940295Y1557725D02*
X1941850Y1556170D01*
X1943265Y1557584*
X1941709Y1559140*
X1940295Y1557725*
X1941850Y1556170D02*
X1941850D01*
X1941750Y1556270D02*
X1941950D01*
X1941650Y1556370D02*
X1942050D01*
X1941550Y1556470D02*
X1942150D01*
X1941450Y1556570D02*
X1942250D01*
X1941350Y1556670D02*
X1942350D01*
X1941250Y1556770D02*
X1942450D01*
X1941150Y1556870D02*
X1942550D01*
X1941050Y1556970D02*
X1942650D01*
X1940950Y1557070D02*
X1942750D01*
X1940850Y1557170D02*
X1942850D01*
X1940750Y1557270D02*
X1942950D01*
X1940650Y1557370D02*
X1943050D01*
X1940550Y1557470D02*
X1943150D01*
X1940450Y1557570D02*
X1943250D01*
X1940350Y1557670D02*
X1943179D01*
X1940339Y1557770D02*
X1943079D01*
X1940439Y1557870D02*
X1942979D01*
X1940539Y1557970D02*
X1942879D01*
X1940639Y1558070D02*
X1942779D01*
X1940739Y1558170D02*
X1942679D01*
X1940839Y1558270D02*
X1942579D01*
X1940939Y1558370D02*
X1942479D01*
X1941039Y1558470D02*
X1942379D01*
X1941139Y1558570D02*
X1942279D01*
X1941239Y1558670D02*
X1942179D01*
X1941339Y1558770D02*
X1942079D01*
X1941439Y1558870D02*
X1941979D01*
X1941539Y1558970D02*
X1941879D01*
X1941639Y1559070D02*
X1941779D01*
X1940295Y1557725D02*
X1940295D01*
X1940395Y1557625D02*
Y1557825D01*
X1940495Y1557525D02*
Y1557925D01*
X1940595Y1557425D02*
Y1558025D01*
X1940695Y1557325D02*
Y1558125D01*
X1940795Y1557225D02*
Y1558225D01*
X1940895Y1557125D02*
Y1558325D01*
X1940995Y1557025D02*
Y1558425D01*
X1941095Y1556925D02*
Y1558525D01*
X1941195Y1556825D02*
Y1558625D01*
X1941295Y1556725D02*
Y1558725D01*
X1941395Y1556625D02*
Y1558825D01*
X1941495Y1556525D02*
Y1558925D01*
X1941595Y1556425D02*
Y1559025D01*
X1941695Y1556325D02*
Y1559125D01*
X1941795Y1556225D02*
Y1559054D01*
X1941895Y1556214D02*
Y1558954D01*
X1941995Y1556314D02*
Y1558854D01*
X1942095Y1556414D02*
Y1558754D01*
X1942195Y1556514D02*
Y1558654D01*
X1942295Y1556614D02*
Y1558554D01*
X1942395Y1556714D02*
Y1558454D01*
X1942495Y1556814D02*
Y1558354D01*
X1942595Y1556914D02*
Y1558254D01*
X1942695Y1557014D02*
Y1558154D01*
X1942795Y1557114D02*
Y1558054D01*
X1942895Y1557214D02*
Y1557954D01*
X1942995Y1557314D02*
Y1557854D01*
X1943095Y1557414D02*
Y1557754D01*
X1943195Y1557514D02*
Y1557654D01*
X1942557Y1559988D02*
X1944113Y1558432D01*
X1945527Y1559847*
X1943972Y1561402*
X1942557Y1559988*
X1944113Y1558432D02*
X1944113D01*
X1944013Y1558532D02*
X1944213D01*
X1943913Y1558632D02*
X1944313D01*
X1943813Y1558732D02*
X1944413D01*
X1943713Y1558832D02*
X1944513D01*
X1943613Y1558932D02*
X1944613D01*
X1943513Y1559032D02*
X1944713D01*
X1943413Y1559132D02*
X1944813D01*
X1943313Y1559232D02*
X1944913D01*
X1943213Y1559332D02*
X1945013D01*
X1943113Y1559432D02*
X1945113D01*
X1943013Y1559532D02*
X1945213D01*
X1942913Y1559632D02*
X1945313D01*
X1942813Y1559732D02*
X1945413D01*
X1942713Y1559832D02*
X1945513D01*
X1942613Y1559932D02*
X1945442D01*
X1942602Y1560032D02*
X1945342D01*
X1942702Y1560132D02*
X1945242D01*
X1942802Y1560232D02*
X1945142D01*
X1942902Y1560332D02*
X1945042D01*
X1943002Y1560432D02*
X1944942D01*
X1943102Y1560532D02*
X1944842D01*
X1943202Y1560632D02*
X1944742D01*
X1943302Y1560732D02*
X1944642D01*
X1943402Y1560832D02*
X1944542D01*
X1943502Y1560932D02*
X1944442D01*
X1943602Y1561032D02*
X1944342D01*
X1943702Y1561132D02*
X1944242D01*
X1943802Y1561232D02*
X1944142D01*
X1943902Y1561332D02*
X1944042D01*
X1942557Y1559988D02*
X1942557D01*
X1942657Y1559888D02*
Y1560088D01*
X1942757Y1559788D02*
Y1560188D01*
X1942857Y1559688D02*
Y1560288D01*
X1942957Y1559588D02*
Y1560388D01*
X1943057Y1559488D02*
Y1560488D01*
X1943157Y1559388D02*
Y1560588D01*
X1943257Y1559288D02*
Y1560688D01*
X1943357Y1559188D02*
Y1560788D01*
X1943457Y1559088D02*
Y1560888D01*
X1943557Y1558988D02*
Y1560988D01*
X1943657Y1558888D02*
Y1561088D01*
X1943757Y1558788D02*
Y1561188D01*
X1943857Y1558688D02*
Y1561288D01*
X1943957Y1558588D02*
Y1561388D01*
X1944057Y1558488D02*
Y1561317D01*
X1944157Y1558477D02*
Y1561217D01*
X1944257Y1558577D02*
Y1561117D01*
X1944357Y1558677D02*
Y1561017D01*
X1944457Y1558777D02*
Y1560917D01*
X1944557Y1558877D02*
Y1560817D01*
X1944657Y1558977D02*
Y1560717D01*
X1944757Y1559077D02*
Y1560617D01*
X1944857Y1559177D02*
Y1560517D01*
X1944957Y1559277D02*
Y1560417D01*
X1945057Y1559377D02*
Y1560317D01*
X1945157Y1559477D02*
Y1560217D01*
X1945257Y1559577D02*
Y1560117D01*
X1945357Y1559677D02*
Y1560017D01*
X1945457Y1559777D02*
Y1559917D01*
X1950095Y1527325D02*
X1951650Y1525770D01*
X1953065Y1527184*
X1951509Y1528740*
X1950095Y1527325*
X1951650Y1525770D02*
X1951650D01*
X1951550Y1525870D02*
X1951750D01*
X1951450Y1525970D02*
X1951850D01*
X1951350Y1526070D02*
X1951950D01*
X1951250Y1526170D02*
X1952050D01*
X1951150Y1526270D02*
X1952150D01*
X1951050Y1526370D02*
X1952250D01*
X1950950Y1526470D02*
X1952350D01*
X1950850Y1526570D02*
X1952450D01*
X1950750Y1526670D02*
X1952550D01*
X1950650Y1526770D02*
X1952650D01*
X1950550Y1526870D02*
X1952750D01*
X1950450Y1526970D02*
X1952850D01*
X1950350Y1527070D02*
X1952950D01*
X1950250Y1527170D02*
X1953050D01*
X1950150Y1527270D02*
X1952979D01*
X1950139Y1527370D02*
X1952879D01*
X1950239Y1527470D02*
X1952779D01*
X1950339Y1527570D02*
X1952679D01*
X1950439Y1527670D02*
X1952579D01*
X1950539Y1527770D02*
X1952479D01*
X1950639Y1527870D02*
X1952379D01*
X1950739Y1527970D02*
X1952279D01*
X1950839Y1528070D02*
X1952179D01*
X1950939Y1528170D02*
X1952079D01*
X1951039Y1528270D02*
X1951979D01*
X1951139Y1528370D02*
X1951879D01*
X1951239Y1528470D02*
X1951779D01*
X1951339Y1528570D02*
X1951679D01*
X1951439Y1528670D02*
X1951579D01*
X1950095Y1527325D02*
X1950095D01*
X1950195Y1527225D02*
Y1527425D01*
X1950295Y1527125D02*
Y1527525D01*
X1950395Y1527025D02*
Y1527625D01*
X1950495Y1526925D02*
Y1527725D01*
X1950595Y1526825D02*
Y1527825D01*
X1950695Y1526725D02*
Y1527925D01*
X1950795Y1526625D02*
Y1528025D01*
X1950895Y1526525D02*
Y1528125D01*
X1950995Y1526425D02*
Y1528225D01*
X1951095Y1526325D02*
Y1528325D01*
X1951195Y1526225D02*
Y1528425D01*
X1951295Y1526125D02*
Y1528525D01*
X1951395Y1526025D02*
Y1528625D01*
X1951495Y1525925D02*
Y1528725D01*
X1951595Y1525825D02*
Y1528654D01*
X1951695Y1525814D02*
Y1528554D01*
X1951795Y1525914D02*
Y1528454D01*
X1951895Y1526014D02*
Y1528354D01*
X1951995Y1526114D02*
Y1528254D01*
X1952095Y1526214D02*
Y1528154D01*
X1952195Y1526314D02*
Y1528054D01*
X1952295Y1526414D02*
Y1527954D01*
X1952395Y1526514D02*
Y1527854D01*
X1952495Y1526614D02*
Y1527754D01*
X1952595Y1526714D02*
Y1527654D01*
X1952695Y1526814D02*
Y1527554D01*
X1952795Y1526914D02*
Y1527454D01*
X1952895Y1527014D02*
Y1527354D01*
X1952995Y1527114D02*
Y1527254D01*
X1952357Y1529588D02*
X1953913Y1528032D01*
X1955327Y1529447*
X1953772Y1531002*
X1952357Y1529588*
X1953913Y1528032D02*
X1953913D01*
X1953813Y1528132D02*
X1954013D01*
X1953713Y1528232D02*
X1954113D01*
X1953613Y1528332D02*
X1954213D01*
X1953513Y1528432D02*
X1954313D01*
X1953413Y1528532D02*
X1954413D01*
X1953313Y1528632D02*
X1954513D01*
X1953213Y1528732D02*
X1954613D01*
X1953113Y1528832D02*
X1954713D01*
X1953013Y1528932D02*
X1954813D01*
X1952913Y1529032D02*
X1954913D01*
X1952813Y1529132D02*
X1955013D01*
X1952713Y1529232D02*
X1955113D01*
X1952613Y1529332D02*
X1955213D01*
X1952513Y1529432D02*
X1955313D01*
X1952413Y1529532D02*
X1955242D01*
X1952402Y1529632D02*
X1955142D01*
X1952502Y1529732D02*
X1955042D01*
X1952602Y1529832D02*
X1954942D01*
X1952702Y1529932D02*
X1954842D01*
X1952802Y1530032D02*
X1954742D01*
X1952902Y1530132D02*
X1954642D01*
X1953002Y1530232D02*
X1954542D01*
X1953102Y1530332D02*
X1954442D01*
X1953202Y1530432D02*
X1954342D01*
X1953302Y1530532D02*
X1954242D01*
X1953402Y1530632D02*
X1954142D01*
X1953502Y1530732D02*
X1954042D01*
X1953602Y1530832D02*
X1953942D01*
X1953702Y1530932D02*
X1953842D01*
X1952357Y1529588D02*
X1952357D01*
X1952457Y1529488D02*
Y1529688D01*
X1952557Y1529388D02*
Y1529788D01*
X1952657Y1529288D02*
Y1529888D01*
X1952757Y1529188D02*
Y1529988D01*
X1952857Y1529088D02*
Y1530088D01*
X1952957Y1528988D02*
Y1530188D01*
X1953057Y1528888D02*
Y1530288D01*
X1953157Y1528788D02*
Y1530388D01*
X1953257Y1528688D02*
Y1530488D01*
X1953357Y1528588D02*
Y1530588D01*
X1953457Y1528488D02*
Y1530688D01*
X1953557Y1528388D02*
Y1530788D01*
X1953657Y1528288D02*
Y1530888D01*
X1953757Y1528188D02*
Y1530988D01*
X1953857Y1528088D02*
Y1530917D01*
X1953957Y1528077D02*
Y1530817D01*
X1954057Y1528177D02*
Y1530717D01*
X1954157Y1528277D02*
Y1530617D01*
X1954257Y1528377D02*
Y1530517D01*
X1954357Y1528477D02*
Y1530417D01*
X1954457Y1528577D02*
Y1530317D01*
X1954557Y1528677D02*
Y1530217D01*
X1954657Y1528777D02*
Y1530117D01*
X1954757Y1528877D02*
Y1530017D01*
X1954857Y1528977D02*
Y1529917D01*
X1954957Y1529077D02*
Y1529817D01*
X1955057Y1529177D02*
Y1529717D01*
X1955157Y1529277D02*
Y1529617D01*
X1955257Y1529377D02*
Y1529517D01*
X1939550Y1532502D02*
X1937995Y1530947D01*
X1939409Y1529532*
X1940965Y1531088*
X1939550Y1532502*
X1939409Y1529532D02*
X1939409D01*
X1939309Y1529632D02*
X1939509D01*
X1939209Y1529732D02*
X1939609D01*
X1939109Y1529832D02*
X1939709D01*
X1939009Y1529932D02*
X1939809D01*
X1938909Y1530032D02*
X1939909D01*
X1938809Y1530132D02*
X1940009D01*
X1938709Y1530232D02*
X1940109D01*
X1938609Y1530332D02*
X1940209D01*
X1938509Y1530432D02*
X1940309D01*
X1938409Y1530532D02*
X1940409D01*
X1938309Y1530632D02*
X1940509D01*
X1938209Y1530732D02*
X1940609D01*
X1938109Y1530832D02*
X1940709D01*
X1938009Y1530932D02*
X1940809D01*
X1938081Y1531032D02*
X1940909D01*
X1938181Y1531132D02*
X1940920D01*
X1938281Y1531232D02*
X1940820D01*
X1938381Y1531332D02*
X1940720D01*
X1938481Y1531432D02*
X1940620D01*
X1938581Y1531532D02*
X1940520D01*
X1938681Y1531632D02*
X1940420D01*
X1938781Y1531732D02*
X1940320D01*
X1938881Y1531832D02*
X1940220D01*
X1938981Y1531932D02*
X1940120D01*
X1939081Y1532032D02*
X1940020D01*
X1939181Y1532132D02*
X1939920D01*
X1939281Y1532232D02*
X1939820D01*
X1939381Y1532332D02*
X1939720D01*
X1939481Y1532432D02*
X1939620D01*
X1937995Y1530947D02*
X1937995D01*
X1938095Y1530847D02*
Y1531047D01*
X1938195Y1530747D02*
Y1531147D01*
X1938295Y1530647D02*
Y1531247D01*
X1938395Y1530547D02*
Y1531347D01*
X1938495Y1530447D02*
Y1531447D01*
X1938595Y1530347D02*
Y1531547D01*
X1938695Y1530247D02*
Y1531647D01*
X1938795Y1530147D02*
Y1531747D01*
X1938895Y1530047D02*
Y1531847D01*
X1938995Y1529947D02*
Y1531947D01*
X1939095Y1529847D02*
Y1532047D01*
X1939195Y1529747D02*
Y1532147D01*
X1939295Y1529647D02*
Y1532247D01*
X1939395Y1529547D02*
Y1532347D01*
X1939495Y1529618D02*
Y1532447D01*
X1939595Y1529718D02*
Y1532458D01*
X1939695Y1529818D02*
Y1532358D01*
X1939795Y1529918D02*
Y1532258D01*
X1939895Y1530018D02*
Y1532158D01*
X1939995Y1530118D02*
Y1532058D01*
X1940095Y1530218D02*
Y1531958D01*
X1940195Y1530318D02*
Y1531858D01*
X1940295Y1530418D02*
Y1531758D01*
X1940395Y1530518D02*
Y1531658D01*
X1940495Y1530618D02*
Y1531558D01*
X1940595Y1530718D02*
Y1531458D01*
X1940695Y1530818D02*
Y1531358D01*
X1940795Y1530918D02*
Y1531258D01*
X1940895Y1531018D02*
Y1531158D01*
X1941813Y1530240D02*
X1940257Y1528684D01*
X1941672Y1527270*
X1943227Y1528825*
X1941813Y1530240*
X1941672Y1527270D02*
X1941672D01*
X1941572Y1527370D02*
X1941772D01*
X1941472Y1527470D02*
X1941872D01*
X1941372Y1527570D02*
X1941972D01*
X1941272Y1527670D02*
X1942072D01*
X1941172Y1527770D02*
X1942172D01*
X1941072Y1527870D02*
X1942272D01*
X1940972Y1527970D02*
X1942372D01*
X1940872Y1528070D02*
X1942472D01*
X1940772Y1528170D02*
X1942572D01*
X1940672Y1528270D02*
X1942672D01*
X1940572Y1528370D02*
X1942772D01*
X1940472Y1528470D02*
X1942872D01*
X1940372Y1528570D02*
X1942972D01*
X1940272Y1528670D02*
X1943072D01*
X1940343Y1528770D02*
X1943172D01*
X1940443Y1528870D02*
X1943183D01*
X1940543Y1528970D02*
X1943083D01*
X1940643Y1529070D02*
X1942983D01*
X1940743Y1529170D02*
X1942883D01*
X1940843Y1529270D02*
X1942783D01*
X1940943Y1529370D02*
X1942683D01*
X1941043Y1529470D02*
X1942583D01*
X1941143Y1529570D02*
X1942483D01*
X1941243Y1529670D02*
X1942383D01*
X1941343Y1529770D02*
X1942283D01*
X1941443Y1529870D02*
X1942183D01*
X1941543Y1529970D02*
X1942083D01*
X1941643Y1530070D02*
X1941983D01*
X1941743Y1530170D02*
X1941883D01*
X1940257Y1528684D02*
X1940257D01*
X1940357Y1528584D02*
Y1528784D01*
X1940457Y1528484D02*
Y1528884D01*
X1940557Y1528384D02*
Y1528984D01*
X1940657Y1528284D02*
Y1529084D01*
X1940757Y1528184D02*
Y1529184D01*
X1940857Y1528084D02*
Y1529284D01*
X1940957Y1527984D02*
Y1529384D01*
X1941057Y1527884D02*
Y1529484D01*
X1941157Y1527784D02*
Y1529584D01*
X1941257Y1527684D02*
Y1529684D01*
X1941357Y1527584D02*
Y1529784D01*
X1941457Y1527484D02*
Y1529884D01*
X1941557Y1527384D02*
Y1529984D01*
X1941657Y1527284D02*
Y1530084D01*
X1941757Y1527356D02*
Y1530184D01*
X1941857Y1527456D02*
Y1530195D01*
X1941957Y1527556D02*
Y1530095D01*
X1942057Y1527656D02*
Y1529995D01*
X1942157Y1527756D02*
Y1529895D01*
X1942257Y1527856D02*
Y1529795D01*
X1942357Y1527956D02*
Y1529695D01*
X1942457Y1528056D02*
Y1529595D01*
X1942557Y1528156D02*
Y1529495D01*
X1942657Y1528256D02*
Y1529395D01*
X1942757Y1528356D02*
Y1529295D01*
X1942857Y1528456D02*
Y1529195D01*
X1942957Y1528556D02*
Y1529095D01*
X1943057Y1528656D02*
Y1528995D01*
X1943157Y1528756D02*
Y1528895D01*
X1942495Y1493525D02*
X1944050Y1491970D01*
X1945465Y1493384*
X1943909Y1494940*
X1942495Y1493525*
X1944050Y1491970D02*
X1944050D01*
X1943950Y1492070D02*
X1944150D01*
X1943850Y1492170D02*
X1944250D01*
X1943750Y1492270D02*
X1944350D01*
X1943650Y1492370D02*
X1944450D01*
X1943550Y1492470D02*
X1944550D01*
X1943450Y1492570D02*
X1944650D01*
X1943350Y1492670D02*
X1944750D01*
X1943250Y1492770D02*
X1944850D01*
X1943150Y1492870D02*
X1944950D01*
X1943050Y1492970D02*
X1945050D01*
X1942950Y1493070D02*
X1945150D01*
X1942850Y1493170D02*
X1945250D01*
X1942750Y1493270D02*
X1945350D01*
X1942650Y1493370D02*
X1945450D01*
X1942550Y1493470D02*
X1945379D01*
X1942539Y1493570D02*
X1945279D01*
X1942639Y1493670D02*
X1945179D01*
X1942739Y1493770D02*
X1945079D01*
X1942839Y1493870D02*
X1944979D01*
X1942939Y1493970D02*
X1944879D01*
X1943039Y1494070D02*
X1944779D01*
X1943139Y1494170D02*
X1944679D01*
X1943239Y1494270D02*
X1944579D01*
X1943339Y1494370D02*
X1944479D01*
X1943439Y1494470D02*
X1944379D01*
X1943539Y1494570D02*
X1944279D01*
X1943639Y1494670D02*
X1944179D01*
X1943739Y1494770D02*
X1944079D01*
X1943839Y1494870D02*
X1943979D01*
X1942495Y1493525D02*
X1942495D01*
X1942595Y1493425D02*
Y1493625D01*
X1942695Y1493325D02*
Y1493725D01*
X1942795Y1493225D02*
Y1493825D01*
X1942895Y1493125D02*
Y1493925D01*
X1942995Y1493025D02*
Y1494025D01*
X1943095Y1492925D02*
Y1494125D01*
X1943195Y1492825D02*
Y1494225D01*
X1943295Y1492725D02*
Y1494325D01*
X1943395Y1492625D02*
Y1494425D01*
X1943495Y1492525D02*
Y1494525D01*
X1943595Y1492425D02*
Y1494625D01*
X1943695Y1492325D02*
Y1494725D01*
X1943795Y1492225D02*
Y1494825D01*
X1943895Y1492125D02*
Y1494925D01*
X1943995Y1492025D02*
Y1494854D01*
X1944095Y1492014D02*
Y1494754D01*
X1944195Y1492114D02*
Y1494654D01*
X1944295Y1492214D02*
Y1494554D01*
X1944395Y1492314D02*
Y1494454D01*
X1944495Y1492414D02*
Y1494354D01*
X1944595Y1492514D02*
Y1494254D01*
X1944695Y1492614D02*
Y1494154D01*
X1944795Y1492714D02*
Y1494054D01*
X1944895Y1492814D02*
Y1493954D01*
X1944995Y1492914D02*
Y1493854D01*
X1945095Y1493014D02*
Y1493754D01*
X1945195Y1493114D02*
Y1493654D01*
X1945295Y1493214D02*
Y1493554D01*
X1945395Y1493314D02*
Y1493454D01*
X1944757Y1495788D02*
X1946313Y1494232D01*
X1947727Y1495647*
X1946172Y1497202*
X1944757Y1495788*
X1946313Y1494232D02*
X1946313D01*
X1946213Y1494332D02*
X1946413D01*
X1946113Y1494432D02*
X1946513D01*
X1946013Y1494532D02*
X1946613D01*
X1945913Y1494632D02*
X1946713D01*
X1945813Y1494732D02*
X1946813D01*
X1945713Y1494832D02*
X1946913D01*
X1945613Y1494932D02*
X1947013D01*
X1945513Y1495032D02*
X1947113D01*
X1945413Y1495132D02*
X1947213D01*
X1945313Y1495232D02*
X1947313D01*
X1945213Y1495332D02*
X1947413D01*
X1945113Y1495432D02*
X1947513D01*
X1945013Y1495532D02*
X1947613D01*
X1944913Y1495632D02*
X1947713D01*
X1944813Y1495732D02*
X1947642D01*
X1944802Y1495832D02*
X1947542D01*
X1944902Y1495932D02*
X1947442D01*
X1945002Y1496032D02*
X1947342D01*
X1945102Y1496132D02*
X1947242D01*
X1945202Y1496232D02*
X1947142D01*
X1945302Y1496332D02*
X1947042D01*
X1945402Y1496432D02*
X1946942D01*
X1945502Y1496532D02*
X1946842D01*
X1945602Y1496632D02*
X1946742D01*
X1945702Y1496732D02*
X1946642D01*
X1945802Y1496832D02*
X1946542D01*
X1945902Y1496932D02*
X1946442D01*
X1946002Y1497032D02*
X1946342D01*
X1946102Y1497132D02*
X1946242D01*
X1944757Y1495788D02*
X1944757D01*
X1944857Y1495688D02*
Y1495888D01*
X1944957Y1495588D02*
Y1495988D01*
X1945057Y1495488D02*
Y1496088D01*
X1945157Y1495388D02*
Y1496188D01*
X1945257Y1495288D02*
Y1496288D01*
X1945357Y1495188D02*
Y1496388D01*
X1945457Y1495088D02*
Y1496488D01*
X1945557Y1494988D02*
Y1496588D01*
X1945657Y1494888D02*
Y1496688D01*
X1945757Y1494788D02*
Y1496788D01*
X1945857Y1494688D02*
Y1496888D01*
X1945957Y1494588D02*
Y1496988D01*
X1946057Y1494488D02*
Y1497088D01*
X1946157Y1494388D02*
Y1497188D01*
X1946257Y1494288D02*
Y1497117D01*
X1946357Y1494277D02*
Y1497017D01*
X1946457Y1494377D02*
Y1496917D01*
X1946557Y1494477D02*
Y1496817D01*
X1946657Y1494577D02*
Y1496717D01*
X1946757Y1494677D02*
Y1496617D01*
X1946857Y1494777D02*
Y1496517D01*
X1946957Y1494877D02*
Y1496417D01*
X1947057Y1494977D02*
Y1496317D01*
X1947157Y1495077D02*
Y1496217D01*
X1947257Y1495177D02*
Y1496117D01*
X1947357Y1495277D02*
Y1496017D01*
X1947457Y1495377D02*
Y1495917D01*
X1947557Y1495477D02*
Y1495817D01*
X1947657Y1495577D02*
Y1495717D01*
X1956883Y1529871D02*
X1954479Y1527467D01*
X1956034Y1525911*
X1958439Y1528315*
X1956883Y1529871*
X1956034Y1525911D02*
X1956034D01*
X1955934Y1526011D02*
X1956134D01*
X1955834Y1526111D02*
X1956234D01*
X1955734Y1526211D02*
X1956334D01*
X1955634Y1526311D02*
X1956434D01*
X1955534Y1526411D02*
X1956534D01*
X1955434Y1526511D02*
X1956634D01*
X1955334Y1526611D02*
X1956734D01*
X1955234Y1526711D02*
X1956834D01*
X1955134Y1526811D02*
X1956934D01*
X1955034Y1526911D02*
X1957034D01*
X1954934Y1527011D02*
X1957134D01*
X1954834Y1527111D02*
X1957234D01*
X1954734Y1527211D02*
X1957334D01*
X1954634Y1527311D02*
X1957434D01*
X1954534Y1527411D02*
X1957534D01*
X1954523Y1527511D02*
X1957634D01*
X1954623Y1527611D02*
X1957734D01*
X1954723Y1527711D02*
X1957834D01*
X1954823Y1527811D02*
X1957934D01*
X1954923Y1527911D02*
X1958034D01*
X1955023Y1528011D02*
X1958134D01*
X1955123Y1528111D02*
X1958234D01*
X1955223Y1528211D02*
X1958334D01*
X1955323Y1528311D02*
X1958434D01*
X1955423Y1528411D02*
X1958343D01*
X1955523Y1528511D02*
X1958243D01*
X1955623Y1528611D02*
X1958143D01*
X1955723Y1528711D02*
X1958043D01*
X1955823Y1528811D02*
X1957943D01*
X1955923Y1528911D02*
X1957843D01*
X1956023Y1529011D02*
X1957743D01*
X1956123Y1529111D02*
X1957643D01*
X1956223Y1529211D02*
X1957543D01*
X1956323Y1529311D02*
X1957443D01*
X1956423Y1529411D02*
X1957343D01*
X1956523Y1529511D02*
X1957243D01*
X1956623Y1529611D02*
X1957143D01*
X1956723Y1529711D02*
X1957043D01*
X1956823Y1529811D02*
X1956943D01*
X1954479Y1527467D02*
X1954479D01*
X1954579Y1527367D02*
Y1527567D01*
X1954679Y1527267D02*
Y1527667D01*
X1954779Y1527167D02*
Y1527767D01*
X1954879Y1527067D02*
Y1527867D01*
X1954979Y1526967D02*
Y1527967D01*
X1955079Y1526867D02*
Y1528067D01*
X1955179Y1526767D02*
Y1528167D01*
X1955279Y1526667D02*
Y1528267D01*
X1955379Y1526567D02*
Y1528367D01*
X1955479Y1526467D02*
Y1528467D01*
X1955579Y1526367D02*
Y1528567D01*
X1955679Y1526267D02*
Y1528667D01*
X1955779Y1526167D02*
Y1528767D01*
X1955879Y1526067D02*
Y1528867D01*
X1955979Y1525967D02*
Y1528967D01*
X1956079Y1525956D02*
Y1529067D01*
X1956179Y1526056D02*
Y1529167D01*
X1956279Y1526156D02*
Y1529267D01*
X1956379Y1526256D02*
Y1529367D01*
X1956479Y1526356D02*
Y1529467D01*
X1956579Y1526456D02*
Y1529567D01*
X1956679Y1526556D02*
Y1529667D01*
X1956779Y1526656D02*
Y1529767D01*
X1956879Y1526756D02*
Y1529867D01*
X1956979Y1526856D02*
Y1529775D01*
X1957079Y1526956D02*
Y1529675D01*
X1957179Y1527056D02*
Y1529575D01*
X1957279Y1527156D02*
Y1529475D01*
X1957379Y1527256D02*
Y1529375D01*
X1957479Y1527356D02*
Y1529275D01*
X1957579Y1527456D02*
Y1529175D01*
X1957679Y1527556D02*
Y1529075D01*
X1957779Y1527656D02*
Y1528975D01*
X1957879Y1527756D02*
Y1528875D01*
X1957979Y1527856D02*
Y1528775D01*
X1958079Y1527956D02*
Y1528675D01*
X1958179Y1528056D02*
Y1528575D01*
X1958279Y1528156D02*
Y1528475D01*
X1958379Y1528256D02*
Y1528375D01*
X1954868Y1532028D02*
X1952888Y1530048D01*
X1954373Y1528563*
X1956353Y1530543*
X1954868Y1532028*
X1954373Y1528563D02*
X1954373D01*
X1954273Y1528663D02*
X1954473D01*
X1954173Y1528763D02*
X1954573D01*
X1954073Y1528863D02*
X1954673D01*
X1953973Y1528963D02*
X1954773D01*
X1953873Y1529063D02*
X1954873D01*
X1953773Y1529163D02*
X1954973D01*
X1953673Y1529263D02*
X1955073D01*
X1953573Y1529363D02*
X1955173D01*
X1953473Y1529463D02*
X1955273D01*
X1953373Y1529563D02*
X1955373D01*
X1953273Y1529663D02*
X1955473D01*
X1953173Y1529763D02*
X1955573D01*
X1953073Y1529863D02*
X1955673D01*
X1952973Y1529963D02*
X1955773D01*
X1952903Y1530063D02*
X1955873D01*
X1953003Y1530163D02*
X1955973D01*
X1953103Y1530263D02*
X1956073D01*
X1953203Y1530363D02*
X1956173D01*
X1953303Y1530463D02*
X1956273D01*
X1953403Y1530563D02*
X1956333D01*
X1953503Y1530663D02*
X1956233D01*
X1953603Y1530763D02*
X1956133D01*
X1953703Y1530863D02*
X1956033D01*
X1953803Y1530963D02*
X1955933D01*
X1953903Y1531063D02*
X1955833D01*
X1954003Y1531163D02*
X1955733D01*
X1954103Y1531263D02*
X1955633D01*
X1954203Y1531363D02*
X1955533D01*
X1954303Y1531463D02*
X1955433D01*
X1954403Y1531563D02*
X1955333D01*
X1954503Y1531663D02*
X1955233D01*
X1954603Y1531763D02*
X1955133D01*
X1954703Y1531863D02*
X1955033D01*
X1954803Y1531963D02*
X1954933D01*
X1952888Y1530048D02*
X1952888D01*
X1952988Y1529948D02*
Y1530148D01*
X1953088Y1529848D02*
Y1530248D01*
X1953188Y1529748D02*
Y1530348D01*
X1953288Y1529648D02*
Y1530448D01*
X1953388Y1529548D02*
Y1530548D01*
X1953488Y1529448D02*
Y1530648D01*
X1953588Y1529348D02*
Y1530748D01*
X1953688Y1529248D02*
Y1530848D01*
X1953788Y1529148D02*
Y1530948D01*
X1953888Y1529048D02*
Y1531048D01*
X1953988Y1528948D02*
Y1531148D01*
X1954088Y1528848D02*
Y1531248D01*
X1954188Y1528748D02*
Y1531348D01*
X1954288Y1528648D02*
Y1531448D01*
X1954388Y1528578D02*
Y1531548D01*
X1954488Y1528678D02*
Y1531648D01*
X1954588Y1528778D02*
Y1531748D01*
X1954688Y1528878D02*
Y1531848D01*
X1954788Y1528978D02*
Y1531948D01*
X1954888Y1529078D02*
Y1532008D01*
X1954988Y1529178D02*
Y1531908D01*
X1955088Y1529278D02*
Y1531808D01*
X1955188Y1529378D02*
Y1531708D01*
X1955288Y1529478D02*
Y1531608D01*
X1955388Y1529578D02*
Y1531508D01*
X1955488Y1529678D02*
Y1531408D01*
X1955588Y1529778D02*
Y1531308D01*
X1955688Y1529878D02*
Y1531208D01*
X1955788Y1529978D02*
Y1531108D01*
X1955888Y1530078D02*
Y1531008D01*
X1955988Y1530178D02*
Y1530908D01*
X1956088Y1530278D02*
Y1530808D01*
X1956188Y1530378D02*
Y1530708D01*
X1956288Y1530478D02*
Y1530608D01*
X1952640Y1534114D02*
X1950236Y1531709D01*
X1951792Y1530154*
X1954196Y1532558*
X1952640Y1534114*
X1951792Y1530154D02*
X1951792D01*
X1951692Y1530254D02*
X1951892D01*
X1951592Y1530354D02*
X1951992D01*
X1951492Y1530454D02*
X1952092D01*
X1951392Y1530554D02*
X1952192D01*
X1951292Y1530654D02*
X1952292D01*
X1951192Y1530754D02*
X1952392D01*
X1951092Y1530854D02*
X1952492D01*
X1950992Y1530954D02*
X1952592D01*
X1950892Y1531054D02*
X1952692D01*
X1950792Y1531154D02*
X1952792D01*
X1950692Y1531254D02*
X1952892D01*
X1950592Y1531354D02*
X1952992D01*
X1950492Y1531454D02*
X1953092D01*
X1950392Y1531554D02*
X1953192D01*
X1950292Y1531654D02*
X1953292D01*
X1950281Y1531754D02*
X1953392D01*
X1950381Y1531854D02*
X1953492D01*
X1950481Y1531954D02*
X1953592D01*
X1950581Y1532054D02*
X1953692D01*
X1950681Y1532154D02*
X1953792D01*
X1950781Y1532254D02*
X1953892D01*
X1950881Y1532354D02*
X1953992D01*
X1950981Y1532454D02*
X1954092D01*
X1951081Y1532554D02*
X1954192D01*
X1951181Y1532654D02*
X1954100D01*
X1951281Y1532754D02*
X1954000D01*
X1951381Y1532854D02*
X1953900D01*
X1951481Y1532954D02*
X1953800D01*
X1951581Y1533054D02*
X1953700D01*
X1951681Y1533154D02*
X1953600D01*
X1951781Y1533254D02*
X1953500D01*
X1951881Y1533354D02*
X1953400D01*
X1951981Y1533454D02*
X1953300D01*
X1952081Y1533554D02*
X1953200D01*
X1952181Y1533654D02*
X1953100D01*
X1952281Y1533754D02*
X1953000D01*
X1952381Y1533854D02*
X1952900D01*
X1952481Y1533954D02*
X1952800D01*
X1952581Y1534054D02*
X1952700D01*
X1950236Y1531709D02*
X1950236D01*
X1950336Y1531609D02*
Y1531809D01*
X1950436Y1531509D02*
Y1531909D01*
X1950536Y1531409D02*
Y1532009D01*
X1950636Y1531309D02*
Y1532109D01*
X1950736Y1531209D02*
Y1532209D01*
X1950836Y1531109D02*
Y1532309D01*
X1950936Y1531009D02*
Y1532409D01*
X1951036Y1530909D02*
Y1532509D01*
X1951136Y1530809D02*
Y1532609D01*
X1951236Y1530709D02*
Y1532709D01*
X1951336Y1530609D02*
Y1532809D01*
X1951436Y1530509D02*
Y1532909D01*
X1951536Y1530409D02*
Y1533009D01*
X1951636Y1530309D02*
Y1533109D01*
X1951736Y1530209D02*
Y1533209D01*
X1951836Y1530198D02*
Y1533309D01*
X1951936Y1530298D02*
Y1533409D01*
X1952036Y1530398D02*
Y1533509D01*
X1952136Y1530498D02*
Y1533609D01*
X1952236Y1530598D02*
Y1533709D01*
X1952336Y1530698D02*
Y1533809D01*
X1952436Y1530798D02*
Y1533909D01*
X1952536Y1530898D02*
Y1534009D01*
X1952636Y1530998D02*
Y1534109D01*
X1952736Y1531098D02*
Y1534018D01*
X1952836Y1531198D02*
Y1533918D01*
X1952936Y1531298D02*
Y1533818D01*
X1953036Y1531398D02*
Y1533718D01*
X1953136Y1531498D02*
Y1533618D01*
X1953236Y1531598D02*
Y1533518D01*
X1953336Y1531698D02*
Y1533418D01*
X1953436Y1531798D02*
Y1533318D01*
X1953536Y1531898D02*
Y1533218D01*
X1953636Y1531998D02*
Y1533118D01*
X1953736Y1532098D02*
Y1533018D01*
X1953836Y1532198D02*
Y1532918D01*
X1953936Y1532298D02*
Y1532818D01*
X1954036Y1532398D02*
Y1532718D01*
X1954136Y1532498D02*
Y1532618D01*
X1949388Y1530861D02*
X1946983Y1528457D01*
X1948539Y1526901*
X1950943Y1529305*
X1949388Y1530861*
X1948539Y1526901D02*
X1948539D01*
X1948439Y1527001D02*
X1948639D01*
X1948339Y1527101D02*
X1948739D01*
X1948239Y1527201D02*
X1948839D01*
X1948139Y1527301D02*
X1948939D01*
X1948039Y1527401D02*
X1949039D01*
X1947939Y1527501D02*
X1949139D01*
X1947839Y1527601D02*
X1949239D01*
X1947739Y1527701D02*
X1949339D01*
X1947639Y1527801D02*
X1949439D01*
X1947539Y1527901D02*
X1949539D01*
X1947439Y1528001D02*
X1949639D01*
X1947339Y1528101D02*
X1949739D01*
X1947239Y1528201D02*
X1949839D01*
X1947139Y1528301D02*
X1949939D01*
X1947039Y1528401D02*
X1950039D01*
X1947028Y1528501D02*
X1950139D01*
X1947128Y1528601D02*
X1950239D01*
X1947228Y1528701D02*
X1950339D01*
X1947328Y1528801D02*
X1950439D01*
X1947428Y1528901D02*
X1950539D01*
X1947528Y1529001D02*
X1950639D01*
X1947628Y1529101D02*
X1950739D01*
X1947728Y1529201D02*
X1950839D01*
X1947828Y1529301D02*
X1950939D01*
X1947928Y1529401D02*
X1950847D01*
X1948028Y1529501D02*
X1950747D01*
X1948128Y1529601D02*
X1950647D01*
X1948228Y1529701D02*
X1950547D01*
X1948328Y1529801D02*
X1950447D01*
X1948428Y1529901D02*
X1950347D01*
X1948528Y1530001D02*
X1950247D01*
X1948628Y1530101D02*
X1950147D01*
X1948728Y1530201D02*
X1950047D01*
X1948828Y1530301D02*
X1949947D01*
X1948928Y1530401D02*
X1949847D01*
X1949028Y1530501D02*
X1949747D01*
X1949128Y1530601D02*
X1949647D01*
X1949228Y1530701D02*
X1949547D01*
X1949328Y1530801D02*
X1949447D01*
X1946983Y1528457D02*
X1946983D01*
X1947083Y1528357D02*
Y1528557D01*
X1947183Y1528257D02*
Y1528657D01*
X1947283Y1528157D02*
Y1528757D01*
X1947383Y1528057D02*
Y1528857D01*
X1947483Y1527957D02*
Y1528957D01*
X1947583Y1527857D02*
Y1529057D01*
X1947683Y1527757D02*
Y1529157D01*
X1947783Y1527657D02*
Y1529257D01*
X1947883Y1527557D02*
Y1529357D01*
X1947983Y1527457D02*
Y1529457D01*
X1948083Y1527357D02*
Y1529557D01*
X1948183Y1527257D02*
Y1529657D01*
X1948283Y1527157D02*
Y1529757D01*
X1948383Y1527057D02*
Y1529857D01*
X1948483Y1526957D02*
Y1529957D01*
X1948583Y1526945D02*
Y1530057D01*
X1948683Y1527045D02*
Y1530157D01*
X1948783Y1527145D02*
Y1530257D01*
X1948883Y1527245D02*
Y1530357D01*
X1948983Y1527345D02*
Y1530457D01*
X1949083Y1527445D02*
Y1530557D01*
X1949183Y1527545D02*
Y1530657D01*
X1949283Y1527645D02*
Y1530757D01*
X1949383Y1527745D02*
Y1530857D01*
X1949483Y1527845D02*
Y1530765D01*
X1949583Y1527945D02*
Y1530665D01*
X1949683Y1528045D02*
Y1530565D01*
X1949783Y1528145D02*
Y1530465D01*
X1949883Y1528245D02*
Y1530365D01*
X1949983Y1528345D02*
Y1530265D01*
X1950083Y1528445D02*
Y1530165D01*
X1950183Y1528545D02*
Y1530065D01*
X1950283Y1528645D02*
Y1529965D01*
X1950383Y1528745D02*
Y1529865D01*
X1950483Y1528845D02*
Y1529765D01*
X1950583Y1528945D02*
Y1529665D01*
X1950683Y1529045D02*
Y1529565D01*
X1950783Y1529145D02*
Y1529465D01*
X1950883Y1529245D02*
Y1529365D01*
X1951049Y1528209D02*
X1949069Y1526229D01*
X1950554Y1524744*
X1952534Y1526724*
X1951049Y1528209*
X1950554Y1524744D02*
X1950554D01*
X1950454Y1524844D02*
X1950654D01*
X1950354Y1524944D02*
X1950754D01*
X1950254Y1525044D02*
X1950854D01*
X1950154Y1525144D02*
X1950954D01*
X1950054Y1525244D02*
X1951054D01*
X1949954Y1525344D02*
X1951154D01*
X1949854Y1525444D02*
X1951254D01*
X1949754Y1525544D02*
X1951354D01*
X1949654Y1525644D02*
X1951454D01*
X1949554Y1525744D02*
X1951554D01*
X1949454Y1525844D02*
X1951654D01*
X1949354Y1525944D02*
X1951754D01*
X1949254Y1526044D02*
X1951854D01*
X1949154Y1526144D02*
X1951954D01*
X1949085Y1526244D02*
X1952054D01*
X1949185Y1526344D02*
X1952154D01*
X1949285Y1526444D02*
X1952254D01*
X1949385Y1526544D02*
X1952354D01*
X1949485Y1526644D02*
X1952454D01*
X1949585Y1526744D02*
X1952514D01*
X1949685Y1526844D02*
X1952414D01*
X1949785Y1526944D02*
X1952314D01*
X1949885Y1527044D02*
X1952214D01*
X1949985Y1527144D02*
X1952114D01*
X1950085Y1527244D02*
X1952014D01*
X1950185Y1527344D02*
X1951914D01*
X1950285Y1527444D02*
X1951814D01*
X1950385Y1527544D02*
X1951714D01*
X1950485Y1527644D02*
X1951614D01*
X1950585Y1527744D02*
X1951514D01*
X1950685Y1527844D02*
X1951414D01*
X1950785Y1527944D02*
X1951314D01*
X1950885Y1528044D02*
X1951214D01*
X1950985Y1528144D02*
X1951114D01*
X1949069Y1526229D02*
X1949069D01*
X1949169Y1526129D02*
Y1526329D01*
X1949269Y1526029D02*
Y1526429D01*
X1949369Y1525929D02*
Y1526529D01*
X1949469Y1525829D02*
Y1526629D01*
X1949569Y1525729D02*
Y1526729D01*
X1949669Y1525629D02*
Y1526829D01*
X1949769Y1525529D02*
Y1526929D01*
X1949869Y1525429D02*
Y1527029D01*
X1949969Y1525329D02*
Y1527129D01*
X1950069Y1525229D02*
Y1527229D01*
X1950169Y1525129D02*
Y1527329D01*
X1950269Y1525029D02*
Y1527429D01*
X1950369Y1524929D02*
Y1527529D01*
X1950469Y1524829D02*
Y1527629D01*
X1950569Y1524760D02*
Y1527729D01*
X1950669Y1524860D02*
Y1527829D01*
X1950769Y1524960D02*
Y1527929D01*
X1950869Y1525060D02*
Y1528029D01*
X1950969Y1525160D02*
Y1528129D01*
X1951069Y1525260D02*
Y1528189D01*
X1951169Y1525360D02*
Y1528089D01*
X1951269Y1525460D02*
Y1527989D01*
X1951369Y1525560D02*
Y1527889D01*
X1951469Y1525660D02*
Y1527789D01*
X1951569Y1525760D02*
Y1527689D01*
X1951669Y1525860D02*
Y1527589D01*
X1951769Y1525960D02*
Y1527489D01*
X1951869Y1526060D02*
Y1527389D01*
X1951969Y1526160D02*
Y1527289D01*
X1952069Y1526260D02*
Y1527189D01*
X1952169Y1526360D02*
Y1527089D01*
X1952269Y1526460D02*
Y1526989D01*
X1952369Y1526560D02*
Y1526889D01*
X1952469Y1526660D02*
Y1526789D01*
X1953630Y1526618D02*
X1951226Y1524214D01*
X1952782Y1522658*
X1955186Y1525063*
X1953630Y1526618*
X1952782Y1522658D02*
X1952782D01*
X1952682Y1522758D02*
X1952882D01*
X1952582Y1522858D02*
X1952982D01*
X1952482Y1522958D02*
X1953082D01*
X1952382Y1523058D02*
X1953182D01*
X1952282Y1523158D02*
X1953282D01*
X1952182Y1523258D02*
X1953382D01*
X1952082Y1523358D02*
X1953482D01*
X1951982Y1523458D02*
X1953582D01*
X1951882Y1523558D02*
X1953682D01*
X1951782Y1523658D02*
X1953782D01*
X1951682Y1523758D02*
X1953882D01*
X1951582Y1523858D02*
X1953982D01*
X1951482Y1523958D02*
X1954082D01*
X1951382Y1524058D02*
X1954182D01*
X1951282Y1524158D02*
X1954282D01*
X1951270Y1524258D02*
X1954382D01*
X1951370Y1524358D02*
X1954482D01*
X1951470Y1524458D02*
X1954582D01*
X1951570Y1524558D02*
X1954682D01*
X1951670Y1524658D02*
X1954782D01*
X1951770Y1524758D02*
X1954882D01*
X1951870Y1524858D02*
X1954982D01*
X1951970Y1524958D02*
X1955082D01*
X1952070Y1525058D02*
X1955182D01*
X1952170Y1525158D02*
X1955090D01*
X1952270Y1525258D02*
X1954990D01*
X1952370Y1525358D02*
X1954890D01*
X1952470Y1525458D02*
X1954790D01*
X1952570Y1525558D02*
X1954690D01*
X1952670Y1525658D02*
X1954590D01*
X1952770Y1525758D02*
X1954490D01*
X1952870Y1525858D02*
X1954390D01*
X1952970Y1525958D02*
X1954290D01*
X1953070Y1526058D02*
X1954190D01*
X1953170Y1526158D02*
X1954090D01*
X1953270Y1526258D02*
X1953990D01*
X1953370Y1526358D02*
X1953890D01*
X1953470Y1526458D02*
X1953790D01*
X1953570Y1526558D02*
X1953690D01*
X1951226Y1524214D02*
X1951226D01*
X1951326Y1524114D02*
Y1524314D01*
X1951426Y1524014D02*
Y1524414D01*
X1951526Y1523914D02*
Y1524514D01*
X1951626Y1523814D02*
Y1524614D01*
X1951726Y1523714D02*
Y1524714D01*
X1951826Y1523614D02*
Y1524814D01*
X1951926Y1523514D02*
Y1524914D01*
X1952026Y1523414D02*
Y1525014D01*
X1952126Y1523314D02*
Y1525114D01*
X1952226Y1523214D02*
Y1525214D01*
X1952326Y1523114D02*
Y1525314D01*
X1952426Y1523014D02*
Y1525414D01*
X1952526Y1522914D02*
Y1525514D01*
X1952626Y1522814D02*
Y1525614D01*
X1952726Y1522714D02*
Y1525714D01*
X1952826Y1522703D02*
Y1525814D01*
X1952926Y1522803D02*
Y1525914D01*
X1953026Y1522903D02*
Y1526014D01*
X1953126Y1523003D02*
Y1526114D01*
X1953226Y1523103D02*
Y1526214D01*
X1953326Y1523203D02*
Y1526314D01*
X1953426Y1523303D02*
Y1526414D01*
X1953526Y1523403D02*
Y1526514D01*
X1953626Y1523503D02*
Y1526614D01*
X1953726Y1523603D02*
Y1526522D01*
X1953826Y1523703D02*
Y1526422D01*
X1953926Y1523803D02*
Y1526322D01*
X1954026Y1523903D02*
Y1526222D01*
X1954126Y1524003D02*
Y1526122D01*
X1954226Y1524103D02*
Y1526022D01*
X1954326Y1524203D02*
Y1525922D01*
X1954426Y1524303D02*
Y1525822D01*
X1954526Y1524403D02*
Y1525722D01*
X1954626Y1524503D02*
Y1525622D01*
X1954726Y1524603D02*
Y1525522D01*
X1954826Y1524703D02*
Y1525422D01*
X1954926Y1524803D02*
Y1525322D01*
X1955026Y1524903D02*
Y1525222D01*
X1955126Y1525003D02*
Y1525122D01*
X1949283Y1496071D02*
X1946879Y1493667D01*
X1948434Y1492111*
X1950839Y1494515*
X1949283Y1496071*
X1948434Y1492111D02*
X1948434D01*
X1948334Y1492211D02*
X1948534D01*
X1948234Y1492311D02*
X1948634D01*
X1948134Y1492411D02*
X1948734D01*
X1948034Y1492511D02*
X1948834D01*
X1947934Y1492611D02*
X1948934D01*
X1947834Y1492711D02*
X1949034D01*
X1947734Y1492811D02*
X1949134D01*
X1947634Y1492911D02*
X1949234D01*
X1947534Y1493011D02*
X1949334D01*
X1947434Y1493111D02*
X1949434D01*
X1947334Y1493211D02*
X1949534D01*
X1947234Y1493311D02*
X1949634D01*
X1947134Y1493411D02*
X1949734D01*
X1947034Y1493511D02*
X1949834D01*
X1946934Y1493611D02*
X1949934D01*
X1946923Y1493711D02*
X1950034D01*
X1947023Y1493811D02*
X1950134D01*
X1947123Y1493911D02*
X1950234D01*
X1947223Y1494011D02*
X1950334D01*
X1947323Y1494111D02*
X1950434D01*
X1947423Y1494211D02*
X1950534D01*
X1947523Y1494311D02*
X1950634D01*
X1947623Y1494411D02*
X1950734D01*
X1947723Y1494511D02*
X1950834D01*
X1947823Y1494611D02*
X1950743D01*
X1947923Y1494711D02*
X1950643D01*
X1948023Y1494811D02*
X1950543D01*
X1948123Y1494911D02*
X1950443D01*
X1948223Y1495011D02*
X1950343D01*
X1948323Y1495111D02*
X1950243D01*
X1948423Y1495211D02*
X1950143D01*
X1948523Y1495311D02*
X1950043D01*
X1948623Y1495411D02*
X1949943D01*
X1948723Y1495511D02*
X1949843D01*
X1948823Y1495611D02*
X1949743D01*
X1948923Y1495711D02*
X1949643D01*
X1949023Y1495811D02*
X1949543D01*
X1949123Y1495911D02*
X1949443D01*
X1949223Y1496011D02*
X1949343D01*
X1946879Y1493667D02*
X1946879D01*
X1946979Y1493567D02*
Y1493767D01*
X1947079Y1493467D02*
Y1493867D01*
X1947179Y1493367D02*
Y1493967D01*
X1947279Y1493267D02*
Y1494067D01*
X1947379Y1493167D02*
Y1494167D01*
X1947479Y1493067D02*
Y1494267D01*
X1947579Y1492967D02*
Y1494367D01*
X1947679Y1492867D02*
Y1494467D01*
X1947779Y1492767D02*
Y1494567D01*
X1947879Y1492667D02*
Y1494667D01*
X1947979Y1492567D02*
Y1494767D01*
X1948079Y1492467D02*
Y1494867D01*
X1948179Y1492367D02*
Y1494967D01*
X1948279Y1492267D02*
Y1495067D01*
X1948379Y1492167D02*
Y1495167D01*
X1948479Y1492156D02*
Y1495267D01*
X1948579Y1492256D02*
Y1495367D01*
X1948679Y1492356D02*
Y1495467D01*
X1948779Y1492456D02*
Y1495567D01*
X1948879Y1492556D02*
Y1495667D01*
X1948979Y1492656D02*
Y1495767D01*
X1949079Y1492756D02*
Y1495867D01*
X1949179Y1492856D02*
Y1495967D01*
X1949279Y1492956D02*
Y1496067D01*
X1949379Y1493056D02*
Y1495975D01*
X1949479Y1493156D02*
Y1495875D01*
X1949579Y1493256D02*
Y1495775D01*
X1949679Y1493356D02*
Y1495675D01*
X1949779Y1493456D02*
Y1495575D01*
X1949879Y1493556D02*
Y1495475D01*
X1949979Y1493656D02*
Y1495375D01*
X1950079Y1493756D02*
Y1495275D01*
X1950179Y1493856D02*
Y1495175D01*
X1950279Y1493956D02*
Y1495075D01*
X1950379Y1494056D02*
Y1494975D01*
X1950479Y1494156D02*
Y1494875D01*
X1950579Y1494256D02*
Y1494775D01*
X1950679Y1494356D02*
Y1494675D01*
X1950779Y1494456D02*
Y1494575D01*
X1947268Y1498228D02*
X1945288Y1496248D01*
X1946773Y1494763*
X1948753Y1496743*
X1947268Y1498228*
X1946773Y1494763D02*
X1946773D01*
X1946673Y1494863D02*
X1946873D01*
X1946573Y1494963D02*
X1946973D01*
X1946473Y1495063D02*
X1947073D01*
X1946373Y1495163D02*
X1947173D01*
X1946273Y1495263D02*
X1947273D01*
X1946173Y1495363D02*
X1947373D01*
X1946073Y1495463D02*
X1947473D01*
X1945973Y1495563D02*
X1947573D01*
X1945873Y1495663D02*
X1947673D01*
X1945773Y1495763D02*
X1947773D01*
X1945673Y1495863D02*
X1947873D01*
X1945573Y1495963D02*
X1947973D01*
X1945473Y1496063D02*
X1948073D01*
X1945373Y1496163D02*
X1948173D01*
X1945303Y1496263D02*
X1948273D01*
X1945403Y1496363D02*
X1948373D01*
X1945503Y1496463D02*
X1948473D01*
X1945603Y1496563D02*
X1948573D01*
X1945703Y1496663D02*
X1948673D01*
X1945803Y1496763D02*
X1948733D01*
X1945903Y1496863D02*
X1948633D01*
X1946003Y1496963D02*
X1948533D01*
X1946103Y1497063D02*
X1948433D01*
X1946203Y1497163D02*
X1948333D01*
X1946303Y1497263D02*
X1948233D01*
X1946403Y1497363D02*
X1948133D01*
X1946503Y1497463D02*
X1948033D01*
X1946603Y1497563D02*
X1947933D01*
X1946703Y1497663D02*
X1947833D01*
X1946803Y1497763D02*
X1947733D01*
X1946903Y1497863D02*
X1947633D01*
X1947003Y1497963D02*
X1947533D01*
X1947103Y1498063D02*
X1947433D01*
X1947203Y1498163D02*
X1947333D01*
X1945288Y1496248D02*
X1945288D01*
X1945388Y1496148D02*
Y1496348D01*
X1945488Y1496048D02*
Y1496448D01*
X1945588Y1495948D02*
Y1496548D01*
X1945688Y1495848D02*
Y1496648D01*
X1945788Y1495748D02*
Y1496748D01*
X1945888Y1495648D02*
Y1496848D01*
X1945988Y1495548D02*
Y1496948D01*
X1946088Y1495448D02*
Y1497048D01*
X1946188Y1495348D02*
Y1497148D01*
X1946288Y1495248D02*
Y1497248D01*
X1946388Y1495148D02*
Y1497348D01*
X1946488Y1495048D02*
Y1497448D01*
X1946588Y1494948D02*
Y1497548D01*
X1946688Y1494848D02*
Y1497648D01*
X1946788Y1494778D02*
Y1497748D01*
X1946888Y1494878D02*
Y1497848D01*
X1946988Y1494978D02*
Y1497948D01*
X1947088Y1495078D02*
Y1498048D01*
X1947188Y1495178D02*
Y1498148D01*
X1947288Y1495278D02*
Y1498208D01*
X1947388Y1495378D02*
Y1498108D01*
X1947488Y1495478D02*
Y1498008D01*
X1947588Y1495578D02*
Y1497908D01*
X1947688Y1495678D02*
Y1497808D01*
X1947788Y1495778D02*
Y1497708D01*
X1947888Y1495878D02*
Y1497608D01*
X1947988Y1495978D02*
Y1497508D01*
X1948088Y1496078D02*
Y1497408D01*
X1948188Y1496178D02*
Y1497308D01*
X1948288Y1496278D02*
Y1497208D01*
X1948388Y1496378D02*
Y1497108D01*
X1948488Y1496478D02*
Y1497008D01*
X1948588Y1496578D02*
Y1496908D01*
X1948688Y1496678D02*
Y1496808D01*
X1945040Y1500314D02*
X1942636Y1497909D01*
X1944192Y1496354*
X1946596Y1498758*
X1945040Y1500314*
X1944192Y1496354D02*
X1944192D01*
X1944092Y1496454D02*
X1944292D01*
X1943992Y1496554D02*
X1944392D01*
X1943892Y1496654D02*
X1944492D01*
X1943792Y1496754D02*
X1944592D01*
X1943692Y1496854D02*
X1944692D01*
X1943592Y1496954D02*
X1944792D01*
X1943492Y1497054D02*
X1944892D01*
X1943392Y1497154D02*
X1944992D01*
X1943292Y1497254D02*
X1945092D01*
X1943192Y1497354D02*
X1945192D01*
X1943092Y1497454D02*
X1945292D01*
X1942992Y1497554D02*
X1945392D01*
X1942892Y1497654D02*
X1945492D01*
X1942792Y1497754D02*
X1945592D01*
X1942692Y1497854D02*
X1945692D01*
X1942681Y1497954D02*
X1945792D01*
X1942781Y1498054D02*
X1945892D01*
X1942881Y1498154D02*
X1945992D01*
X1942981Y1498254D02*
X1946092D01*
X1943081Y1498354D02*
X1946192D01*
X1943181Y1498454D02*
X1946292D01*
X1943281Y1498554D02*
X1946392D01*
X1943381Y1498654D02*
X1946492D01*
X1943481Y1498754D02*
X1946592D01*
X1943581Y1498854D02*
X1946500D01*
X1943681Y1498954D02*
X1946400D01*
X1943781Y1499054D02*
X1946300D01*
X1943881Y1499154D02*
X1946200D01*
X1943981Y1499254D02*
X1946100D01*
X1944081Y1499354D02*
X1946000D01*
X1944181Y1499454D02*
X1945900D01*
X1944281Y1499554D02*
X1945800D01*
X1944381Y1499654D02*
X1945700D01*
X1944481Y1499754D02*
X1945600D01*
X1944581Y1499854D02*
X1945500D01*
X1944681Y1499954D02*
X1945400D01*
X1944781Y1500054D02*
X1945300D01*
X1944881Y1500154D02*
X1945200D01*
X1944981Y1500254D02*
X1945100D01*
X1942636Y1497909D02*
X1942636D01*
X1942736Y1497809D02*
Y1498009D01*
X1942836Y1497709D02*
Y1498109D01*
X1942936Y1497609D02*
Y1498209D01*
X1943036Y1497509D02*
Y1498309D01*
X1943136Y1497409D02*
Y1498409D01*
X1943236Y1497309D02*
Y1498509D01*
X1943336Y1497209D02*
Y1498609D01*
X1943436Y1497109D02*
Y1498709D01*
X1943536Y1497009D02*
Y1498809D01*
X1943636Y1496909D02*
Y1498909D01*
X1943736Y1496809D02*
Y1499009D01*
X1943836Y1496709D02*
Y1499109D01*
X1943936Y1496609D02*
Y1499209D01*
X1944036Y1496509D02*
Y1499309D01*
X1944136Y1496409D02*
Y1499409D01*
X1944236Y1496398D02*
Y1499509D01*
X1944336Y1496498D02*
Y1499609D01*
X1944436Y1496598D02*
Y1499709D01*
X1944536Y1496698D02*
Y1499809D01*
X1944636Y1496798D02*
Y1499909D01*
X1944736Y1496898D02*
Y1500009D01*
X1944836Y1496998D02*
Y1500109D01*
X1944936Y1497098D02*
Y1500209D01*
X1945036Y1497198D02*
Y1500309D01*
X1945136Y1497298D02*
Y1500218D01*
X1945236Y1497398D02*
Y1500118D01*
X1945336Y1497498D02*
Y1500018D01*
X1945436Y1497598D02*
Y1499918D01*
X1945536Y1497698D02*
Y1499818D01*
X1945636Y1497798D02*
Y1499718D01*
X1945736Y1497898D02*
Y1499618D01*
X1945836Y1497998D02*
Y1499518D01*
X1945936Y1498098D02*
Y1499418D01*
X1946036Y1498198D02*
Y1499318D01*
X1946136Y1498298D02*
Y1499218D01*
X1946236Y1498398D02*
Y1499118D01*
X1946336Y1498498D02*
Y1499018D01*
X1946436Y1498598D02*
Y1498918D01*
X1946536Y1498698D02*
Y1498818D01*
X1941788Y1497061D02*
X1939383Y1494657D01*
X1940939Y1493101*
X1943343Y1495505*
X1941788Y1497061*
X1940939Y1493101D02*
X1940939D01*
X1940839Y1493201D02*
X1941039D01*
X1940739Y1493301D02*
X1941139D01*
X1940639Y1493401D02*
X1941239D01*
X1940539Y1493501D02*
X1941339D01*
X1940439Y1493601D02*
X1941439D01*
X1940339Y1493701D02*
X1941539D01*
X1940239Y1493801D02*
X1941639D01*
X1940139Y1493901D02*
X1941739D01*
X1940039Y1494001D02*
X1941839D01*
X1939939Y1494101D02*
X1941939D01*
X1939839Y1494201D02*
X1942039D01*
X1939739Y1494301D02*
X1942139D01*
X1939639Y1494401D02*
X1942239D01*
X1939539Y1494501D02*
X1942339D01*
X1939439Y1494601D02*
X1942439D01*
X1939428Y1494701D02*
X1942539D01*
X1939528Y1494801D02*
X1942639D01*
X1939628Y1494901D02*
X1942739D01*
X1939728Y1495001D02*
X1942839D01*
X1939828Y1495101D02*
X1942939D01*
X1939928Y1495201D02*
X1943039D01*
X1940028Y1495301D02*
X1943139D01*
X1940128Y1495401D02*
X1943239D01*
X1940228Y1495501D02*
X1943339D01*
X1940328Y1495601D02*
X1943247D01*
X1940428Y1495701D02*
X1943147D01*
X1940528Y1495801D02*
X1943047D01*
X1940628Y1495901D02*
X1942947D01*
X1940728Y1496001D02*
X1942847D01*
X1940828Y1496101D02*
X1942747D01*
X1940928Y1496201D02*
X1942647D01*
X1941028Y1496301D02*
X1942547D01*
X1941128Y1496401D02*
X1942447D01*
X1941228Y1496501D02*
X1942347D01*
X1941328Y1496601D02*
X1942247D01*
X1941428Y1496701D02*
X1942147D01*
X1941528Y1496801D02*
X1942047D01*
X1941628Y1496901D02*
X1941947D01*
X1941728Y1497001D02*
X1941847D01*
X1939383Y1494657D02*
X1939383D01*
X1939483Y1494557D02*
Y1494757D01*
X1939583Y1494457D02*
Y1494857D01*
X1939683Y1494357D02*
Y1494957D01*
X1939783Y1494257D02*
Y1495057D01*
X1939883Y1494157D02*
Y1495157D01*
X1939983Y1494057D02*
Y1495257D01*
X1940083Y1493957D02*
Y1495357D01*
X1940183Y1493857D02*
Y1495457D01*
X1940283Y1493757D02*
Y1495557D01*
X1940383Y1493657D02*
Y1495657D01*
X1940483Y1493557D02*
Y1495757D01*
X1940583Y1493457D02*
Y1495857D01*
X1940683Y1493357D02*
Y1495957D01*
X1940783Y1493257D02*
Y1496057D01*
X1940883Y1493157D02*
Y1496157D01*
X1940983Y1493145D02*
Y1496257D01*
X1941083Y1493245D02*
Y1496357D01*
X1941183Y1493345D02*
Y1496457D01*
X1941283Y1493445D02*
Y1496557D01*
X1941383Y1493545D02*
Y1496657D01*
X1941483Y1493645D02*
Y1496757D01*
X1941583Y1493745D02*
Y1496857D01*
X1941683Y1493845D02*
Y1496957D01*
X1941783Y1493945D02*
Y1497057D01*
X1941883Y1494045D02*
Y1496965D01*
X1941983Y1494145D02*
Y1496865D01*
X1942083Y1494245D02*
Y1496765D01*
X1942183Y1494345D02*
Y1496665D01*
X1942283Y1494445D02*
Y1496565D01*
X1942383Y1494545D02*
Y1496465D01*
X1942483Y1494645D02*
Y1496365D01*
X1942583Y1494745D02*
Y1496265D01*
X1942683Y1494845D02*
Y1496165D01*
X1942783Y1494945D02*
Y1496065D01*
X1942883Y1495045D02*
Y1495965D01*
X1942983Y1495145D02*
Y1495865D01*
X1943083Y1495245D02*
Y1495765D01*
X1943183Y1495345D02*
Y1495665D01*
X1943283Y1495445D02*
Y1495565D01*
X1943449Y1494409D02*
X1941469Y1492429D01*
X1942954Y1490944*
X1944934Y1492924*
X1943449Y1494409*
X1942954Y1490944D02*
X1942954D01*
X1942854Y1491044D02*
X1943054D01*
X1942754Y1491144D02*
X1943154D01*
X1942654Y1491244D02*
X1943254D01*
X1942554Y1491344D02*
X1943354D01*
X1942454Y1491444D02*
X1943454D01*
X1942354Y1491544D02*
X1943554D01*
X1942254Y1491644D02*
X1943654D01*
X1942154Y1491744D02*
X1943754D01*
X1942054Y1491844D02*
X1943854D01*
X1941954Y1491944D02*
X1943954D01*
X1941854Y1492044D02*
X1944054D01*
X1941754Y1492144D02*
X1944154D01*
X1941654Y1492244D02*
X1944254D01*
X1941554Y1492344D02*
X1944354D01*
X1941485Y1492444D02*
X1944454D01*
X1941585Y1492544D02*
X1944554D01*
X1941685Y1492644D02*
X1944654D01*
X1941785Y1492744D02*
X1944754D01*
X1941885Y1492844D02*
X1944854D01*
X1941985Y1492944D02*
X1944914D01*
X1942085Y1493044D02*
X1944814D01*
X1942185Y1493144D02*
X1944714D01*
X1942285Y1493244D02*
X1944614D01*
X1942385Y1493344D02*
X1944514D01*
X1942485Y1493444D02*
X1944414D01*
X1942585Y1493544D02*
X1944314D01*
X1942685Y1493644D02*
X1944214D01*
X1942785Y1493744D02*
X1944114D01*
X1942885Y1493844D02*
X1944014D01*
X1942985Y1493944D02*
X1943914D01*
X1943085Y1494044D02*
X1943814D01*
X1943185Y1494144D02*
X1943714D01*
X1943285Y1494244D02*
X1943614D01*
X1943385Y1494344D02*
X1943514D01*
X1941469Y1492429D02*
X1941469D01*
X1941569Y1492329D02*
Y1492529D01*
X1941669Y1492229D02*
Y1492629D01*
X1941769Y1492129D02*
Y1492729D01*
X1941869Y1492029D02*
Y1492829D01*
X1941969Y1491929D02*
Y1492929D01*
X1942069Y1491829D02*
Y1493029D01*
X1942169Y1491729D02*
Y1493129D01*
X1942269Y1491629D02*
Y1493229D01*
X1942369Y1491529D02*
Y1493329D01*
X1942469Y1491429D02*
Y1493429D01*
X1942569Y1491329D02*
Y1493529D01*
X1942669Y1491229D02*
Y1493629D01*
X1942769Y1491129D02*
Y1493729D01*
X1942869Y1491029D02*
Y1493829D01*
X1942969Y1490960D02*
Y1493929D01*
X1943069Y1491060D02*
Y1494029D01*
X1943169Y1491160D02*
Y1494129D01*
X1943269Y1491260D02*
Y1494229D01*
X1943369Y1491360D02*
Y1494329D01*
X1943469Y1491460D02*
Y1494389D01*
X1943569Y1491560D02*
Y1494289D01*
X1943669Y1491660D02*
Y1494189D01*
X1943769Y1491760D02*
Y1494089D01*
X1943869Y1491860D02*
Y1493989D01*
X1943969Y1491960D02*
Y1493889D01*
X1944069Y1492060D02*
Y1493789D01*
X1944169Y1492160D02*
Y1493689D01*
X1944269Y1492260D02*
Y1493589D01*
X1944369Y1492360D02*
Y1493489D01*
X1944469Y1492460D02*
Y1493389D01*
X1944569Y1492560D02*
Y1493289D01*
X1944669Y1492660D02*
Y1493189D01*
X1944769Y1492760D02*
Y1493089D01*
X1944869Y1492860D02*
Y1492989D01*
X1946030Y1492818D02*
X1943626Y1490414D01*
X1945182Y1488858*
X1947586Y1491263*
X1946030Y1492818*
X1945182Y1488858D02*
X1945182D01*
X1945082Y1488958D02*
X1945282D01*
X1944982Y1489058D02*
X1945382D01*
X1944882Y1489158D02*
X1945482D01*
X1944782Y1489258D02*
X1945582D01*
X1944682Y1489358D02*
X1945682D01*
X1944582Y1489458D02*
X1945782D01*
X1944482Y1489558D02*
X1945882D01*
X1944382Y1489658D02*
X1945982D01*
X1944282Y1489758D02*
X1946082D01*
X1944182Y1489858D02*
X1946182D01*
X1944082Y1489958D02*
X1946282D01*
X1943982Y1490058D02*
X1946382D01*
X1943882Y1490158D02*
X1946482D01*
X1943782Y1490258D02*
X1946582D01*
X1943682Y1490358D02*
X1946682D01*
X1943670Y1490458D02*
X1946782D01*
X1943770Y1490558D02*
X1946882D01*
X1943870Y1490658D02*
X1946982D01*
X1943970Y1490758D02*
X1947082D01*
X1944070Y1490858D02*
X1947182D01*
X1944170Y1490958D02*
X1947282D01*
X1944270Y1491058D02*
X1947382D01*
X1944370Y1491158D02*
X1947482D01*
X1944470Y1491258D02*
X1947582D01*
X1944570Y1491358D02*
X1947490D01*
X1944670Y1491458D02*
X1947390D01*
X1944770Y1491558D02*
X1947290D01*
X1944870Y1491658D02*
X1947190D01*
X1944970Y1491758D02*
X1947090D01*
X1945070Y1491858D02*
X1946990D01*
X1945170Y1491958D02*
X1946890D01*
X1945270Y1492058D02*
X1946790D01*
X1945370Y1492158D02*
X1946690D01*
X1945470Y1492258D02*
X1946590D01*
X1945570Y1492358D02*
X1946490D01*
X1945670Y1492458D02*
X1946390D01*
X1945770Y1492558D02*
X1946290D01*
X1945870Y1492658D02*
X1946190D01*
X1945970Y1492758D02*
X1946090D01*
X1943626Y1490414D02*
X1943626D01*
X1943726Y1490314D02*
Y1490514D01*
X1943826Y1490214D02*
Y1490614D01*
X1943926Y1490114D02*
Y1490714D01*
X1944026Y1490014D02*
Y1490814D01*
X1944126Y1489914D02*
Y1490914D01*
X1944226Y1489814D02*
Y1491014D01*
X1944326Y1489714D02*
Y1491114D01*
X1944426Y1489614D02*
Y1491214D01*
X1944526Y1489514D02*
Y1491314D01*
X1944626Y1489414D02*
Y1491414D01*
X1944726Y1489314D02*
Y1491514D01*
X1944826Y1489214D02*
Y1491614D01*
X1944926Y1489114D02*
Y1491714D01*
X1945026Y1489014D02*
Y1491814D01*
X1945126Y1488914D02*
Y1491914D01*
X1945226Y1488903D02*
Y1492014D01*
X1945326Y1489003D02*
Y1492114D01*
X1945426Y1489103D02*
Y1492214D01*
X1945526Y1489203D02*
Y1492314D01*
X1945626Y1489303D02*
Y1492414D01*
X1945726Y1489403D02*
Y1492514D01*
X1945826Y1489503D02*
Y1492614D01*
X1945926Y1489603D02*
Y1492714D01*
X1946026Y1489703D02*
Y1492814D01*
X1946126Y1489803D02*
Y1492722D01*
X1946226Y1489903D02*
Y1492622D01*
X1946326Y1490003D02*
Y1492522D01*
X1946426Y1490103D02*
Y1492422D01*
X1946526Y1490203D02*
Y1492322D01*
X1946626Y1490303D02*
Y1492222D01*
X1946726Y1490403D02*
Y1492122D01*
X1946826Y1490503D02*
Y1492022D01*
X1946926Y1490603D02*
Y1491922D01*
X1947026Y1490703D02*
Y1491822D01*
X1947126Y1490803D02*
Y1491722D01*
X1947226Y1490903D02*
Y1491622D01*
X1947326Y1491003D02*
Y1491522D01*
X1947426Y1491103D02*
Y1491422D01*
X1947526Y1491203D02*
Y1491322D01*
X1947083Y1560271D02*
X1944679Y1557867D01*
X1946234Y1556311*
X1948639Y1558715*
X1947083Y1560271*
X1946234Y1556311D02*
X1946234D01*
X1946134Y1556411D02*
X1946334D01*
X1946034Y1556511D02*
X1946434D01*
X1945934Y1556611D02*
X1946534D01*
X1945834Y1556711D02*
X1946634D01*
X1945734Y1556811D02*
X1946734D01*
X1945634Y1556911D02*
X1946834D01*
X1945534Y1557011D02*
X1946934D01*
X1945434Y1557111D02*
X1947034D01*
X1945334Y1557211D02*
X1947134D01*
X1945234Y1557311D02*
X1947234D01*
X1945134Y1557411D02*
X1947334D01*
X1945034Y1557511D02*
X1947434D01*
X1944934Y1557611D02*
X1947534D01*
X1944834Y1557711D02*
X1947634D01*
X1944734Y1557811D02*
X1947734D01*
X1944723Y1557911D02*
X1947834D01*
X1944823Y1558011D02*
X1947934D01*
X1944923Y1558111D02*
X1948034D01*
X1945023Y1558211D02*
X1948134D01*
X1945123Y1558311D02*
X1948234D01*
X1945223Y1558411D02*
X1948334D01*
X1945323Y1558511D02*
X1948434D01*
X1945423Y1558611D02*
X1948534D01*
X1945523Y1558711D02*
X1948634D01*
X1945623Y1558811D02*
X1948543D01*
X1945723Y1558911D02*
X1948443D01*
X1945823Y1559011D02*
X1948343D01*
X1945923Y1559111D02*
X1948243D01*
X1946023Y1559211D02*
X1948143D01*
X1946123Y1559311D02*
X1948043D01*
X1946223Y1559411D02*
X1947943D01*
X1946323Y1559511D02*
X1947843D01*
X1946423Y1559611D02*
X1947743D01*
X1946523Y1559711D02*
X1947643D01*
X1946623Y1559811D02*
X1947543D01*
X1946723Y1559911D02*
X1947443D01*
X1946823Y1560011D02*
X1947343D01*
X1946923Y1560111D02*
X1947243D01*
X1947023Y1560211D02*
X1947143D01*
X1944679Y1557867D02*
X1944679D01*
X1944779Y1557767D02*
Y1557967D01*
X1944879Y1557667D02*
Y1558067D01*
X1944979Y1557567D02*
Y1558167D01*
X1945079Y1557467D02*
Y1558267D01*
X1945179Y1557367D02*
Y1558367D01*
X1945279Y1557267D02*
Y1558467D01*
X1945379Y1557167D02*
Y1558567D01*
X1945479Y1557067D02*
Y1558667D01*
X1945579Y1556967D02*
Y1558767D01*
X1945679Y1556867D02*
Y1558867D01*
X1945779Y1556767D02*
Y1558967D01*
X1945879Y1556667D02*
Y1559067D01*
X1945979Y1556567D02*
Y1559167D01*
X1946079Y1556467D02*
Y1559267D01*
X1946179Y1556367D02*
Y1559367D01*
X1946279Y1556356D02*
Y1559467D01*
X1946379Y1556456D02*
Y1559567D01*
X1946479Y1556556D02*
Y1559667D01*
X1946579Y1556656D02*
Y1559767D01*
X1946679Y1556756D02*
Y1559867D01*
X1946779Y1556856D02*
Y1559967D01*
X1946879Y1556956D02*
Y1560067D01*
X1946979Y1557056D02*
Y1560167D01*
X1947079Y1557156D02*
Y1560267D01*
X1947179Y1557256D02*
Y1560175D01*
X1947279Y1557356D02*
Y1560075D01*
X1947379Y1557456D02*
Y1559975D01*
X1947479Y1557556D02*
Y1559875D01*
X1947579Y1557656D02*
Y1559775D01*
X1947679Y1557756D02*
Y1559675D01*
X1947779Y1557856D02*
Y1559575D01*
X1947879Y1557956D02*
Y1559475D01*
X1947979Y1558056D02*
Y1559375D01*
X1948079Y1558156D02*
Y1559275D01*
X1948179Y1558256D02*
Y1559175D01*
X1948279Y1558356D02*
Y1559075D01*
X1948379Y1558456D02*
Y1558975D01*
X1948479Y1558556D02*
Y1558875D01*
X1948579Y1558656D02*
Y1558775D01*
X1945068Y1562428D02*
X1943088Y1560448D01*
X1944573Y1558963*
X1946553Y1560943*
X1945068Y1562428*
X1944573Y1558963D02*
X1944573D01*
X1944473Y1559063D02*
X1944673D01*
X1944373Y1559163D02*
X1944773D01*
X1944273Y1559263D02*
X1944873D01*
X1944173Y1559363D02*
X1944973D01*
X1944073Y1559463D02*
X1945073D01*
X1943973Y1559563D02*
X1945173D01*
X1943873Y1559663D02*
X1945273D01*
X1943773Y1559763D02*
X1945373D01*
X1943673Y1559863D02*
X1945473D01*
X1943573Y1559963D02*
X1945573D01*
X1943473Y1560063D02*
X1945673D01*
X1943373Y1560163D02*
X1945773D01*
X1943273Y1560263D02*
X1945873D01*
X1943173Y1560363D02*
X1945973D01*
X1943103Y1560463D02*
X1946073D01*
X1943203Y1560563D02*
X1946173D01*
X1943303Y1560663D02*
X1946273D01*
X1943403Y1560763D02*
X1946373D01*
X1943503Y1560863D02*
X1946473D01*
X1943603Y1560963D02*
X1946533D01*
X1943703Y1561063D02*
X1946433D01*
X1943803Y1561163D02*
X1946333D01*
X1943903Y1561263D02*
X1946233D01*
X1944003Y1561363D02*
X1946133D01*
X1944103Y1561463D02*
X1946033D01*
X1944203Y1561563D02*
X1945933D01*
X1944303Y1561663D02*
X1945833D01*
X1944403Y1561763D02*
X1945733D01*
X1944503Y1561863D02*
X1945633D01*
X1944603Y1561963D02*
X1945533D01*
X1944703Y1562063D02*
X1945433D01*
X1944803Y1562163D02*
X1945333D01*
X1944903Y1562263D02*
X1945233D01*
X1945003Y1562363D02*
X1945133D01*
X1943088Y1560448D02*
X1943088D01*
X1943188Y1560348D02*
Y1560548D01*
X1943288Y1560248D02*
Y1560648D01*
X1943388Y1560148D02*
Y1560748D01*
X1943488Y1560048D02*
Y1560848D01*
X1943588Y1559948D02*
Y1560948D01*
X1943688Y1559848D02*
Y1561048D01*
X1943788Y1559748D02*
Y1561148D01*
X1943888Y1559648D02*
Y1561248D01*
X1943988Y1559548D02*
Y1561348D01*
X1944088Y1559448D02*
Y1561448D01*
X1944188Y1559348D02*
Y1561548D01*
X1944288Y1559248D02*
Y1561648D01*
X1944388Y1559148D02*
Y1561748D01*
X1944488Y1559048D02*
Y1561848D01*
X1944588Y1558978D02*
Y1561948D01*
X1944688Y1559078D02*
Y1562048D01*
X1944788Y1559178D02*
Y1562148D01*
X1944888Y1559278D02*
Y1562248D01*
X1944988Y1559378D02*
Y1562348D01*
X1945088Y1559478D02*
Y1562408D01*
X1945188Y1559578D02*
Y1562308D01*
X1945288Y1559678D02*
Y1562208D01*
X1945388Y1559778D02*
Y1562108D01*
X1945488Y1559878D02*
Y1562008D01*
X1945588Y1559978D02*
Y1561908D01*
X1945688Y1560078D02*
Y1561808D01*
X1945788Y1560178D02*
Y1561708D01*
X1945888Y1560278D02*
Y1561608D01*
X1945988Y1560378D02*
Y1561508D01*
X1946088Y1560478D02*
Y1561408D01*
X1946188Y1560578D02*
Y1561308D01*
X1946288Y1560678D02*
Y1561208D01*
X1946388Y1560778D02*
Y1561108D01*
X1946488Y1560878D02*
Y1561008D01*
X1942840Y1564514D02*
X1940436Y1562109D01*
X1941992Y1560554*
X1944396Y1562958*
X1942840Y1564514*
X1941992Y1560554D02*
X1941992D01*
X1941892Y1560654D02*
X1942092D01*
X1941792Y1560754D02*
X1942192D01*
X1941692Y1560854D02*
X1942292D01*
X1941592Y1560954D02*
X1942392D01*
X1941492Y1561054D02*
X1942492D01*
X1941392Y1561154D02*
X1942592D01*
X1941292Y1561254D02*
X1942692D01*
X1941192Y1561354D02*
X1942792D01*
X1941092Y1561454D02*
X1942892D01*
X1940992Y1561554D02*
X1942992D01*
X1940892Y1561654D02*
X1943092D01*
X1940792Y1561754D02*
X1943192D01*
X1940692Y1561854D02*
X1943292D01*
X1940592Y1561954D02*
X1943392D01*
X1940492Y1562054D02*
X1943492D01*
X1940481Y1562154D02*
X1943592D01*
X1940581Y1562254D02*
X1943692D01*
X1940681Y1562354D02*
X1943792D01*
X1940781Y1562454D02*
X1943892D01*
X1940881Y1562554D02*
X1943992D01*
X1940981Y1562654D02*
X1944092D01*
X1941081Y1562754D02*
X1944192D01*
X1941181Y1562854D02*
X1944292D01*
X1941281Y1562954D02*
X1944392D01*
X1941381Y1563054D02*
X1944300D01*
X1941481Y1563154D02*
X1944200D01*
X1941581Y1563254D02*
X1944100D01*
X1941681Y1563354D02*
X1944000D01*
X1941781Y1563454D02*
X1943900D01*
X1941881Y1563554D02*
X1943800D01*
X1941981Y1563654D02*
X1943700D01*
X1942081Y1563754D02*
X1943600D01*
X1942181Y1563854D02*
X1943500D01*
X1942281Y1563954D02*
X1943400D01*
X1942381Y1564054D02*
X1943300D01*
X1942481Y1564154D02*
X1943200D01*
X1942581Y1564254D02*
X1943100D01*
X1942681Y1564354D02*
X1943000D01*
X1942781Y1564454D02*
X1942900D01*
X1940436Y1562109D02*
X1940436D01*
X1940536Y1562009D02*
Y1562209D01*
X1940636Y1561909D02*
Y1562309D01*
X1940736Y1561809D02*
Y1562409D01*
X1940836Y1561709D02*
Y1562509D01*
X1940936Y1561609D02*
Y1562609D01*
X1941036Y1561509D02*
Y1562709D01*
X1941136Y1561409D02*
Y1562809D01*
X1941236Y1561309D02*
Y1562909D01*
X1941336Y1561209D02*
Y1563009D01*
X1941436Y1561109D02*
Y1563109D01*
X1941536Y1561009D02*
Y1563209D01*
X1941636Y1560909D02*
Y1563309D01*
X1941736Y1560809D02*
Y1563409D01*
X1941836Y1560709D02*
Y1563509D01*
X1941936Y1560609D02*
Y1563609D01*
X1942036Y1560598D02*
Y1563709D01*
X1942136Y1560698D02*
Y1563809D01*
X1942236Y1560798D02*
Y1563909D01*
X1942336Y1560898D02*
Y1564009D01*
X1942436Y1560998D02*
Y1564109D01*
X1942536Y1561098D02*
Y1564209D01*
X1942636Y1561198D02*
Y1564309D01*
X1942736Y1561298D02*
Y1564409D01*
X1942836Y1561398D02*
Y1564509D01*
X1942936Y1561498D02*
Y1564418D01*
X1943036Y1561598D02*
Y1564318D01*
X1943136Y1561698D02*
Y1564218D01*
X1943236Y1561798D02*
Y1564118D01*
X1943336Y1561898D02*
Y1564018D01*
X1943436Y1561998D02*
Y1563918D01*
X1943536Y1562098D02*
Y1563818D01*
X1943636Y1562198D02*
Y1563718D01*
X1943736Y1562298D02*
Y1563618D01*
X1943836Y1562398D02*
Y1563518D01*
X1943936Y1562498D02*
Y1563418D01*
X1944036Y1562598D02*
Y1563318D01*
X1944136Y1562698D02*
Y1563218D01*
X1944236Y1562798D02*
Y1563118D01*
X1944336Y1562898D02*
Y1563018D01*
X1939588Y1561261D02*
X1937183Y1558857D01*
X1938739Y1557301*
X1941143Y1559705*
X1939588Y1561261*
X1938739Y1557301D02*
X1938739D01*
X1938639Y1557401D02*
X1938839D01*
X1938539Y1557501D02*
X1938939D01*
X1938439Y1557601D02*
X1939039D01*
X1938339Y1557701D02*
X1939139D01*
X1938239Y1557801D02*
X1939239D01*
X1938139Y1557901D02*
X1939339D01*
X1938039Y1558001D02*
X1939439D01*
X1937939Y1558101D02*
X1939539D01*
X1937839Y1558201D02*
X1939639D01*
X1937739Y1558301D02*
X1939739D01*
X1937639Y1558401D02*
X1939839D01*
X1937539Y1558501D02*
X1939939D01*
X1937439Y1558601D02*
X1940039D01*
X1937339Y1558701D02*
X1940139D01*
X1937239Y1558801D02*
X1940239D01*
X1937228Y1558901D02*
X1940339D01*
X1937328Y1559001D02*
X1940439D01*
X1937428Y1559101D02*
X1940539D01*
X1937528Y1559201D02*
X1940639D01*
X1937628Y1559301D02*
X1940739D01*
X1937728Y1559401D02*
X1940839D01*
X1937828Y1559501D02*
X1940939D01*
X1937928Y1559601D02*
X1941039D01*
X1938028Y1559701D02*
X1941139D01*
X1938128Y1559801D02*
X1941047D01*
X1938228Y1559901D02*
X1940947D01*
X1938328Y1560001D02*
X1940847D01*
X1938428Y1560101D02*
X1940747D01*
X1938528Y1560201D02*
X1940647D01*
X1938628Y1560301D02*
X1940547D01*
X1938728Y1560401D02*
X1940447D01*
X1938828Y1560501D02*
X1940347D01*
X1938928Y1560601D02*
X1940247D01*
X1939028Y1560701D02*
X1940147D01*
X1939128Y1560801D02*
X1940047D01*
X1939228Y1560901D02*
X1939947D01*
X1939328Y1561001D02*
X1939847D01*
X1939428Y1561101D02*
X1939747D01*
X1939528Y1561201D02*
X1939647D01*
X1937183Y1558857D02*
X1937183D01*
X1937283Y1558757D02*
Y1558957D01*
X1937383Y1558657D02*
Y1559057D01*
X1937483Y1558557D02*
Y1559157D01*
X1937583Y1558457D02*
Y1559257D01*
X1937683Y1558357D02*
Y1559357D01*
X1937783Y1558257D02*
Y1559457D01*
X1937883Y1558157D02*
Y1559557D01*
X1937983Y1558057D02*
Y1559657D01*
X1938083Y1557957D02*
Y1559757D01*
X1938183Y1557857D02*
Y1559857D01*
X1938283Y1557757D02*
Y1559957D01*
X1938383Y1557657D02*
Y1560057D01*
X1938483Y1557557D02*
Y1560157D01*
X1938583Y1557457D02*
Y1560257D01*
X1938683Y1557357D02*
Y1560357D01*
X1938783Y1557345D02*
Y1560457D01*
X1938883Y1557445D02*
Y1560557D01*
X1938983Y1557545D02*
Y1560657D01*
X1939083Y1557645D02*
Y1560757D01*
X1939183Y1557745D02*
Y1560857D01*
X1939283Y1557845D02*
Y1560957D01*
X1939383Y1557945D02*
Y1561057D01*
X1939483Y1558045D02*
Y1561157D01*
X1939583Y1558145D02*
Y1561257D01*
X1939683Y1558245D02*
Y1561165D01*
X1939783Y1558345D02*
Y1561065D01*
X1939883Y1558445D02*
Y1560965D01*
X1939983Y1558545D02*
Y1560865D01*
X1940083Y1558645D02*
Y1560765D01*
X1940183Y1558745D02*
Y1560665D01*
X1940283Y1558845D02*
Y1560565D01*
X1940383Y1558945D02*
Y1560465D01*
X1940483Y1559045D02*
Y1560365D01*
X1940583Y1559145D02*
Y1560265D01*
X1940683Y1559245D02*
Y1560165D01*
X1940783Y1559345D02*
Y1560065D01*
X1940883Y1559445D02*
Y1559965D01*
X1940983Y1559545D02*
Y1559865D01*
X1941083Y1559645D02*
Y1559765D01*
X1941249Y1558609D02*
X1939269Y1556629D01*
X1940754Y1555144*
X1942734Y1557124*
X1941249Y1558609*
X1940754Y1555144D02*
X1940754D01*
X1940654Y1555244D02*
X1940854D01*
X1940554Y1555344D02*
X1940954D01*
X1940454Y1555444D02*
X1941054D01*
X1940354Y1555544D02*
X1941154D01*
X1940254Y1555644D02*
X1941254D01*
X1940154Y1555744D02*
X1941354D01*
X1940054Y1555844D02*
X1941454D01*
X1939954Y1555944D02*
X1941554D01*
X1939854Y1556044D02*
X1941654D01*
X1939754Y1556144D02*
X1941754D01*
X1939654Y1556244D02*
X1941854D01*
X1939554Y1556344D02*
X1941954D01*
X1939454Y1556444D02*
X1942054D01*
X1939354Y1556544D02*
X1942154D01*
X1939285Y1556644D02*
X1942254D01*
X1939385Y1556744D02*
X1942354D01*
X1939485Y1556844D02*
X1942454D01*
X1939585Y1556944D02*
X1942554D01*
X1939685Y1557044D02*
X1942654D01*
X1939785Y1557144D02*
X1942714D01*
X1939885Y1557244D02*
X1942614D01*
X1939985Y1557344D02*
X1942514D01*
X1940085Y1557444D02*
X1942414D01*
X1940185Y1557544D02*
X1942314D01*
X1940285Y1557644D02*
X1942214D01*
X1940385Y1557744D02*
X1942114D01*
X1940485Y1557844D02*
X1942014D01*
X1940585Y1557944D02*
X1941914D01*
X1940685Y1558044D02*
X1941814D01*
X1940785Y1558144D02*
X1941714D01*
X1940885Y1558244D02*
X1941614D01*
X1940985Y1558344D02*
X1941514D01*
X1941085Y1558444D02*
X1941414D01*
X1941185Y1558544D02*
X1941314D01*
X1939269Y1556629D02*
X1939269D01*
X1939369Y1556529D02*
Y1556729D01*
X1939469Y1556429D02*
Y1556829D01*
X1939569Y1556329D02*
Y1556929D01*
X1939669Y1556229D02*
Y1557029D01*
X1939769Y1556129D02*
Y1557129D01*
X1939869Y1556029D02*
Y1557229D01*
X1939969Y1555929D02*
Y1557329D01*
X1940069Y1555829D02*
Y1557429D01*
X1940169Y1555729D02*
Y1557529D01*
X1940269Y1555629D02*
Y1557629D01*
X1940369Y1555529D02*
Y1557729D01*
X1940469Y1555429D02*
Y1557829D01*
X1940569Y1555329D02*
Y1557929D01*
X1940669Y1555229D02*
Y1558029D01*
X1940769Y1555160D02*
Y1558129D01*
X1940869Y1555260D02*
Y1558229D01*
X1940969Y1555360D02*
Y1558329D01*
X1941069Y1555460D02*
Y1558429D01*
X1941169Y1555560D02*
Y1558529D01*
X1941269Y1555660D02*
Y1558589D01*
X1941369Y1555760D02*
Y1558489D01*
X1941469Y1555860D02*
Y1558389D01*
X1941569Y1555960D02*
Y1558289D01*
X1941669Y1556060D02*
Y1558189D01*
X1941769Y1556160D02*
Y1558089D01*
X1941869Y1556260D02*
Y1557989D01*
X1941969Y1556360D02*
Y1557889D01*
X1942069Y1556460D02*
Y1557789D01*
X1942169Y1556560D02*
Y1557689D01*
X1942269Y1556660D02*
Y1557589D01*
X1942369Y1556760D02*
Y1557489D01*
X1942469Y1556860D02*
Y1557389D01*
X1942569Y1556960D02*
Y1557289D01*
X1942669Y1557060D02*
Y1557189D01*
X1943830Y1557018D02*
X1941426Y1554614D01*
X1942982Y1553058*
X1945386Y1555463*
X1943830Y1557018*
X1942982Y1553058D02*
X1942982D01*
X1942882Y1553158D02*
X1943082D01*
X1942782Y1553258D02*
X1943182D01*
X1942682Y1553358D02*
X1943282D01*
X1942582Y1553458D02*
X1943382D01*
X1942482Y1553558D02*
X1943482D01*
X1942382Y1553658D02*
X1943582D01*
X1942282Y1553758D02*
X1943682D01*
X1942182Y1553858D02*
X1943782D01*
X1942082Y1553958D02*
X1943882D01*
X1941982Y1554058D02*
X1943982D01*
X1941882Y1554158D02*
X1944082D01*
X1941782Y1554258D02*
X1944182D01*
X1941682Y1554358D02*
X1944282D01*
X1941582Y1554458D02*
X1944382D01*
X1941482Y1554558D02*
X1944482D01*
X1941470Y1554658D02*
X1944582D01*
X1941570Y1554758D02*
X1944682D01*
X1941670Y1554858D02*
X1944782D01*
X1941770Y1554958D02*
X1944882D01*
X1941870Y1555058D02*
X1944982D01*
X1941970Y1555158D02*
X1945082D01*
X1942070Y1555258D02*
X1945182D01*
X1942170Y1555358D02*
X1945282D01*
X1942270Y1555458D02*
X1945382D01*
X1942370Y1555558D02*
X1945290D01*
X1942470Y1555658D02*
X1945190D01*
X1942570Y1555758D02*
X1945090D01*
X1942670Y1555858D02*
X1944990D01*
X1942770Y1555958D02*
X1944890D01*
X1942870Y1556058D02*
X1944790D01*
X1942970Y1556158D02*
X1944690D01*
X1943070Y1556258D02*
X1944590D01*
X1943170Y1556358D02*
X1944490D01*
X1943270Y1556458D02*
X1944390D01*
X1943370Y1556558D02*
X1944290D01*
X1943470Y1556658D02*
X1944190D01*
X1943570Y1556758D02*
X1944090D01*
X1943670Y1556858D02*
X1943990D01*
X1943770Y1556958D02*
X1943890D01*
X1941426Y1554614D02*
X1941426D01*
X1941526Y1554514D02*
Y1554714D01*
X1941626Y1554414D02*
Y1554814D01*
X1941726Y1554314D02*
Y1554914D01*
X1941826Y1554214D02*
Y1555014D01*
X1941926Y1554114D02*
Y1555114D01*
X1942026Y1554014D02*
Y1555214D01*
X1942126Y1553914D02*
Y1555314D01*
X1942226Y1553814D02*
Y1555414D01*
X1942326Y1553714D02*
Y1555514D01*
X1942426Y1553614D02*
Y1555614D01*
X1942526Y1553514D02*
Y1555714D01*
X1942626Y1553414D02*
Y1555814D01*
X1942726Y1553314D02*
Y1555914D01*
X1942826Y1553214D02*
Y1556014D01*
X1942926Y1553114D02*
Y1556114D01*
X1943026Y1553103D02*
Y1556214D01*
X1943126Y1553203D02*
Y1556314D01*
X1943226Y1553303D02*
Y1556414D01*
X1943326Y1553403D02*
Y1556514D01*
X1943426Y1553503D02*
Y1556614D01*
X1943526Y1553603D02*
Y1556714D01*
X1943626Y1553703D02*
Y1556814D01*
X1943726Y1553803D02*
Y1556914D01*
X1943826Y1553903D02*
Y1557014D01*
X1943926Y1554003D02*
Y1556922D01*
X1944026Y1554103D02*
Y1556822D01*
X1944126Y1554203D02*
Y1556722D01*
X1944226Y1554303D02*
Y1556622D01*
X1944326Y1554403D02*
Y1556522D01*
X1944426Y1554503D02*
Y1556422D01*
X1944526Y1554603D02*
Y1556322D01*
X1944626Y1554703D02*
Y1556222D01*
X1944726Y1554803D02*
Y1556122D01*
X1944826Y1554903D02*
Y1556022D01*
X1944926Y1555003D02*
Y1555922D01*
X1945026Y1555103D02*
Y1555822D01*
X1945126Y1555203D02*
Y1555722D01*
X1945226Y1555303D02*
Y1555622D01*
X1945326Y1555403D02*
Y1555522D01*
G54D97*
X2045885Y1668848D02*
X2044663D01*
X2043585Y1667860*
Y1658036*
X2044663Y1657048*
X2045885*
Y1668848*
X2043585Y1658036D02*
Y1667860D01*
X2043835Y1657807D02*
Y1668089D01*
X2044085Y1657578D02*
Y1668318D01*
X2044335Y1657349D02*
Y1668548D01*
X2044585Y1657119D02*
Y1668777D01*
X2044835Y1657048D02*
Y1668848D01*
X2045085Y1657048D02*
Y1668848D01*
X2045335Y1657048D02*
Y1668848D01*
X2045585Y1657048D02*
Y1668848D01*
X2045835Y1657048D02*
Y1668848D01*
X2058585Y1667860D02*
X2057507Y1668848D01*
X2056285*
Y1657048*
X2057507*
X2058585Y1658036*
Y1667860*
X2056335Y1657048D02*
Y1668848D01*
X2056585Y1657048D02*
Y1668848D01*
X2056835Y1657048D02*
Y1668848D01*
X2057085Y1657048D02*
Y1668848D01*
X2057335Y1657048D02*
Y1668848D01*
X2057585Y1657119D02*
Y1668777D01*
X2057835Y1657349D02*
Y1668548D01*
X2058085Y1657578D02*
Y1668318D01*
X2058335Y1657807D02*
Y1668089D01*
X1897561Y1488036D02*
X1899861D01*
Y1484136*
X1897561*
Y1488036*
X1897161Y1552136D02*
X1899461D01*
Y1548236*
X1897161*
Y1552136*
X1897361Y1618536D02*
X1899661D01*
Y1614636*
X1897361*
Y1618536*
X2001785Y1686344D02*
X1980237D01*
Y1711828*
X2001785*
Y1686344*
X1897561Y1487735D02*
X1899861D01*
X1897561Y1487285D02*
X1899861D01*
X1897561Y1486835D02*
X1899861D01*
X1897561Y1486385D02*
X1899861D01*
X1897561Y1485935D02*
X1899861D01*
X1897561Y1485485D02*
X1899861D01*
X1897561Y1485035D02*
X1899861D01*
X1897561Y1484585D02*
X1899861D01*
X1897161Y1551835D02*
X1899461D01*
X1897161Y1551385D02*
X1899461D01*
X1897161Y1550935D02*
X1899461D01*
X1897161Y1550485D02*
X1899461D01*
X1897161Y1550035D02*
X1899461D01*
X1897161Y1549585D02*
X1899461D01*
X1897161Y1549135D02*
X1899461D01*
X1897161Y1548685D02*
X1899461D01*
X1897361Y1618235D02*
X1899661D01*
X1897361Y1617785D02*
X1899661D01*
X1897361Y1617335D02*
X1899661D01*
X1897361Y1616885D02*
X1899661D01*
X1897361Y1616435D02*
X1899661D01*
X1897361Y1615985D02*
X1899661D01*
X1897361Y1615535D02*
X1899661D01*
X1897361Y1615085D02*
X1899661D01*
X1980237Y1711543D02*
X2001785D01*
X1980237Y1711093D02*
X2001785D01*
X1980237Y1710643D02*
X2001785D01*
X1980237Y1710193D02*
X2001785D01*
X1980237Y1709743D02*
X2001785D01*
X1980237Y1709293D02*
X2001785D01*
X1980237Y1708843D02*
X2001785D01*
X1980237Y1708393D02*
X2001785D01*
X1980237Y1707943D02*
X2001785D01*
X1980237Y1707493D02*
X2001785D01*
X1980237Y1707043D02*
X2001785D01*
X1980237Y1706593D02*
X2001785D01*
X1980237Y1706143D02*
X2001785D01*
X1980237Y1705693D02*
X2001785D01*
X1980237Y1705243D02*
X2001785D01*
X1980237Y1704793D02*
X2001785D01*
X1980237Y1704343D02*
X2001785D01*
X1980237Y1703893D02*
X2001785D01*
X1980237Y1703443D02*
X2001785D01*
X1980237Y1702993D02*
X2001785D01*
X1980237Y1702543D02*
X2001785D01*
X1980237Y1702093D02*
X2001785D01*
X1980237Y1701643D02*
X2001785D01*
X1980237Y1701193D02*
X2001785D01*
X1980237Y1700743D02*
X2001785D01*
X1980237Y1700293D02*
X2001785D01*
X1980237Y1699843D02*
X2001785D01*
X1980237Y1699393D02*
X2001785D01*
X1980237Y1698943D02*
X2001785D01*
X1980237Y1698493D02*
X2001785D01*
X1980237Y1698043D02*
X2001785D01*
X1980237Y1697593D02*
X2001785D01*
X1980237Y1697143D02*
X2001785D01*
X1980237Y1696693D02*
X2001785D01*
X1980237Y1696243D02*
X2001785D01*
X1980237Y1695793D02*
X2001785D01*
X1980237Y1695343D02*
X2001785D01*
X1980237Y1694893D02*
X2001785D01*
X1980237Y1694443D02*
X2001785D01*
X1980237Y1693993D02*
X2001785D01*
X1980237Y1693543D02*
X2001785D01*
X1980237Y1693093D02*
X2001785D01*
X1980237Y1692643D02*
X2001785D01*
X1980237Y1692193D02*
X2001785D01*
X1980237Y1691743D02*
X2001785D01*
X1980237Y1691293D02*
X2001785D01*
X1980237Y1690843D02*
X2001785D01*
X1980237Y1690393D02*
X2001785D01*
X1980237Y1689943D02*
X2001785D01*
X1980237Y1689493D02*
X2001785D01*
X1980237Y1689043D02*
X2001785D01*
X1980237Y1688593D02*
X2001785D01*
X1980237Y1688143D02*
X2001785D01*
X1980237Y1687693D02*
X2001785D01*
X1980237Y1687243D02*
X2001785D01*
X1980237Y1686793D02*
X2001785D01*
G54D98*
X1800000Y1750875D02*
X2200000D01*
Y1450875*
X1800000*
Y1750875*
G54D102*
X1838095Y1489792D02*
Y1480703D01*
X1849906*
Y1460624*
X1955588*
Y1464748*
X1854031*
Y1484827*
X1842220*
Y1489792*
X1838095*
X1990064Y1543279D02*
X1994188D01*
Y1460630*
X1990064*
Y1543279*
X1949037Y1657469D02*
X1977706D01*
Y1661365*
X1949037*
Y1657469*
X1942154Y1661470D02*
X1838207D01*
Y1623517*
X1842240*
Y1657466*
X1942154*
Y1661470*
X1838189Y1619407D02*
X1842207D01*
Y1559859*
X1838189*
Y1619407*
Y1555146D02*
X1842220D01*
Y1494956*
X1838189*
Y1555146*
X1972638Y1464766D02*
X1994109D01*
Y1460639*
X1972638*
Y1464766*
X1849906Y1461163D02*
X1955588D01*
X1849906Y1461703D02*
X1955588D01*
X1849906Y1462243D02*
X1955588D01*
X1849906Y1462783D02*
X1955588D01*
X1849906Y1463323D02*
X1955588D01*
X1849906Y1463863D02*
X1955588D01*
X1849906Y1464403D02*
X1955588D01*
X1838095Y1484383D02*
X1854031D01*
X1838095Y1483843D02*
X1854031D01*
X1838095Y1483303D02*
X1854031D01*
X1838095Y1482763D02*
X1854031D01*
X1838095Y1482223D02*
X1854031D01*
X1838095Y1481683D02*
X1854031D01*
X1838095Y1481143D02*
X1854031D01*
X1849906Y1480603D02*
X1854031D01*
X1849906Y1480063D02*
X1854031D01*
X1849906Y1479523D02*
X1854031D01*
X1849906Y1478983D02*
X1854031D01*
X1849906Y1478443D02*
X1854031D01*
X1849906Y1477903D02*
X1854031D01*
X1849906Y1477363D02*
X1854031D01*
X1849906Y1476823D02*
X1854031D01*
X1849906Y1476283D02*
X1854031D01*
X1849906Y1475743D02*
X1854031D01*
X1849906Y1475203D02*
X1854031D01*
X1849906Y1474663D02*
X1854031D01*
X1849906Y1474123D02*
X1854031D01*
X1849906Y1473583D02*
X1854031D01*
X1849906Y1473043D02*
X1854031D01*
X1849906Y1472503D02*
X1854031D01*
X1849906Y1471963D02*
X1854031D01*
X1849906Y1471423D02*
X1854031D01*
X1849906Y1470883D02*
X1854031D01*
X1849906Y1470343D02*
X1854031D01*
X1849906Y1469803D02*
X1854031D01*
X1849906Y1469263D02*
X1854031D01*
X1849906Y1468723D02*
X1854031D01*
X1849906Y1468183D02*
X1854031D01*
X1849906Y1467643D02*
X1854031D01*
X1849906Y1467103D02*
X1854031D01*
X1849906Y1466563D02*
X1854031D01*
X1849906Y1466023D02*
X1854031D01*
X1849906Y1465483D02*
X1854031D01*
X1849906Y1464943D02*
X1854031D01*
X1838095Y1489783D02*
X1842220D01*
X1838095Y1489243D02*
X1842220D01*
X1838095Y1488703D02*
X1842220D01*
X1838095Y1488163D02*
X1842220D01*
X1838095Y1487623D02*
X1842220D01*
X1838095Y1487083D02*
X1842220D01*
X1838095Y1486543D02*
X1842220D01*
X1838095Y1486003D02*
X1842220D01*
X1838095Y1485463D02*
X1842220D01*
X1838095Y1484923D02*
X1842220D01*
X1990064Y1543249D02*
X1994188D01*
X1990064Y1542709D02*
X1994188D01*
X1990064Y1542169D02*
X1994188D01*
X1990064Y1541629D02*
X1994188D01*
X1990064Y1541089D02*
X1994188D01*
X1990064Y1540549D02*
X1994188D01*
X1990064Y1540009D02*
X1994188D01*
X1990064Y1539469D02*
X1994188D01*
X1990064Y1538929D02*
X1994188D01*
X1990064Y1538389D02*
X1994188D01*
X1990064Y1537849D02*
X1994188D01*
X1990064Y1537309D02*
X1994188D01*
X1990064Y1536769D02*
X1994188D01*
X1990064Y1536229D02*
X1994188D01*
X1990064Y1535689D02*
X1994188D01*
X1990064Y1535149D02*
X1994188D01*
X1990064Y1534609D02*
X1994188D01*
X1990064Y1534069D02*
X1994188D01*
X1990064Y1533529D02*
X1994188D01*
X1990064Y1532989D02*
X1994188D01*
X1990064Y1532449D02*
X1994188D01*
X1990064Y1531909D02*
X1994188D01*
X1990064Y1531369D02*
X1994188D01*
X1990064Y1530829D02*
X1994188D01*
X1990064Y1530289D02*
X1994188D01*
X1990064Y1529749D02*
X1994188D01*
X1990064Y1529209D02*
X1994188D01*
X1990064Y1528669D02*
X1994188D01*
X1990064Y1528129D02*
X1994188D01*
X1990064Y1527589D02*
X1994188D01*
X1990064Y1527049D02*
X1994188D01*
X1990064Y1526509D02*
X1994188D01*
X1990064Y1525969D02*
X1994188D01*
X1990064Y1525429D02*
X1994188D01*
X1990064Y1524889D02*
X1994188D01*
X1990064Y1524349D02*
X1994188D01*
X1990064Y1523809D02*
X1994188D01*
X1990064Y1523269D02*
X1994188D01*
X1990064Y1522729D02*
X1994188D01*
X1990064Y1522189D02*
X1994188D01*
X1990064Y1521649D02*
X1994188D01*
X1990064Y1521109D02*
X1994188D01*
X1990064Y1520569D02*
X1994188D01*
X1990064Y1520029D02*
X1994188D01*
X1990064Y1519489D02*
X1994188D01*
X1990064Y1518949D02*
X1994188D01*
X1990064Y1518409D02*
X1994188D01*
X1990064Y1517869D02*
X1994188D01*
X1990064Y1517329D02*
X1994188D01*
X1990064Y1516789D02*
X1994188D01*
X1990064Y1516249D02*
X1994188D01*
X1990064Y1515709D02*
X1994188D01*
X1990064Y1515169D02*
X1994188D01*
X1990064Y1514629D02*
X1994188D01*
X1990064Y1514089D02*
X1994188D01*
X1990064Y1513549D02*
X1994188D01*
X1990064Y1513009D02*
X1994188D01*
X1990064Y1512469D02*
X1994188D01*
X1990064Y1511929D02*
X1994188D01*
X1990064Y1511389D02*
X1994188D01*
X1990064Y1510849D02*
X1994188D01*
X1990064Y1510309D02*
X1994188D01*
X1990064Y1509769D02*
X1994188D01*
X1990064Y1509229D02*
X1994188D01*
X1990064Y1508689D02*
X1994188D01*
X1990064Y1508149D02*
X1994188D01*
X1990064Y1507609D02*
X1994188D01*
X1990064Y1507069D02*
X1994188D01*
X1990064Y1506529D02*
X1994188D01*
X1990064Y1505989D02*
X1994188D01*
X1990064Y1505449D02*
X1994188D01*
X1990064Y1504909D02*
X1994188D01*
X1990064Y1504369D02*
X1994188D01*
X1990064Y1503829D02*
X1994188D01*
X1990064Y1503289D02*
X1994188D01*
X1990064Y1502749D02*
X1994188D01*
X1990064Y1502209D02*
X1994188D01*
X1990064Y1501669D02*
X1994188D01*
X1990064Y1501129D02*
X1994188D01*
X1990064Y1500589D02*
X1994188D01*
X1990064Y1500049D02*
X1994188D01*
X1990064Y1499509D02*
X1994188D01*
X1990064Y1498969D02*
X1994188D01*
X1990064Y1498429D02*
X1994188D01*
X1990064Y1497889D02*
X1994188D01*
X1990064Y1497349D02*
X1994188D01*
X1990064Y1496809D02*
X1994188D01*
X1990064Y1496269D02*
X1994188D01*
X1990064Y1495729D02*
X1994188D01*
X1990064Y1495189D02*
X1994188D01*
X1990064Y1494649D02*
X1994188D01*
X1990064Y1494109D02*
X1994188D01*
X1990064Y1493569D02*
X1994188D01*
X1990064Y1493029D02*
X1994188D01*
X1990064Y1492489D02*
X1994188D01*
X1990064Y1491949D02*
X1994188D01*
X1990064Y1491409D02*
X1994188D01*
X1990064Y1490869D02*
X1994188D01*
X1990064Y1490329D02*
X1994188D01*
X1990064Y1489789D02*
X1994188D01*
X1990064Y1489249D02*
X1994188D01*
X1990064Y1488709D02*
X1994188D01*
X1990064Y1488169D02*
X1994188D01*
X1990064Y1487629D02*
X1994188D01*
X1990064Y1487089D02*
X1994188D01*
X1990064Y1486549D02*
X1994188D01*
X1990064Y1486009D02*
X1994188D01*
X1990064Y1485469D02*
X1994188D01*
X1990064Y1484929D02*
X1994188D01*
X1990064Y1484389D02*
X1994188D01*
X1990064Y1483849D02*
X1994188D01*
X1990064Y1483309D02*
X1994188D01*
X1990064Y1482769D02*
X1994188D01*
X1990064Y1482229D02*
X1994188D01*
X1990064Y1481689D02*
X1994188D01*
X1990064Y1481149D02*
X1994188D01*
X1990064Y1480609D02*
X1994188D01*
X1990064Y1480069D02*
X1994188D01*
X1990064Y1479529D02*
X1994188D01*
X1990064Y1478989D02*
X1994188D01*
X1990064Y1478449D02*
X1994188D01*
X1990064Y1477909D02*
X1994188D01*
X1990064Y1477369D02*
X1994188D01*
X1990064Y1476829D02*
X1994188D01*
X1990064Y1476289D02*
X1994188D01*
X1990064Y1475749D02*
X1994188D01*
X1990064Y1475209D02*
X1994188D01*
X1990064Y1474669D02*
X1994188D01*
X1990064Y1474129D02*
X1994188D01*
X1990064Y1473589D02*
X1994188D01*
X1990064Y1473049D02*
X1994188D01*
X1990064Y1472509D02*
X1994188D01*
X1990064Y1471969D02*
X1994188D01*
X1990064Y1471429D02*
X1994188D01*
X1990064Y1470889D02*
X1994188D01*
X1990064Y1470349D02*
X1994188D01*
X1990064Y1469809D02*
X1994188D01*
X1990064Y1469269D02*
X1994188D01*
X1990064Y1468729D02*
X1994188D01*
X1990064Y1468189D02*
X1994188D01*
X1990064Y1467649D02*
X1994188D01*
X1990064Y1467109D02*
X1994188D01*
X1990064Y1466569D02*
X1994188D01*
X1990064Y1466029D02*
X1994188D01*
X1990064Y1465489D02*
X1994188D01*
X1990064Y1464949D02*
X1994188D01*
X1990064Y1464409D02*
X1994188D01*
X1990064Y1463869D02*
X1994188D01*
X1990064Y1463329D02*
X1994188D01*
X1990064Y1462789D02*
X1994188D01*
X1990064Y1462249D02*
X1994188D01*
X1990064Y1461709D02*
X1994188D01*
X1990064Y1461169D02*
X1994188D01*
X1949037Y1661247D02*
X1977706D01*
X1949037Y1660707D02*
X1977706D01*
X1949037Y1660167D02*
X1977706D01*
X1949037Y1659627D02*
X1977706D01*
X1949037Y1659087D02*
X1977706D01*
X1949037Y1658547D02*
X1977706D01*
X1949037Y1658007D02*
X1977706D01*
X1838207Y1661316D02*
X1942154D01*
X1838207Y1660776D02*
X1942154D01*
X1838207Y1660236D02*
X1942154D01*
X1838207Y1659696D02*
X1942154D01*
X1838207Y1659156D02*
X1942154D01*
X1838207Y1658616D02*
X1942154D01*
X1838207Y1658076D02*
X1942154D01*
X1838207Y1657536D02*
X1942154D01*
X1838207Y1656996D02*
X1842240D01*
X1838207Y1656456D02*
X1842240D01*
X1838207Y1655916D02*
X1842240D01*
X1838207Y1655376D02*
X1842240D01*
X1838207Y1654836D02*
X1842240D01*
X1838207Y1654296D02*
X1842240D01*
X1838207Y1653756D02*
X1842240D01*
X1838207Y1653216D02*
X1842240D01*
X1838207Y1652676D02*
X1842240D01*
X1838207Y1652136D02*
X1842240D01*
X1838207Y1651596D02*
X1842240D01*
X1838207Y1651056D02*
X1842240D01*
X1838207Y1650516D02*
X1842240D01*
X1838207Y1649976D02*
X1842240D01*
X1838207Y1649436D02*
X1842240D01*
X1838207Y1648896D02*
X1842240D01*
X1838207Y1648356D02*
X1842240D01*
X1838207Y1647816D02*
X1842240D01*
X1838207Y1647276D02*
X1842240D01*
X1838207Y1646736D02*
X1842240D01*
X1838207Y1646196D02*
X1842240D01*
X1838207Y1645656D02*
X1842240D01*
X1838207Y1645116D02*
X1842240D01*
X1838207Y1644576D02*
X1842240D01*
X1838207Y1644036D02*
X1842240D01*
X1838207Y1643496D02*
X1842240D01*
X1838207Y1642956D02*
X1842240D01*
X1838207Y1642416D02*
X1842240D01*
X1838207Y1641876D02*
X1842240D01*
X1838207Y1641336D02*
X1842240D01*
X1838207Y1640796D02*
X1842240D01*
X1838207Y1640256D02*
X1842240D01*
X1838207Y1639716D02*
X1842240D01*
X1838207Y1639176D02*
X1842240D01*
X1838207Y1638636D02*
X1842240D01*
X1838207Y1638096D02*
X1842240D01*
X1838207Y1637556D02*
X1842240D01*
X1838207Y1637016D02*
X1842240D01*
X1838207Y1636476D02*
X1842240D01*
X1838207Y1635936D02*
X1842240D01*
X1838207Y1635396D02*
X1842240D01*
X1838207Y1634856D02*
X1842240D01*
X1838207Y1634316D02*
X1842240D01*
X1838207Y1633776D02*
X1842240D01*
X1838207Y1633236D02*
X1842240D01*
X1838207Y1632696D02*
X1842240D01*
X1838207Y1632156D02*
X1842240D01*
X1838207Y1631616D02*
X1842240D01*
X1838207Y1631076D02*
X1842240D01*
X1838207Y1630536D02*
X1842240D01*
X1838207Y1629996D02*
X1842240D01*
X1838207Y1629456D02*
X1842240D01*
X1838207Y1628916D02*
X1842240D01*
X1838207Y1628376D02*
X1842240D01*
X1838207Y1627836D02*
X1842240D01*
X1838207Y1627296D02*
X1842240D01*
X1838207Y1626756D02*
X1842240D01*
X1838207Y1626216D02*
X1842240D01*
X1838207Y1625676D02*
X1842240D01*
X1838207Y1625136D02*
X1842240D01*
X1838207Y1624596D02*
X1842240D01*
X1838207Y1624056D02*
X1842240D01*
X1838189Y1619258D02*
X1842207D01*
X1838189Y1618718D02*
X1842207D01*
X1838189Y1618178D02*
X1842207D01*
X1838189Y1617638D02*
X1842207D01*
X1838189Y1617098D02*
X1842207D01*
X1838189Y1616558D02*
X1842207D01*
X1838189Y1616018D02*
X1842207D01*
X1838189Y1615478D02*
X1842207D01*
X1838189Y1614938D02*
X1842207D01*
X1838189Y1614398D02*
X1842207D01*
X1838189Y1613858D02*
X1842207D01*
X1838189Y1613318D02*
X1842207D01*
X1838189Y1612778D02*
X1842207D01*
X1838189Y1612238D02*
X1842207D01*
X1838189Y1611698D02*
X1842207D01*
X1838189Y1611158D02*
X1842207D01*
X1838189Y1610618D02*
X1842207D01*
X1838189Y1610078D02*
X1842207D01*
X1838189Y1609538D02*
X1842207D01*
X1838189Y1608998D02*
X1842207D01*
X1838189Y1608458D02*
X1842207D01*
X1838189Y1607918D02*
X1842207D01*
X1838189Y1607378D02*
X1842207D01*
X1838189Y1606838D02*
X1842207D01*
X1838189Y1606298D02*
X1842207D01*
X1838189Y1605758D02*
X1842207D01*
X1838189Y1605218D02*
X1842207D01*
X1838189Y1604678D02*
X1842207D01*
X1838189Y1604138D02*
X1842207D01*
X1838189Y1603598D02*
X1842207D01*
X1838189Y1603058D02*
X1842207D01*
X1838189Y1602518D02*
X1842207D01*
X1838189Y1601978D02*
X1842207D01*
X1838189Y1601438D02*
X1842207D01*
X1838189Y1600898D02*
X1842207D01*
X1838189Y1600358D02*
X1842207D01*
X1838189Y1599818D02*
X1842207D01*
X1838189Y1599278D02*
X1842207D01*
X1838189Y1598738D02*
X1842207D01*
X1838189Y1598198D02*
X1842207D01*
X1838189Y1597658D02*
X1842207D01*
X1838189Y1597118D02*
X1842207D01*
X1838189Y1596578D02*
X1842207D01*
X1838189Y1596038D02*
X1842207D01*
X1838189Y1595498D02*
X1842207D01*
X1838189Y1594958D02*
X1842207D01*
X1838189Y1594418D02*
X1842207D01*
X1838189Y1593878D02*
X1842207D01*
X1838189Y1593338D02*
X1842207D01*
X1838189Y1592798D02*
X1842207D01*
X1838189Y1592258D02*
X1842207D01*
X1838189Y1591718D02*
X1842207D01*
X1838189Y1591178D02*
X1842207D01*
X1838189Y1590638D02*
X1842207D01*
X1838189Y1590098D02*
X1842207D01*
X1838189Y1589558D02*
X1842207D01*
X1838189Y1589018D02*
X1842207D01*
X1838189Y1588478D02*
X1842207D01*
X1838189Y1587938D02*
X1842207D01*
X1838189Y1587398D02*
X1842207D01*
X1838189Y1586858D02*
X1842207D01*
X1838189Y1586318D02*
X1842207D01*
X1838189Y1585778D02*
X1842207D01*
X1838189Y1585238D02*
X1842207D01*
X1838189Y1584698D02*
X1842207D01*
X1838189Y1584158D02*
X1842207D01*
X1838189Y1583618D02*
X1842207D01*
X1838189Y1583078D02*
X1842207D01*
X1838189Y1582538D02*
X1842207D01*
X1838189Y1581998D02*
X1842207D01*
X1838189Y1581458D02*
X1842207D01*
X1838189Y1580918D02*
X1842207D01*
X1838189Y1580378D02*
X1842207D01*
X1838189Y1579838D02*
X1842207D01*
X1838189Y1579298D02*
X1842207D01*
X1838189Y1578758D02*
X1842207D01*
X1838189Y1578218D02*
X1842207D01*
X1838189Y1577678D02*
X1842207D01*
X1838189Y1577138D02*
X1842207D01*
X1838189Y1576598D02*
X1842207D01*
X1838189Y1576058D02*
X1842207D01*
X1838189Y1575518D02*
X1842207D01*
X1838189Y1574978D02*
X1842207D01*
X1838189Y1574438D02*
X1842207D01*
X1838189Y1573898D02*
X1842207D01*
X1838189Y1573358D02*
X1842207D01*
X1838189Y1572818D02*
X1842207D01*
X1838189Y1572278D02*
X1842207D01*
X1838189Y1571738D02*
X1842207D01*
X1838189Y1571198D02*
X1842207D01*
X1838189Y1570658D02*
X1842207D01*
X1838189Y1570118D02*
X1842207D01*
X1838189Y1569578D02*
X1842207D01*
X1838189Y1569038D02*
X1842207D01*
X1838189Y1568498D02*
X1842207D01*
X1838189Y1567958D02*
X1842207D01*
X1838189Y1567418D02*
X1842207D01*
X1838189Y1566878D02*
X1842207D01*
X1838189Y1566338D02*
X1842207D01*
X1838189Y1565798D02*
X1842207D01*
X1838189Y1565258D02*
X1842207D01*
X1838189Y1564718D02*
X1842207D01*
X1838189Y1564178D02*
X1842207D01*
X1838189Y1563638D02*
X1842207D01*
X1838189Y1563098D02*
X1842207D01*
X1838189Y1562558D02*
X1842207D01*
X1838189Y1562018D02*
X1842207D01*
X1838189Y1561478D02*
X1842207D01*
X1838189Y1560938D02*
X1842207D01*
X1838189Y1560398D02*
X1842207D01*
X1838189Y1554895D02*
X1842220D01*
X1838189Y1554355D02*
X1842220D01*
X1838189Y1553815D02*
X1842220D01*
X1838189Y1553275D02*
X1842220D01*
X1838189Y1552735D02*
X1842220D01*
X1838189Y1552195D02*
X1842220D01*
X1838189Y1551655D02*
X1842220D01*
X1838189Y1551115D02*
X1842220D01*
X1838189Y1550575D02*
X1842220D01*
X1838189Y1550035D02*
X1842220D01*
X1838189Y1549495D02*
X1842220D01*
X1838189Y1548955D02*
X1842220D01*
X1838189Y1548415D02*
X1842220D01*
X1838189Y1547875D02*
X1842220D01*
X1838189Y1547335D02*
X1842220D01*
X1838189Y1546795D02*
X1842220D01*
X1838189Y1546255D02*
X1842220D01*
X1838189Y1545715D02*
X1842220D01*
X1838189Y1545175D02*
X1842220D01*
X1838189Y1544635D02*
X1842220D01*
X1838189Y1544095D02*
X1842220D01*
X1838189Y1543555D02*
X1842220D01*
X1838189Y1543015D02*
X1842220D01*
X1838189Y1542475D02*
X1842220D01*
X1838189Y1541935D02*
X1842220D01*
X1838189Y1541395D02*
X1842220D01*
X1838189Y1540855D02*
X1842220D01*
X1838189Y1540315D02*
X1842220D01*
X1838189Y1539775D02*
X1842220D01*
X1838189Y1539235D02*
X1842220D01*
X1838189Y1538695D02*
X1842220D01*
X1838189Y1538155D02*
X1842220D01*
X1838189Y1537615D02*
X1842220D01*
X1838189Y1537075D02*
X1842220D01*
X1838189Y1536535D02*
X1842220D01*
X1838189Y1535995D02*
X1842220D01*
X1838189Y1535455D02*
X1842220D01*
X1838189Y1534915D02*
X1842220D01*
X1838189Y1534375D02*
X1842220D01*
X1838189Y1533835D02*
X1842220D01*
X1838189Y1533295D02*
X1842220D01*
X1838189Y1532755D02*
X1842220D01*
X1838189Y1532215D02*
X1842220D01*
X1838189Y1531675D02*
X1842220D01*
X1838189Y1531135D02*
X1842220D01*
X1838189Y1530595D02*
X1842220D01*
X1838189Y1530055D02*
X1842220D01*
X1838189Y1529515D02*
X1842220D01*
X1838189Y1528975D02*
X1842220D01*
X1838189Y1528435D02*
X1842220D01*
X1838189Y1527895D02*
X1842220D01*
X1838189Y1527355D02*
X1842220D01*
X1838189Y1526815D02*
X1842220D01*
X1838189Y1526275D02*
X1842220D01*
X1838189Y1525735D02*
X1842220D01*
X1838189Y1525195D02*
X1842220D01*
X1838189Y1524655D02*
X1842220D01*
X1838189Y1524115D02*
X1842220D01*
X1838189Y1523575D02*
X1842220D01*
X1838189Y1523035D02*
X1842220D01*
X1838189Y1522495D02*
X1842220D01*
X1838189Y1521955D02*
X1842220D01*
X1838189Y1521415D02*
X1842220D01*
X1838189Y1520875D02*
X1842220D01*
X1838189Y1520335D02*
X1842220D01*
X1838189Y1519795D02*
X1842220D01*
X1838189Y1519255D02*
X1842220D01*
X1838189Y1518715D02*
X1842220D01*
X1838189Y1518175D02*
X1842220D01*
X1838189Y1517635D02*
X1842220D01*
X1838189Y1517095D02*
X1842220D01*
X1838189Y1516555D02*
X1842220D01*
X1838189Y1516015D02*
X1842220D01*
X1838189Y1515475D02*
X1842220D01*
X1838189Y1514935D02*
X1842220D01*
X1838189Y1514395D02*
X1842220D01*
X1838189Y1513855D02*
X1842220D01*
X1838189Y1513315D02*
X1842220D01*
X1838189Y1512775D02*
X1842220D01*
X1838189Y1512235D02*
X1842220D01*
X1838189Y1511695D02*
X1842220D01*
X1838189Y1511155D02*
X1842220D01*
X1838189Y1510615D02*
X1842220D01*
X1838189Y1510075D02*
X1842220D01*
X1838189Y1509535D02*
X1842220D01*
X1838189Y1508995D02*
X1842220D01*
X1838189Y1508455D02*
X1842220D01*
X1838189Y1507915D02*
X1842220D01*
X1838189Y1507375D02*
X1842220D01*
X1838189Y1506835D02*
X1842220D01*
X1838189Y1506295D02*
X1842220D01*
X1838189Y1505755D02*
X1842220D01*
X1838189Y1505215D02*
X1842220D01*
X1838189Y1504675D02*
X1842220D01*
X1838189Y1504135D02*
X1842220D01*
X1838189Y1503595D02*
X1842220D01*
X1838189Y1503055D02*
X1842220D01*
X1838189Y1502515D02*
X1842220D01*
X1838189Y1501975D02*
X1842220D01*
X1838189Y1501435D02*
X1842220D01*
X1838189Y1500895D02*
X1842220D01*
X1838189Y1500355D02*
X1842220D01*
X1838189Y1499815D02*
X1842220D01*
X1838189Y1499275D02*
X1842220D01*
X1838189Y1498735D02*
X1842220D01*
X1838189Y1498195D02*
X1842220D01*
X1838189Y1497655D02*
X1842220D01*
X1838189Y1497115D02*
X1842220D01*
X1838189Y1496575D02*
X1842220D01*
X1838189Y1496035D02*
X1842220D01*
X1838189Y1495495D02*
X1842220D01*
X1972638Y1464418D02*
X1994109D01*
X1972638Y1463878D02*
X1994109D01*
X1972638Y1463338D02*
X1994109D01*
X1972638Y1462798D02*
X1994109D01*
X1972638Y1462258D02*
X1994109D01*
X1972638Y1461718D02*
X1994109D01*
X1972638Y1461178D02*
X1994109D01*
G54D130*
X2114311Y1524586D03*
Y1527786D03*
X2100128Y1704384D03*
Y1707584D03*
X1882011Y1683186D03*
Y1679986D03*
X1915311Y1711886D03*
Y1715086D03*
X2109411Y1500486D03*
Y1503686D03*
X1886911Y1687786D03*
Y1690986D03*
X1821441Y1712684D03*
Y1715884D03*
X1910611Y1715086D03*
Y1711886D03*
X1890911Y1629686D03*
Y1626486D03*
X1891011Y1565486D03*
Y1562286D03*
X1891111Y1502686D03*
Y1499486D03*
X1886911Y1683186D03*
Y1679986D03*
X1886411Y1635886D03*
Y1639086D03*
X1896611Y1647586D03*
Y1650786D03*
X1890811Y1635886D03*
Y1639086D03*
X1931611Y1634286D03*
Y1631086D03*
X1945911Y1631286D03*
Y1628086D03*
X1957911Y1631286D03*
Y1628086D03*
X1945911Y1619986D03*
Y1616786D03*
X1957911Y1619986D03*
Y1616786D03*
X1945711Y1604086D03*
Y1600886D03*
X1957911Y1604086D03*
Y1600886D03*
X1957711Y1589686D03*
Y1586486D03*
X1897211Y1584286D03*
Y1587486D03*
X1886411Y1571986D03*
Y1575186D03*
X1890911Y1571986D03*
Y1575186D03*
X1978511Y1571686D03*
Y1568486D03*
X1986095Y1572490D03*
Y1569290D03*
X1896811Y1519486D03*
Y1522686D03*
X1891111Y1507486D03*
Y1510686D03*
X1886411Y1507486D03*
Y1510686D03*
X1873911Y1507486D03*
Y1510686D03*
X1874411Y1571986D03*
Y1575186D03*
X1907311Y1599486D03*
Y1602686D03*
X1923711Y1599486D03*
Y1602686D03*
X1924411Y1468986D03*
Y1472186D03*
X1907311Y1533086D03*
Y1536286D03*
X1924011Y1533086D03*
Y1536286D03*
X1907711Y1468986D03*
Y1472186D03*
X1874211Y1635986D03*
Y1639186D03*
X1832911Y1492586D03*
Y1495786D03*
X1833111Y1557486D03*
Y1560686D03*
X1832511Y1621386D03*
Y1624586D03*
X1894211Y1615386D03*
Y1612186D03*
X1902811Y1615286D03*
Y1612086D03*
X1893911Y1548886D03*
Y1545686D03*
X1902711Y1548886D03*
Y1545686D03*
X1894311Y1484786D03*
Y1481586D03*
X1903011Y1484786D03*
Y1481586D03*
X1953011Y1589686D03*
Y1586486D03*
X1986095Y1559690D03*
Y1556490D03*
X1869611Y1635986D03*
Y1632786D03*
X1901211Y1650786D03*
Y1647586D03*
X1914711Y1646286D03*
Y1649486D03*
X1914611Y1628586D03*
Y1631786D03*
X1926811Y1628586D03*
Y1631786D03*
X1931611Y1642086D03*
Y1638886D03*
X1869111Y1507486D03*
Y1504286D03*
X1929611Y1587486D03*
Y1590686D03*
X1901811Y1587486D03*
Y1584286D03*
X1869711Y1571986D03*
Y1568786D03*
X1916411Y1582786D03*
Y1585986D03*
X1917411Y1568786D03*
Y1571986D03*
X1929611Y1568786D03*
Y1571986D03*
X1915311Y1516186D03*
Y1519386D03*
X1928011Y1503786D03*
Y1506986D03*
X1915411Y1503786D03*
Y1506986D03*
X1901611Y1522686D03*
Y1519486D03*
X1894211Y1602786D03*
Y1599586D03*
X1902811Y1602686D03*
Y1599486D03*
X1919311Y1602686D03*
Y1599486D03*
X1919811Y1472186D03*
Y1468986D03*
X1893911Y1536386D03*
Y1533186D03*
X1902811Y1536286D03*
Y1533086D03*
X1919511Y1536286D03*
Y1533086D03*
X1903011Y1472186D03*
Y1468986D03*
X1894311Y1472486D03*
Y1469286D03*
X1973611Y1563686D03*
Y1560486D03*
G54D131*
X1898011Y1709286D03*
X1901211D03*
X1967311Y1493386D03*
X1970511D03*
X2164949Y1491769D03*
X2161749D03*
X1902511Y1694586D03*
X1899311D03*
X2182425Y1492540D03*
X2179225D03*
X2122111Y1531686D03*
X2118911D03*
X2122111Y1535686D03*
X2118911D03*
X1899311Y1699286D03*
X1902511D03*
X2112994Y1518220D03*
X2109794D03*
X1891011Y1622086D03*
X1887811D03*
X1891111Y1557786D03*
X1887911D03*
X1891211Y1494686D03*
X1888011D03*
X2148601Y1490905D03*
X2145401D03*
X2152101Y1509767D03*
X2155301D03*
X2164911Y1496286D03*
X2161711D03*
X2113000Y1513720D03*
X2109800D03*
X2155746Y1490905D03*
X2152546D03*
X2148301Y1509767D03*
X2145101D03*
X2164911Y1504286D03*
X2161711D03*
X1892311Y1690586D03*
X1895511D03*
X1899311D03*
X1902511D03*
X2054211Y1600686D03*
X2057411D03*
X2054211Y1596686D03*
X2057411D03*
X2161711Y1500286D03*
X2164911D03*
X2064711Y1600686D03*
X2067911D03*
X2064711Y1596686D03*
X2067911D03*
X2125911Y1581186D03*
X2122711D03*
X1908911Y1647886D03*
X1905711D03*
X1914711Y1641786D03*
X1917911D03*
X1965511Y1631286D03*
X1962311D03*
X1881811Y1635886D03*
X1878611D03*
X1856711Y1621286D03*
X1853511D03*
X1901611Y1622986D03*
X1898411D03*
X1908911D03*
X1905711D03*
X1866611Y1614486D03*
X1869811D03*
X1886411Y1615386D03*
X1889611D03*
X1907511Y1615286D03*
X1910711D03*
X1965511Y1619986D03*
X1962311D03*
X1965511Y1604086D03*
X1962311D03*
X1953011Y1581986D03*
X1956211D03*
X1965311Y1589686D03*
X1962111D03*
X1882011Y1571986D03*
X1878811D03*
X1902611Y1559586D03*
X1899411D03*
X1856611Y1557386D03*
X1853411D03*
X1866711Y1548986D03*
X1869911D03*
X1885911Y1548886D03*
X1889111D03*
X1909811Y1584586D03*
X1906611D03*
X1932811Y1580686D03*
X1929611D03*
X1916411Y1578386D03*
X1919611D03*
X1909811Y1559586D03*
X1906611D03*
X1907311Y1548886D03*
X1910511D03*
X1909311Y1519786D03*
X1906111D03*
X1973711Y1568586D03*
X1970511D03*
X1986095Y1564690D03*
X1982895D03*
X1973611Y1555886D03*
X1970411D03*
X1986095Y1551490D03*
X1982895D03*
X1915311Y1511686D03*
X1918511D03*
X1909511Y1495686D03*
X1906311D03*
X1902011D03*
X1898811D03*
X1907511Y1484786D03*
X1910711D03*
X1865811Y1484686D03*
X1869011D03*
X1886511Y1484786D03*
X1889711D03*
X1881711Y1507486D03*
X1878511D03*
X1857511Y1492486D03*
X1854311D03*
X1869111Y1499886D03*
X1865911D03*
X1858511Y1628586D03*
X1861711D03*
X1859011Y1613786D03*
X1862211D03*
X1891011Y1607386D03*
X1894211D03*
X1902811Y1607486D03*
X1906011D03*
X1859111Y1564886D03*
X1862311D03*
X1859111Y1549086D03*
X1862311D03*
X1890711Y1540986D03*
X1893911D03*
X1902711D03*
X1905911D03*
X1903011Y1476886D03*
X1906211D03*
X1891111D03*
X1894311D03*
X1858311Y1499886D03*
X1861511D03*
X1858311Y1484686D03*
X1861511D03*
X1869911Y1564386D03*
X1866711D03*
X1869611Y1628286D03*
X1866411D03*
X1953511Y1619986D03*
X1950311D03*
X1917911Y1653886D03*
X1914711D03*
X1922411Y1631786D03*
X1919211D03*
X1937011Y1631286D03*
X1940211D03*
X1828111Y1621386D03*
X1824911D03*
X1920411Y1615086D03*
X1923611D03*
X1828511Y1557486D03*
X1825311D03*
X1919611Y1590486D03*
X1916411D03*
X1940411Y1580686D03*
X1937211D03*
X1925111Y1571986D03*
X1921911D03*
X1918511Y1523986D03*
X1915311D03*
X1923311Y1506986D03*
X1920111D03*
X1828411Y1492486D03*
X1825211D03*
X1861711Y1633086D03*
X1858511D03*
X1862211Y1609286D03*
X1859011D03*
X1911711Y1599486D03*
X1914911D03*
X1911711Y1603986D03*
X1914911D03*
X1862311Y1569486D03*
X1859111D03*
X1912111Y1473486D03*
X1915311D03*
X1862311Y1544486D03*
X1859111D03*
X1911811Y1533086D03*
X1915011D03*
X1911911Y1537686D03*
X1915111D03*
X1861511Y1504386D03*
X1858311D03*
X1861511Y1480386D03*
X1858311D03*
X1912111Y1468986D03*
X1915311D03*
X1953511Y1604086D03*
X1950311D03*
X1953511Y1631286D03*
X1950311D03*
X1967311Y1498186D03*
X1970511D03*
G54D132*
X2121572Y1513687D03*
X2127772D03*
X1898011Y1715086D03*
X1904211D03*
X2086367Y1704410D03*
X2092567D03*
X2118187Y1697558D03*
X2111987D03*
X2112110Y1704424D03*
X2118310D03*
X1908764Y1699268D03*
X1914964D03*
X2149352Y1523632D03*
X2143152D03*
G54D133*
X1894197Y1672768D03*
X1905197D03*
X1894911Y1734686D03*
X1883911D03*
X1894911Y1724186D03*
X1883911D03*
G54D137*
X1821511Y1472386D03*
X1831511D03*
X1841511D03*
G54D141*
X2120536Y1470812D03*
Y1478312D03*
G54D145*
X2155611Y1496986D03*
Y1500686D03*
Y1504386D03*
X2145411D03*
Y1500686D03*
Y1496986D03*
G54D150*
X2168569Y1481749D03*
Y1475549D03*
X2129311Y1533286D03*
Y1527086D03*
X2105714Y1704411D03*
Y1710611D03*
X2115111Y1507786D03*
Y1501586D03*
X2086259Y1697868D03*
Y1691668D03*
G54D151*
X1998805Y1469606D03*
X1997005D03*
Y1466606D03*
X1998805D03*
X1825411Y1535686D03*
Y1537486D03*
X1819511Y1590486D03*
X1817711D03*
X1813011D03*
X1814811D03*
X1825211Y1519486D03*
X1827011D03*
X1825211Y1522486D03*
X1827011D03*
X1825411Y1542386D03*
Y1540586D03*
X2041211Y1664386D03*
Y1666186D03*
X2038611Y1664386D03*
Y1666186D03*
X2033111Y1659686D03*
Y1661486D03*
X2035611Y1659686D03*
Y1661486D03*
X2015911Y1668286D03*
Y1670086D03*
X1878118Y1676806D03*
Y1675006D03*
X1819811Y1707086D03*
X1821611D03*
X2006411Y1496786D03*
X2008211D03*
X2111211D03*
X2109411D03*
X1989247Y1731761D03*
Y1729961D03*
X1876611Y1712686D03*
X1874811D03*
X1825311D03*
Y1714486D03*
X2023234Y1681153D03*
X2021434D03*
X2020143Y1716834D03*
X2021943D03*
X2027280Y1701847D03*
X2025480D03*
X1974366Y1665830D03*
Y1667630D03*
X2021307Y1688233D03*
X2023107D03*
X2025365Y1694908D03*
X2027165D03*
X2020427Y1708952D03*
X2022227D03*
X1944016Y1705506D03*
X1942216D03*
X1823211Y1580186D03*
X1821411D03*
X1830011Y1540586D03*
X1828211D03*
X1830011Y1537586D03*
X1828211D03*
X1830511Y1578186D03*
X1828711D03*
X2038611Y1661386D03*
Y1659586D03*
X2041111Y1661386D03*
Y1659586D03*
X1821411Y1577286D03*
Y1575486D03*
X1953511Y1672686D03*
X1951711D03*
X1944011Y1671086D03*
X1942211D03*
X1951811Y1694086D03*
X1953611D03*
X1951711Y1690586D03*
X1953511D03*
X1942311Y1692286D03*
X1944111D03*
X1951711Y1686986D03*
X1953511D03*
X1942411Y1688686D03*
X1944211D03*
X2019011Y1668286D03*
Y1670086D03*
X2025111D03*
Y1668286D03*
X2028111Y1670086D03*
Y1668286D03*
X2023611Y1661586D03*
Y1659786D03*
X2026611Y1661586D03*
Y1659786D03*
X2029611Y1661586D03*
Y1659786D03*
X1946611Y1678586D03*
X1944811D03*
X1854911Y1733186D03*
Y1734986D03*
X1851911Y1733186D03*
Y1734986D03*
X1948725Y1668165D03*
X1946925D03*
X1958411Y1704186D03*
X1956611D03*
X1958411Y1700886D03*
X1956611D03*
X1948811Y1699186D03*
X1947011D03*
X1958311Y1697486D03*
X1956511D03*
X1948911Y1695786D03*
X1947111D03*
X1958411Y1694086D03*
X1956611D03*
X1958111Y1686986D03*
X1956311D03*
X1948911Y1688686D03*
X1947111D03*
X1958111Y1690586D03*
X1956311D03*
X1948911Y1692286D03*
X1947111D03*
X1953711Y1704186D03*
X1951911D03*
X1953711Y1700886D03*
X1951911D03*
X1944111Y1699186D03*
X1942311D03*
X1953611Y1697486D03*
X1951811D03*
X1944311Y1695786D03*
X1942511D03*
X1944011Y1702586D03*
X1942211D03*
X1948611D03*
X1946811D03*
X1953511Y1683286D03*
X1951711D03*
X1944211Y1685186D03*
X1942411D03*
X1937511Y1702586D03*
X1939311D03*
X1944311Y1681486D03*
X1942511D03*
X1958211Y1679686D03*
X1956411D03*
X1943911Y1674586D03*
X1942111D03*
X1953411Y1676386D03*
X1951611D03*
X1827011Y1529786D03*
X1825211D03*
X1827011Y1526786D03*
X1825211D03*
X2078911Y1666686D03*
X2080711D03*
X2078911Y1663686D03*
X2080711D03*
X2084411Y1665186D03*
X2086211D03*
X2084411Y1668186D03*
X2086211D03*
X2078911Y1660686D03*
X2080711D03*
X2084411Y1659186D03*
X2086211D03*
X2084411Y1662186D03*
X2086211D03*
X2078911Y1657686D03*
X2080711D03*
X2084411Y1652686D03*
X2086211D03*
X2084411Y1646686D03*
X2086211D03*
X2084411Y1649686D03*
X2086211D03*
X2078911Y1638686D03*
X2080711D03*
X2084411Y1643686D03*
X2086211D03*
X2053411Y1634186D03*
X2055211D03*
X2057911Y1632686D03*
X2059711D03*
X2078911D03*
X2080711D03*
X2078911Y1635686D03*
X2080711D03*
X2084411Y1634186D03*
X2086211D03*
X2084411Y1637186D03*
X2086211D03*
X2053411Y1628186D03*
X2055211D03*
X2053411Y1631186D03*
X2055211D03*
X2057911Y1629686D03*
X2059711D03*
X2057911Y1626686D03*
X2059711D03*
X2078911Y1629686D03*
X2080711D03*
X2084411Y1628186D03*
X2086211D03*
X2084411Y1631186D03*
X2086211D03*
X2053411Y1625186D03*
X2055211D03*
X2053411Y1622186D03*
X2055211D03*
X2057911Y1620686D03*
X2059711D03*
X2057911Y1623686D03*
X2059711D03*
X2093911Y1619186D03*
X2095711D03*
X2093911Y1622186D03*
X2095711D03*
X2099411Y1620686D03*
X2101211D03*
X2053411Y1617686D03*
X2055211D03*
X2053411Y1614686D03*
X2055211D03*
X2057911Y1616186D03*
X2059711D03*
X2057911Y1613186D03*
X2059711D03*
X2093911D03*
X2095711D03*
X2093911Y1616186D03*
X2095711D03*
X2099411Y1614686D03*
X2101211D03*
X2099411Y1617686D03*
X2101211D03*
X2053411Y1608686D03*
X2055211D03*
X2053411Y1611686D03*
X2055211D03*
X2057911Y1610186D03*
X2059711D03*
X2057911Y1607186D03*
X2059711D03*
X2093911Y1610186D03*
X2095711D03*
X2093911Y1607186D03*
X2095711D03*
X2099411Y1608686D03*
X2101211D03*
X2099411Y1611686D03*
X2101211D03*
X2053411Y1605686D03*
X2055211D03*
X2057911Y1604186D03*
X2059711D03*
X2093911Y1601186D03*
X2095711D03*
X2093911Y1604186D03*
X2095711D03*
X2099411Y1602686D03*
X2101211D03*
X2099411Y1605686D03*
X2101211D03*
X2093911Y1598186D03*
X2095711D03*
X2093911Y1595186D03*
X2095711D03*
X2099411Y1596686D03*
X2101211D03*
X2099411Y1599686D03*
X2101211D03*
X2053411Y1589686D03*
X2055211D03*
X2093911Y1592186D03*
X2095711D03*
X2078911Y1576686D03*
X2080711D03*
X2084411Y1575186D03*
X2086211D03*
X2084411Y1578186D03*
X2086211D03*
X2078911Y1570686D03*
X2080711D03*
X2078911Y1573686D03*
X2080711D03*
X2084411Y1569186D03*
X2086211D03*
X2084411Y1572186D03*
X2086211D03*
X2078911Y1567686D03*
X2080711D03*
X2084411Y1562686D03*
X2086211D03*
X2084411Y1557186D03*
X2086211D03*
X2084411Y1554686D03*
X2086211D03*
X2084411Y1559686D03*
X2086211D03*
X2078911Y1545686D03*
X2080711D03*
X2078911Y1548686D03*
X2080711D03*
X2084411Y1544186D03*
X2086211D03*
X2084411Y1547186D03*
X2086211D03*
X2078911Y1539686D03*
X2080711D03*
X2078911Y1542686D03*
X2080711D03*
X2084411Y1538186D03*
X2086211D03*
X2084411Y1541186D03*
X2086211D03*
X2120322Y1527974D03*
X2122122D03*
X2099411Y1593686D03*
X2101211D03*
X1946911Y1671086D03*
X1948711D03*
X1956411Y1672686D03*
X1958211D03*
X2033111Y1664486D03*
Y1666286D03*
X2035611Y1664486D03*
Y1666286D03*
X2045011Y1469586D03*
Y1467786D03*
X2035111Y1469586D03*
Y1467786D03*
X1974999Y1457000D03*
X1976799D03*
X1824711Y1667786D03*
Y1665986D03*
X1827711D03*
X1829511D03*
X2014991Y1467786D03*
Y1469586D03*
X2002371Y1523549D03*
X2000571D03*
X1938608Y1683287D03*
X1936808D03*
X2006711Y1510486D03*
X2008511D03*
X2006711Y1513786D03*
X2008511D03*
X2001311Y1510486D03*
X2003111D03*
X2001311Y1513786D03*
X2003111D03*
X2006711Y1507486D03*
X2008511D03*
X2006711Y1504486D03*
X2008511D03*
X2001311D03*
X2003111D03*
X2001311Y1507486D03*
X2003111D03*
X2006711Y1490286D03*
X2008511D03*
X2006711Y1487286D03*
X2008511D03*
X2000411D03*
X2002211D03*
X2000411Y1490286D03*
X2002211D03*
X2006711Y1484286D03*
X2008511D03*
X2006711Y1481286D03*
X2008511D03*
X2000411D03*
X2002211D03*
X2000411Y1484286D03*
X2002211D03*
X1951711Y1679686D03*
X1953511D03*
X1947111Y1681486D03*
X1948911D03*
X1956311Y1683286D03*
X1958111D03*
X1947011Y1685186D03*
X1948811D03*
X1946911Y1674586D03*
X1948711D03*
X1956511Y1676386D03*
X1958311D03*
X2065050Y1468069D03*
X2063250D03*
X2075014D03*
X2073214D03*
X2085010Y1468102D03*
X2083210D03*
X2004981Y1467786D03*
Y1469586D03*
X2024949D03*
Y1467786D03*
X1820411Y1669986D03*
Y1671786D03*
Y1678586D03*
Y1676786D03*
X1821411Y1583086D03*
Y1584886D03*
X1830511Y1575286D03*
X1828711D03*
Y1580986D03*
Y1582786D03*
X1831111Y1642486D03*
X1832911D03*
X1831111Y1639586D03*
X1832911D03*
X1820011Y1607086D03*
X1818211D03*
X1820011Y1604186D03*
X1818211D03*
X1814811Y1595186D03*
Y1593386D03*
X1817711Y1595186D03*
Y1593386D03*
X1968111Y1643986D03*
X1969911D03*
X1963411Y1648186D03*
X1965211D03*
X1968111Y1650086D03*
X1969911D03*
X1963411Y1651586D03*
X1965211D03*
X1968011Y1653386D03*
X1969811D03*
X1963411Y1642286D03*
X1965211D03*
X1985611Y1652886D03*
X1983811D03*
X1988811D03*
X1990611D03*
X1938192Y1708396D03*
X1936392D03*
X1938192Y1705370D03*
X1936392D03*
X1879603Y1701805D03*
X1881403D03*
X2109057Y1486962D03*
X2107257D03*
G54D152*
X1897971Y1484816D03*
X1899451D03*
X1897571Y1548916D03*
X1899051D03*
X1897771Y1615316D03*
X1899251D03*
G54D153*
X1898711Y1487156D03*
X1898311Y1551256D03*
X1898511Y1617656D03*
G54D154*
X2007743Y1721724D03*
X2005775D03*
X2003806D03*
X2001838D03*
X1999869D03*
X1997901D03*
X1995932D03*
X1993964D03*
X1991995D03*
X1990027D03*
X1988058D03*
X1986090D03*
X1984121D03*
X1982153D03*
X1980184D03*
X1978216D03*
X1976247D03*
X1974279D03*
Y1676448D03*
X1976247D03*
X1978216D03*
X1980184D03*
X1982153D03*
X1984121D03*
X1986090D03*
X1988058D03*
X1990027D03*
X1991995D03*
X1993964D03*
X1995932D03*
X1997901D03*
X1999869D03*
X2001838D03*
X2003806D03*
X2005775D03*
X2007743D03*
X2008728Y1719165D03*
X2006759D03*
X2004791D03*
X2002822D03*
X2000854D03*
X1998885D03*
X1996917D03*
X1994948D03*
X1992980D03*
X1991011D03*
X1989043D03*
X1987074D03*
X1985106D03*
X1983137D03*
X1981169D03*
X1979200D03*
X1977231D03*
X1975263D03*
X1973294D03*
X1975263Y1679007D03*
X1977231D03*
X1979200D03*
X1981169D03*
X1983137D03*
X1985106D03*
X1987074D03*
X1989043D03*
X1991011D03*
X1992980D03*
X1994948D03*
X1996917D03*
X1998885D03*
X2000854D03*
X2002822D03*
X2004791D03*
X2006759D03*
X2008728D03*
X1972310Y1676448D03*
G54D155*
X2013649Y1682354D03*
Y1684322D03*
Y1686291D03*
Y1688259D03*
Y1690228D03*
Y1692196D03*
Y1694165D03*
Y1696133D03*
Y1698102D03*
Y1700070D03*
Y1702039D03*
Y1704007D03*
Y1705976D03*
Y1707944D03*
Y1709913D03*
Y1711881D03*
Y1713850D03*
Y1715818D03*
X1968373D03*
Y1713850D03*
Y1711881D03*
Y1709913D03*
Y1707944D03*
Y1705976D03*
Y1704007D03*
Y1702039D03*
Y1700070D03*
Y1698102D03*
Y1696133D03*
Y1694165D03*
Y1692196D03*
Y1690228D03*
Y1688259D03*
Y1686291D03*
Y1684322D03*
Y1682354D03*
X2011090Y1681369D03*
Y1683338D03*
Y1685306D03*
Y1687275D03*
Y1689244D03*
Y1691212D03*
Y1693181D03*
Y1695149D03*
Y1697118D03*
Y1699086D03*
Y1701055D03*
Y1703023D03*
Y1704992D03*
Y1706960D03*
Y1708929D03*
Y1710897D03*
Y1712866D03*
Y1714834D03*
Y1716803D03*
X1970932D03*
Y1714834D03*
Y1712866D03*
Y1710897D03*
Y1708929D03*
Y1706960D03*
Y1704992D03*
Y1703023D03*
Y1701055D03*
Y1699086D03*
Y1697118D03*
Y1695149D03*
Y1693181D03*
Y1691212D03*
Y1689244D03*
Y1687275D03*
Y1685306D03*
Y1683338D03*
X1968373Y1680385D03*
G54D156*
X1992074Y1698023D03*
G54D158*
X2095264Y1545588D03*
Y1548737D03*
Y1551887D03*
Y1564485D03*
Y1567635D03*
Y1570784D03*
X2098413Y1545588D03*
Y1548737D03*
Y1551887D03*
Y1564485D03*
Y1567635D03*
Y1570784D03*
X2101563Y1545588D03*
Y1548737D03*
Y1551887D03*
Y1564485D03*
Y1567635D03*
Y1570784D03*
X2104713Y1545588D03*
Y1548737D03*
Y1551887D03*
Y1564485D03*
Y1567635D03*
Y1570784D03*
X2107862Y1545588D03*
Y1548737D03*
Y1551887D03*
Y1564485D03*
Y1567635D03*
Y1570784D03*
X2111012Y1545588D03*
Y1548737D03*
Y1551887D03*
Y1564485D03*
Y1567635D03*
Y1570784D03*
X2114161Y1545588D03*
Y1548737D03*
Y1551887D03*
Y1564485D03*
Y1567635D03*
Y1570784D03*
X2117311Y1545588D03*
Y1548737D03*
Y1551887D03*
Y1564485D03*
Y1567635D03*
Y1570784D03*
X2120461Y1545588D03*
Y1548737D03*
Y1551887D03*
Y1564485D03*
Y1567635D03*
Y1570784D03*
X2123610Y1548737D03*
Y1551887D03*
Y1564485D03*
Y1567635D03*
Y1570784D03*
X2126760Y1545588D03*
Y1548737D03*
Y1551887D03*
Y1564485D03*
Y1567635D03*
X2129909Y1548737D03*
Y1551887D03*
Y1564485D03*
Y1567635D03*
Y1570784D03*
X2133059Y1545588D03*
Y1548737D03*
Y1551887D03*
Y1564485D03*
Y1567635D03*
X2136209Y1548737D03*
Y1551887D03*
Y1564485D03*
Y1567635D03*
Y1570784D03*
X2139358Y1545588D03*
Y1548737D03*
Y1551887D03*
Y1564485D03*
Y1567635D03*
X2095264Y1635588D03*
Y1638737D03*
Y1641887D03*
Y1654485D03*
Y1657635D03*
Y1660784D03*
X2098413Y1635588D03*
Y1638737D03*
Y1641887D03*
Y1654485D03*
Y1657635D03*
Y1660784D03*
X2101563Y1635588D03*
Y1638737D03*
Y1641887D03*
Y1654485D03*
Y1657635D03*
Y1660784D03*
X2104713Y1635588D03*
Y1638737D03*
Y1641887D03*
Y1654485D03*
Y1657635D03*
Y1660784D03*
X2107862Y1635588D03*
Y1638737D03*
Y1641887D03*
Y1654485D03*
Y1657635D03*
Y1660784D03*
X2111012Y1635588D03*
Y1638737D03*
Y1641887D03*
Y1654485D03*
Y1657635D03*
Y1660784D03*
X2114161Y1635588D03*
Y1638737D03*
Y1641887D03*
Y1654485D03*
Y1657635D03*
Y1660784D03*
X2117311Y1635588D03*
Y1638737D03*
Y1641887D03*
Y1654485D03*
Y1657635D03*
Y1660784D03*
X2120461Y1635588D03*
Y1638737D03*
Y1641887D03*
Y1654485D03*
Y1657635D03*
Y1660784D03*
X2123610Y1638737D03*
Y1641887D03*
Y1654485D03*
Y1657635D03*
Y1660784D03*
X2126760Y1635588D03*
Y1638737D03*
Y1641887D03*
Y1654485D03*
Y1657635D03*
X2129909Y1638737D03*
Y1641887D03*
Y1654485D03*
Y1657635D03*
Y1660784D03*
X2133059Y1635588D03*
Y1638737D03*
Y1641887D03*
Y1654485D03*
Y1657635D03*
X2136209Y1638737D03*
Y1641887D03*
Y1654485D03*
Y1657635D03*
Y1660784D03*
X2139358Y1635588D03*
Y1638737D03*
Y1641887D03*
Y1654485D03*
Y1657635D03*
G54D159*
X2136561Y1482380D03*
Y1470780D03*
G54D162*
X1978543Y1579418D03*
Y1581977D03*
Y1584536D03*
Y1587095D03*
Y1589655D03*
Y1592214D03*
Y1594773D03*
Y1597332D03*
Y1599891D03*
Y1602450D03*
Y1605009D03*
Y1607568D03*
Y1615245D03*
Y1617804D03*
Y1620363D03*
Y1622922D03*
Y1625481D03*
Y1628040D03*
Y1630599D03*
Y1633158D03*
Y1635718D03*
Y1638277D03*
Y1640836D03*
Y1643395D03*
Y1645954D03*
X1981102Y1579418D03*
Y1581977D03*
Y1584536D03*
Y1602450D03*
Y1605009D03*
Y1607568D03*
Y1612686D03*
Y1620363D03*
Y1628040D03*
Y1630599D03*
Y1633158D03*
Y1635718D03*
Y1638277D03*
Y1640836D03*
Y1643395D03*
Y1645954D03*
X1983661Y1579418D03*
Y1584536D03*
Y1587095D03*
Y1589655D03*
Y1592214D03*
Y1594773D03*
Y1605009D03*
Y1607568D03*
Y1612686D03*
Y1615245D03*
Y1617804D03*
Y1620363D03*
Y1628040D03*
Y1630599D03*
Y1633158D03*
Y1635718D03*
Y1638277D03*
Y1640836D03*
Y1643395D03*
Y1645954D03*
X1986220Y1579418D03*
Y1584536D03*
Y1640836D03*
Y1643395D03*
Y1645954D03*
X1988780Y1579418D03*
Y1584536D03*
Y1640836D03*
Y1643395D03*
Y1645954D03*
X1991339Y1579418D03*
Y1581977D03*
Y1584536D03*
Y1640836D03*
Y1643395D03*
Y1645954D03*
X1993898Y1579418D03*
Y1584536D03*
Y1587095D03*
Y1640836D03*
Y1643395D03*
Y1645954D03*
X1996457Y1579418D03*
Y1581977D03*
Y1584536D03*
Y1640836D03*
Y1643395D03*
Y1645954D03*
X1999016Y1579418D03*
Y1581977D03*
Y1584536D03*
Y1599891D03*
Y1602450D03*
Y1605009D03*
Y1607568D03*
Y1610127D03*
Y1612686D03*
Y1615245D03*
Y1617804D03*
Y1620363D03*
Y1622922D03*
Y1625481D03*
Y1640836D03*
Y1643395D03*
Y1645954D03*
X2001575Y1579418D03*
Y1581977D03*
Y1584536D03*
Y1599891D03*
Y1602450D03*
Y1605009D03*
Y1607568D03*
Y1610127D03*
Y1612686D03*
Y1615245D03*
Y1617804D03*
Y1620363D03*
Y1622922D03*
Y1625481D03*
Y1640836D03*
Y1643395D03*
Y1645954D03*
X2004134Y1579418D03*
Y1581977D03*
Y1584536D03*
Y1587095D03*
Y1599891D03*
Y1602450D03*
Y1605009D03*
Y1607568D03*
Y1610127D03*
Y1612686D03*
Y1615245D03*
Y1617804D03*
Y1620363D03*
Y1622922D03*
Y1625481D03*
Y1640836D03*
Y1643395D03*
Y1645954D03*
X2006693Y1579418D03*
Y1581977D03*
Y1584536D03*
Y1599891D03*
Y1602450D03*
Y1605009D03*
Y1607568D03*
Y1610127D03*
Y1612686D03*
Y1615245D03*
Y1617804D03*
Y1620363D03*
Y1622922D03*
Y1625481D03*
Y1640836D03*
Y1643395D03*
Y1645954D03*
X2009252Y1579418D03*
Y1581977D03*
Y1584536D03*
Y1587095D03*
Y1599891D03*
Y1602450D03*
Y1605009D03*
Y1607568D03*
Y1610127D03*
Y1612686D03*
Y1615245D03*
Y1617804D03*
Y1620363D03*
Y1622922D03*
Y1625481D03*
Y1640836D03*
Y1643395D03*
Y1645954D03*
X2011811Y1579418D03*
Y1581977D03*
Y1584536D03*
Y1587095D03*
Y1599891D03*
Y1602450D03*
Y1605009D03*
Y1607568D03*
Y1610127D03*
Y1612686D03*
Y1615245D03*
Y1617804D03*
Y1620363D03*
Y1622922D03*
Y1625481D03*
Y1640836D03*
Y1643395D03*
Y1645954D03*
X2014370Y1579418D03*
Y1581977D03*
Y1584536D03*
Y1587095D03*
Y1599891D03*
Y1602450D03*
Y1605009D03*
Y1607568D03*
Y1610127D03*
Y1612686D03*
Y1615245D03*
Y1617804D03*
Y1620363D03*
Y1622922D03*
Y1625481D03*
Y1640836D03*
Y1643395D03*
Y1645954D03*
X2016929Y1579418D03*
Y1581977D03*
Y1584536D03*
Y1599891D03*
Y1602450D03*
Y1605009D03*
Y1607568D03*
Y1610127D03*
Y1612686D03*
Y1615245D03*
Y1617804D03*
Y1620363D03*
Y1622922D03*
Y1625481D03*
Y1640836D03*
Y1643395D03*
Y1645954D03*
X2019488Y1579418D03*
Y1581977D03*
Y1584536D03*
Y1587095D03*
Y1599891D03*
Y1602450D03*
Y1605009D03*
Y1607568D03*
Y1610127D03*
Y1612686D03*
Y1615245D03*
Y1617804D03*
Y1620363D03*
Y1622922D03*
Y1625481D03*
Y1640836D03*
Y1643395D03*
Y1645954D03*
X2022047Y1579418D03*
Y1581977D03*
Y1584536D03*
Y1587095D03*
Y1599891D03*
Y1602450D03*
Y1605009D03*
Y1607568D03*
Y1610127D03*
Y1612686D03*
Y1615245D03*
Y1617804D03*
Y1620363D03*
Y1622922D03*
Y1625481D03*
Y1640836D03*
Y1643395D03*
Y1645954D03*
X2024606Y1579418D03*
Y1581977D03*
Y1584536D03*
Y1587095D03*
Y1599891D03*
Y1602450D03*
Y1605009D03*
Y1607568D03*
Y1610127D03*
Y1612686D03*
Y1615245D03*
Y1617804D03*
Y1620363D03*
Y1622922D03*
Y1625481D03*
Y1640836D03*
Y1643395D03*
Y1645954D03*
X2027165Y1579418D03*
Y1581977D03*
Y1584536D03*
Y1640836D03*
Y1643395D03*
Y1645954D03*
X2029724Y1579418D03*
Y1581977D03*
Y1584536D03*
Y1587095D03*
Y1640836D03*
Y1643395D03*
Y1645954D03*
X2032283Y1579418D03*
Y1581977D03*
Y1584536D03*
Y1587095D03*
Y1640836D03*
Y1643395D03*
Y1645954D03*
X2034843Y1579418D03*
Y1581977D03*
Y1584536D03*
Y1587095D03*
Y1640836D03*
Y1643395D03*
Y1645954D03*
X2037402Y1579418D03*
Y1581977D03*
Y1584536D03*
Y1587095D03*
Y1589655D03*
Y1592214D03*
Y1594773D03*
Y1599891D03*
Y1602450D03*
Y1605009D03*
Y1607568D03*
Y1610127D03*
Y1612686D03*
Y1615245D03*
Y1617804D03*
Y1620363D03*
Y1622922D03*
Y1625481D03*
Y1628040D03*
Y1630599D03*
Y1633158D03*
Y1635718D03*
Y1640836D03*
Y1643395D03*
Y1645954D03*
X2039961Y1579418D03*
Y1581977D03*
Y1584536D03*
Y1587095D03*
Y1589655D03*
Y1592214D03*
Y1594773D03*
Y1597332D03*
Y1599891D03*
Y1602450D03*
Y1605009D03*
Y1607568D03*
Y1610127D03*
Y1612686D03*
Y1615245D03*
Y1617804D03*
Y1620363D03*
Y1622922D03*
Y1625481D03*
Y1628040D03*
Y1630599D03*
Y1633158D03*
Y1635718D03*
Y1640836D03*
Y1643395D03*
Y1645954D03*
X2042520Y1579418D03*
Y1581977D03*
Y1584536D03*
Y1587095D03*
Y1589655D03*
Y1592214D03*
Y1594773D03*
Y1597332D03*
Y1599891D03*
Y1602450D03*
Y1605009D03*
Y1607568D03*
Y1610127D03*
Y1612686D03*
Y1615245D03*
Y1617804D03*
Y1620363D03*
Y1622922D03*
Y1625481D03*
Y1628040D03*
Y1630599D03*
Y1633158D03*
Y1635718D03*
Y1638277D03*
Y1640836D03*
Y1643395D03*
Y1645954D03*
X2045079Y1579418D03*
Y1581977D03*
Y1584536D03*
Y1587095D03*
Y1589655D03*
Y1592214D03*
Y1594773D03*
Y1597332D03*
Y1599891D03*
Y1602450D03*
Y1605009D03*
Y1607568D03*
Y1610127D03*
Y1612686D03*
Y1615245D03*
Y1617804D03*
Y1620363D03*
Y1622922D03*
Y1625481D03*
Y1628040D03*
Y1630599D03*
Y1633158D03*
Y1635718D03*
Y1638277D03*
Y1640836D03*
Y1643395D03*
Y1645954D03*
G54D163*
X1862411Y1712586D03*
Y1717586D03*
Y1722586D03*
Y1727586D03*
X1836411D03*
Y1722586D03*
Y1717586D03*
Y1712586D03*
G54D172*
X2152708Y1481727D03*
X2160208D03*
G54D175*
X1825000Y1450875D03*
X1835000D03*
X1845000D03*
X1855000D03*
X1865000D03*
X1875000D03*
X1885000D03*
X1895000D03*
X1905000D03*
X1915000D03*
X1925000D03*
X1935000D03*
X1945000D03*
X1955000D03*
X1965000D03*
X1975000D03*
X1985000D03*
X1995000D03*
X2005000D03*
X2015000D03*
X2025000D03*
X2035000D03*
X2045000D03*
X2055000D03*
X2065000D03*
X2075000D03*
X2085000D03*
X2095000D03*
X2105000D03*
X2115000D03*
X2125000D03*
X2135000D03*
X2145000D03*
X2155000D03*
X2165000D03*
X2175000D03*
X2185000D03*
X2143830Y1708250D03*
X1949423Y1740052D03*
X1916585Y1555842D03*
G54D181*
X1812093Y1739142D03*
X2179814Y1464462D03*
X1829505Y1507886D03*
G54D182*
X1820411Y1621386D03*
Y1492486D03*
X1820511Y1557486D03*
G54D183*
X1814411Y1615986D03*
Y1626786D03*
Y1487086D03*
Y1497886D03*
X1814511Y1552086D03*
Y1562886D03*
G54D185*
X1906066Y1513068D03*
X1904096D03*
X1902126D03*
X1900156D03*
Y1501768D03*
X1902126D03*
X1904096D03*
X1906066D03*
X1905866Y1577536D03*
X1903896D03*
X1901926D03*
X1899956D03*
Y1566236D03*
X1901926D03*
X1903896D03*
X1905866D03*
Y1640936D03*
X1903896D03*
X1901926D03*
X1899956D03*
Y1629636D03*
X1901926D03*
X1903896D03*
X1905866D03*
G54D186*
X1908761Y1504463D03*
Y1506433D03*
Y1508403D03*
Y1510373D03*
X1897461D03*
Y1508403D03*
Y1506433D03*
Y1504463D03*
X1908561Y1568931D03*
Y1570901D03*
Y1572871D03*
Y1574841D03*
X1897261D03*
Y1572871D03*
Y1570901D03*
Y1568931D03*
X1908561Y1632331D03*
Y1634301D03*
Y1636271D03*
Y1638241D03*
X1897261D03*
Y1636271D03*
Y1634301D03*
Y1632331D03*
G54D187*
X1903111Y1507418D03*
X1902911Y1571886D03*
Y1635286D03*
G54D190*
X1932611Y1591386D03*
X1926611D03*
Y1586786D03*
X1932611D03*
G54D191*
X1929611Y1591786D03*
Y1586386D03*
G54D192*
X1940911Y1628286D03*
Y1634286D03*
X1936311D03*
Y1628286D03*
X1924311Y1612086D03*
Y1618086D03*
X1919711D03*
Y1612086D03*
G54D193*
X1941311Y1631286D03*
X1935911D03*
X1924711Y1615086D03*
X1919311D03*
G54D204*
X2152743Y1472713D03*
X2160243D03*
X2143168Y1516206D03*
X2150668D03*
X1967261Y1477286D03*
X1974761D03*
X1967261Y1486186D03*
X1974761D03*
X2182276Y1515905D03*
X2189776D03*
X2182276Y1524269D03*
X2189776D03*
G54D205*
X2130363Y1681047D03*
Y1688547D03*
X1914811Y1723736D03*
Y1731236D03*
X1924811Y1689536D03*
Y1682036D03*
X2139113Y1681047D03*
Y1688547D03*
X1924811Y1700270D03*
Y1707770D03*
X1905811Y1723736D03*
Y1731236D03*
G54D214*
X1847041Y1492486D03*
X1850781D03*
X1846041Y1557486D03*
X1849781D03*
X1846241Y1621286D03*
X1849981D03*
G54D215*
X1848911Y1493372D03*
Y1491600D03*
X1847911Y1558372D03*
Y1556600D03*
X1848111Y1622172D03*
Y1620400D03*
G54D217*
X1869061Y1489886D03*
Y1492486D03*
Y1495086D03*
X1861561D03*
Y1492486D03*
Y1489886D03*
X1869861Y1554686D03*
Y1557286D03*
Y1559886D03*
X1862361D03*
Y1557286D03*
Y1554686D03*
X1869761Y1618686D03*
Y1621286D03*
Y1623886D03*
X1862261D03*
Y1621286D03*
Y1618686D03*
G54D223*
X2096861Y1475131D03*
Y1477101D03*
Y1479071D03*
Y1481041D03*
Y1483011D03*
Y1484981D03*
Y1486951D03*
Y1488921D03*
Y1490891D03*
Y1492861D03*
Y1494831D03*
Y1496801D03*
Y1498771D03*
Y1500741D03*
Y1502711D03*
Y1504681D03*
Y1506651D03*
Y1508621D03*
Y1510591D03*
Y1512561D03*
Y1514531D03*
Y1516501D03*
Y1518471D03*
Y1520441D03*
X2018361D03*
Y1518471D03*
Y1516501D03*
Y1514531D03*
Y1512561D03*
Y1510591D03*
Y1508621D03*
Y1506651D03*
Y1504681D03*
Y1502711D03*
Y1500741D03*
Y1498771D03*
Y1496801D03*
Y1494831D03*
Y1492861D03*
Y1490891D03*
Y1488921D03*
Y1486951D03*
Y1484981D03*
Y1483011D03*
Y1481041D03*
Y1479071D03*
Y1477101D03*
Y1475131D03*
G54D224*
X1868911Y1671786D03*
Y1676786D03*
Y1681786D03*
Y1686786D03*
Y1691786D03*
Y1696786D03*
Y1701786D03*
Y1706786D03*
X1831311D03*
Y1701786D03*
Y1696786D03*
Y1691786D03*
Y1686786D03*
Y1681786D03*
Y1676786D03*
Y1671786D03*
G54D225*
X1857611Y1702286D03*
X1852611D03*
X1847611D03*
X1842611D03*
Y1676286D03*
X1847611D03*
X1852611D03*
X1857611D03*
G54D226*
X1894211Y1685046D03*
Y1682486D03*
Y1679926D03*
X1901611D03*
Y1682486D03*
Y1685046D03*
G54D227*
X1897911Y1682486D03*
G54D232*
X1912124Y1680988D03*
Y1690633D03*
G54D313*
X2131011Y1490986D03*
Y1506786D03*
G54D314*
X1955311Y1643086D03*
X1959011Y1650086D03*
X1953611D03*
X2097674Y1524616D03*
X1822251Y1701779D03*
X1912881Y1674444D03*
X2158840Y1688607D03*
X1821711Y1590486D03*
X1923411Y1519386D03*
X1916411Y1594486D03*
X1920111Y1649486D03*
G54D315*
X1840156Y1485355D03*
X1992209Y1526986D03*
X1840258Y1654433D03*
X1840140Y1563995D03*
G54D316*
X1991611Y1666586D03*
X1982611D03*
Y1659186D03*
X1991611D03*
G54D317*
X1815000Y1450875D03*
G54D318*
X2200000Y1465875D03*
Y1475875D03*
Y1485875D03*
Y1495875D03*
Y1505875D03*
Y1515875D03*
Y1525875D03*
Y1535875D03*
Y1545875D03*
Y1555875D03*
Y1565875D03*
Y1575875D03*
Y1585875D03*
Y1595875D03*
Y1605875D03*
Y1615875D03*
Y1625875D03*
Y1635875D03*
Y1645875D03*
Y1655875D03*
Y1665875D03*
Y1675875D03*
Y1685875D03*
Y1695875D03*
Y1705875D03*
Y1715875D03*
Y1725875D03*
Y1735875D03*
X2185000Y1750875D03*
X2175000D03*
X2165000D03*
X2155000D03*
X2145000D03*
X2135000D03*
X2125000D03*
X2115000D03*
X2105000D03*
X2095000D03*
X2085000D03*
X2075000D03*
X2065000D03*
X2055000D03*
X2045000D03*
X2035000D03*
X2025000D03*
X2015000D03*
X2005000D03*
X1995000D03*
X1985000D03*
X1975000D03*
X1965000D03*
X1955000D03*
X1945000D03*
X1935000D03*
X1925000D03*
X1915000D03*
X1905000D03*
X1895000D03*
X1885000D03*
X1875000D03*
X1865000D03*
X1855000D03*
X1845000D03*
X1835000D03*
X1825000D03*
X1815000D03*
X1800000Y1735875D03*
Y1725875D03*
Y1715875D03*
Y1705875D03*
Y1695875D03*
Y1685875D03*
Y1675875D03*
Y1665875D03*
Y1655875D03*
Y1645875D03*
Y1635875D03*
Y1625875D03*
Y1615875D03*
Y1605875D03*
Y1595875D03*
Y1585875D03*
Y1575875D03*
Y1565875D03*
Y1555875D03*
Y1545875D03*
Y1535875D03*
Y1525875D03*
Y1515875D03*
Y1505875D03*
Y1495875D03*
Y1485875D03*
Y1475875D03*
Y1465875D03*
G54D319*
X1856593Y1462611D03*
X1984264Y1462662D03*
X1866154Y1659426D03*
X1968140Y1659270D03*
G54D320*
X2047185Y1662948D03*
X2054985D03*
X0Y0D02*
M02*
