*
*
G04 PADS 9.5 Build Number: 522968 generated Gerber (RS-274-X) file*
G04 PC Version=2.1*
*
%IN "core_QCA9558_0102.pcb"*%
*
%MOIN*%
*
%FSLAX35Y35*%
*
*
*
*
G04 PC Standard Apertures*
*
*
G04 Thermal Relief Aperture macro.*
%AMTER*
1,1,$1,0,0*
1,0,$1-$2,0,0*
21,0,$3,$4,0,0,45*
21,0,$3,$4,0,0,135*
%
*
*
G04 Annular Aperture macro.*
%AMANN*
1,1,$1,0,0*
1,0,$2,0,0*
%
*
*
G04 Odd Aperture macro.*
%AMODD*
1,1,$1,0,0*
1,0,$1-0.005,0,0*
%
*
*
G04 PC Custom Aperture Macros*
*
*
*
*
*
*
G04 PC Aperture Table*
*
%ADD010C,0.001*%
%ADD045C,0.01*%
%ADD064R,0.01X0.01*%
%ADD098C,0.004*%
%ADD107C,0.018*%
%ADD109C,0.038*%
%ADD235R,0.02X0.018*%
%ADD236R,0.018X0.02*%
%ADD237R,0.037X0.036*%
%ADD240R,0.057X0.049*%
%ADD244R,0.036X0.037*%
%ADD267R,0.136X0.061*%
%ADD273R,0.049X0.057*%
%ADD284R,0.034X0.034*%
%ADD285R,0.034X0.048*%
%ADD286R,0.048X0.034*%
%ADD329R,0.039X0.049*%
*
*
*
*
G04 PC Circuitry*
G04 Layer Name core_QCA9558_0102.pcb - circuitry*
%LPD*%
*
*
G04 PC Custom Flashes*
G04 Layer Name core_QCA9558_0102.pcb - flashes*
%LPD*%
*
*
G04 PC Circuitry*
G04 Layer Name core_QCA9558_0102.pcb - circuitry*
%LPD*%
*
G54D10*
G54D45*
G01X1931811Y1412618D02*
Y1406056D01*
Y1412618D02*
X1929766D01*
X1929084Y1412306*
X1928856Y1411993*
X1928629Y1411368*
Y1410743*
X1928856Y1410118*
X1929084Y1409806*
X1929766Y1409493*
X1931811D02*
X1929766D01*
X1929084Y1409181*
X1928856Y1408868*
X1928629Y1408243*
Y1407306*
X1928856Y1406681*
X1929084Y1406368*
X1929766Y1406056*
X1931811*
X1925220Y1412618D02*
X1925675Y1412306D01*
X1926129Y1411681*
X1926356Y1411056*
X1926584Y1410118*
Y1408556*
X1926356Y1407618*
X1926129Y1406993*
X1925675Y1406368*
X1925220Y1406056*
X1924311*
X1923856Y1406368*
X1923402Y1406993*
X1923175Y1407618*
X1922947Y1408556*
Y1410118*
X1923175Y1411056*
X1923402Y1411681*
X1923856Y1412306*
X1924311Y1412618*
X1925220*
X1919311D02*
Y1406056D01*
X1920902Y1412618D02*
X1917720D01*
X1914084D02*
Y1406056D01*
X1915675Y1412618D02*
X1912493D01*
X1909084D02*
X1909538Y1412306D01*
X1909993Y1411681*
X1910220Y1411056*
X1910447Y1410118*
Y1408556*
X1910220Y1407618*
X1909993Y1406993*
X1909538Y1406368*
X1909084Y1406056*
X1908175*
X1907720Y1406368*
X1907266Y1406993*
X1907038Y1407618*
X1906811Y1408556*
Y1410118*
X1907038Y1411056*
X1907266Y1411681*
X1907720Y1412306*
X1908175Y1412618*
X1909084*
X1904766D02*
Y1406056D01*
Y1412618D02*
X1902947Y1406056D01*
X1901129Y1412618D02*
X1902947Y1406056D01*
X1901129Y1412618D02*
Y1406056D01*
X1890675Y1411681D02*
X1891129Y1412306D01*
X1891811Y1412618*
X1892720*
X1893402Y1412306*
X1893856Y1411681*
Y1411056*
X1893629Y1410431*
X1893402Y1410118*
X1892947Y1409806*
X1891584Y1409181*
X1891129Y1408868*
X1890902Y1408556*
X1890675Y1407931*
Y1406993*
X1891129Y1406368*
X1891811Y1406056*
X1892720*
X1893402Y1406368*
X1893856Y1406993*
X1888629Y1412618D02*
Y1406056D01*
X1886584Y1412618D02*
Y1406056D01*
Y1412618D02*
X1884993D01*
X1884311Y1412306*
X1883856Y1411681*
X1883629Y1411056*
X1883402Y1410118*
Y1408556*
X1883629Y1407618*
X1883856Y1406993*
X1884311Y1406368*
X1884993Y1406056*
X1886584*
X1881356Y1412618D02*
Y1406056D01*
Y1412618D02*
X1878402D01*
X1881356Y1409493D02*
X1879538D01*
X1881356Y1406056D02*
X1878402D01*
X1867947Y1411681D02*
X1868402Y1412306D01*
X1869084Y1412618*
X1869993*
X1870675Y1412306*
X1871129Y1411681*
Y1411056*
X1870902Y1410431*
X1870675Y1410118*
X1870220Y1409806*
X1868856Y1409181*
X1868402Y1408868*
X1868175Y1408556*
X1867947Y1407931*
Y1406993*
X1868402Y1406368*
X1869084Y1406056*
X1869993*
X1870675Y1406368*
X1871129Y1406993*
X1864538Y1412618D02*
X1864993Y1412306D01*
X1865447Y1411681*
X1865675Y1411056*
X1865902Y1410118*
Y1408556*
X1865675Y1407618*
X1865447Y1406993*
X1864993Y1406368*
X1864538Y1406056*
X1863629*
X1863175Y1406368*
X1862720Y1406993*
X1862493Y1407618*
X1862266Y1408556*
Y1410118*
X1862493Y1411056*
X1862720Y1411681*
X1863175Y1412306*
X1863629Y1412618*
X1864538*
X1860220D02*
Y1406056D01*
X1857493*
X1855447Y1412618D02*
Y1406056D01*
Y1412618D02*
X1853856D01*
X1853175Y1412306*
X1852720Y1411681*
X1852493Y1411056*
X1852266Y1410118*
Y1408556*
X1852493Y1407618*
X1852720Y1406993*
X1853175Y1406368*
X1853856Y1406056*
X1855447*
X1850220Y1412618D02*
Y1406056D01*
Y1412618D02*
X1847266D01*
X1850220Y1409493D02*
X1848402D01*
X1850220Y1406056D02*
X1847266D01*
X1845220Y1412618D02*
Y1406056D01*
Y1412618D02*
X1843175D01*
X1842493Y1412306*
X1842266Y1411993*
X1842038Y1411368*
Y1410743*
X1842266Y1410118*
X1842493Y1409806*
X1843175Y1409493*
X1845220*
X1843629D02*
X1842038Y1406056D01*
X1839993Y1412618D02*
Y1406056D01*
Y1412618D02*
X1837947D01*
X1837266Y1412306*
X1837038Y1411993*
X1836811Y1411368*
Y1410431*
X1837038Y1409806*
X1837266Y1409493*
X1837947Y1409181*
X1839993*
X1832947Y1412618D02*
X1834766Y1406056D01*
X1832947Y1412618D02*
X1831129Y1406056D01*
X1834084Y1408243D02*
X1831811D01*
X1825902Y1411681D02*
X1826356Y1412306D01*
X1827038Y1412618*
X1827947*
X1828629Y1412306*
X1829084Y1411681*
Y1411056*
X1828856Y1410431*
X1828629Y1410118*
X1828175Y1409806*
X1826811Y1409181*
X1826356Y1408868*
X1826129Y1408556*
X1825902Y1407931*
Y1406993*
X1826356Y1406368*
X1827038Y1406056*
X1827947*
X1828629Y1406368*
X1829084Y1406993*
X1822266Y1412618D02*
Y1406056D01*
X1823856Y1412618D02*
X1820675D01*
X1818629D02*
Y1406056D01*
Y1412618D02*
X1815675D01*
X1818629Y1409493D02*
X1816811D01*
X1818629Y1406056D02*
X1815675D01*
G54D64*
X2038759Y1685560D03*
X2040559D03*
X1975611Y1685656D03*
Y1683856D03*
X1986837Y1694101D03*
Y1692301D03*
X2000358Y1676496D03*
Y1674696D03*
X1985111Y1679156D03*
Y1677356D03*
X1996511Y1680656D03*
Y1678856D03*
X1983225Y1669668D03*
X1985025D03*
X1983234Y1672471D03*
X1985034D03*
X2022363Y1693519D03*
Y1691719D03*
X2002611Y1684856D03*
Y1686656D03*
X2012111Y1684256D03*
X2013911D03*
X2005211Y1681556D03*
Y1679756D03*
X2036011Y1679456D03*
X2034211D03*
Y1670456D03*
X2032411D03*
X2034211Y1668056D03*
X2032411D03*
X1974988Y1662313D03*
X1973188D03*
X1977411Y1653556D03*
X1975611D03*
X1980311Y1649456D03*
Y1647656D03*
X1984311Y1642356D03*
Y1640556D03*
X1981311Y1642356D03*
Y1640556D03*
X1975011Y1631656D03*
X1973211D03*
X1984411Y1629456D03*
X1986211D03*
X2002982Y1629144D03*
X2004782D03*
X1981111Y1623056D03*
Y1624856D03*
X2038711Y1668156D03*
Y1666356D03*
X2031311Y1660256D03*
X2029511D03*
X2031311Y1657056D03*
X2029511D03*
X2031811Y1651856D03*
Y1650056D03*
X2037411Y1653456D03*
Y1655256D03*
X2034211Y1644656D03*
X2032411D03*
X2024111Y1635556D03*
X2025911D03*
X2010511Y1633256D03*
Y1635056D03*
X2014611Y1630456D03*
X2016411D03*
X2024111Y1633156D03*
X2025911D03*
X2036511Y1631156D03*
X2038311D03*
X2036811Y1634756D03*
Y1636556D03*
X2020711Y1624756D03*
X2018911D03*
X2025911Y1628856D03*
X2027711D03*
X2032911Y1625056D03*
X2031111D03*
X2037611Y1624556D03*
X2039411D03*
X1990011Y1619156D03*
Y1617356D03*
X2003224Y1674668D03*
Y1676468D03*
X2040588Y1688376D03*
X2038788D03*
X2013911Y1680656D03*
X2012111D03*
X2029411Y1684656D03*
X2027611D03*
X2040211Y1679556D03*
X2038411D03*
X2038711Y1673256D03*
Y1671456D03*
X2062650Y1705569D03*
X2064450D03*
X2036111Y1663856D03*
Y1665656D03*
X2033711Y1655256D03*
Y1657056D03*
Y1662056D03*
Y1660256D03*
X2034211Y1650056D03*
Y1651856D03*
X2042411Y1652156D03*
X2040611D03*
X2037211Y1648056D03*
Y1646256D03*
X2013111Y1635056D03*
Y1633256D03*
X2020928Y1633070D03*
Y1631270D03*
X2031111Y1631156D03*
X2032911D03*
X2034411Y1636556D03*
Y1634756D03*
X2012311Y1625856D03*
Y1627656D03*
X2027711Y1624856D03*
X2025911D03*
X2039411Y1626956D03*
X2037611D03*
X2101311Y1708156D03*
Y1709956D03*
X2095811Y1704156D03*
Y1702356D03*
X2095311Y1673956D03*
Y1672156D03*
X2101311Y1673956D03*
Y1672156D03*
X2107811Y1708156D03*
Y1709956D03*
X2114311Y1708156D03*
Y1709956D03*
X2120311Y1708156D03*
Y1709956D03*
X2129311Y1708156D03*
Y1709956D03*
X2103911Y1698056D03*
X2105711D03*
X2114911D03*
X2116711D03*
X2103911Y1685056D03*
X2105711D03*
X2110411D03*
X2112211D03*
X2107811Y1673956D03*
Y1672156D03*
X2114311Y1673956D03*
Y1672156D03*
X2118811Y1674956D03*
Y1673156D03*
X2137311Y1676756D03*
X2135511D03*
X2101811Y1619156D03*
Y1620956D03*
X2107811Y1619156D03*
Y1620956D03*
X2114311Y1619156D03*
Y1620956D03*
X2120311Y1619156D03*
Y1620956D03*
X2096311Y1613456D03*
Y1611656D03*
X2093311Y1591156D03*
Y1592956D03*
X2099711Y1587056D03*
X2097911D03*
X2132411Y1616056D03*
X2134211D03*
X2103411Y1605056D03*
X2105211D03*
X2116411D03*
X2118211D03*
X2103411Y1598556D03*
X2105211D03*
X2118211Y1597556D03*
X2116411D03*
X2107811Y1584456D03*
Y1582656D03*
X2114111Y1584756D03*
Y1582956D03*
X2119811Y1584956D03*
Y1583156D03*
X2139311Y1583956D03*
Y1582156D03*
X1978611Y1685656D03*
Y1683856D03*
X1984005Y1694078D03*
Y1692278D03*
X1989838Y1687349D03*
Y1689149D03*
X1988255Y1679139D03*
Y1677339D03*
X1974988Y1659913D03*
X1973188D03*
X1981311Y1653456D03*
X1983111D03*
X1986411Y1654856D03*
Y1653056D03*
X1983211Y1649456D03*
Y1647656D03*
X1975011Y1634056D03*
X1973211D03*
X1990911Y1634356D03*
Y1632556D03*
X1987611Y1619156D03*
Y1617356D03*
X2102167Y1725209D03*
Y1723409D03*
X2104631Y1535784D03*
Y1533984D03*
X1992659Y1687369D03*
Y1689169D03*
X1991311Y1678456D03*
X1993111D03*
X2035324Y1699940D03*
X2033524D03*
X2033011Y1683656D03*
Y1681856D03*
X2044311Y1682656D03*
Y1680856D03*
X2007611Y1681556D03*
Y1679756D03*
X1988811Y1654856D03*
Y1653056D03*
X2037211Y1641456D03*
Y1639656D03*
X2002811Y1681556D03*
Y1679756D03*
X2038711Y1661356D03*
Y1663156D03*
X2042811Y1629456D03*
Y1627656D03*
X1984086Y1774155D03*
Y1772355D03*
X1986503Y1756002D03*
Y1757802D03*
X1998830Y1776205D03*
Y1774405D03*
X2008545Y1734352D03*
Y1736152D03*
X2004773Y1756844D03*
X2006573D03*
X1962711Y1728814D03*
X1964511D03*
X1974490Y1755253D03*
X1976290D03*
X1968904Y1735182D03*
X1967104D03*
X2002811Y1725856D03*
Y1727656D03*
X1977322Y1726831D03*
Y1728631D03*
X2017311Y1723456D03*
Y1725256D03*
X1968904Y1732179D03*
X1967104D03*
X1980246Y1732214D03*
Y1730414D03*
X1991896Y1727606D03*
X1993696D03*
X1969136Y1728814D03*
X1967336D03*
X2003641Y1731746D03*
X2001841D03*
X2003641Y1734646D03*
X2001841D03*
X2001307Y1738953D03*
X2003107D03*
X2007711Y1724756D03*
X2005911D03*
X1967392Y1771219D03*
Y1773019D03*
X1970111Y1760756D03*
Y1758956D03*
X1964953Y1745075D03*
Y1743275D03*
X1959711Y1760556D03*
Y1758756D03*
X1968889Y1738558D03*
X1967089D03*
X1973011Y1758956D03*
Y1760756D03*
X1975511Y1746456D03*
X1977311D03*
X1977211Y1759056D03*
X1979011D03*
X1983103Y1757802D03*
Y1756002D03*
X1992203Y1757802D03*
Y1756002D03*
X1995103Y1757802D03*
Y1756002D03*
X2003564Y1772367D03*
Y1774167D03*
X1991048Y1772349D03*
Y1774149D03*
X1993993Y1772349D03*
Y1774149D03*
X1997922Y1758433D03*
Y1756633D03*
X1970392Y1771219D03*
Y1773019D03*
X2012811Y1743556D03*
X2014611D03*
X2006616Y1746514D03*
X2004816D03*
X2006577Y1753897D03*
X2004777D03*
X1987211Y1772356D03*
Y1774156D03*
X1996969Y1768516D03*
X1995169D03*
X2000822Y1758433D03*
Y1756633D03*
X2012811Y1740656D03*
X2014611D03*
X2007711Y1727656D03*
X2005911D03*
X2025111Y1745756D03*
Y1743956D03*
Y1738856D03*
Y1740656D03*
X1978460Y1735192D03*
X1980260D03*
X1970279Y1720867D03*
Y1719067D03*
X1961174Y1733450D03*
Y1731650D03*
X1986254Y1728738D03*
Y1726938D03*
X1989303Y1756002D03*
Y1757802D03*
X1974522Y1726831D03*
Y1728631D03*
X1971722Y1726831D03*
Y1728631D03*
X1958411Y1744256D03*
X1956611D03*
X1975505Y1743509D03*
X1977305D03*
X1958396Y1747576D03*
X1956596D03*
X1961919Y1747548D03*
Y1745748D03*
X1970811Y1754056D03*
Y1755856D03*
X1977586Y1720789D03*
Y1718989D03*
X1974784Y1720833D03*
X1972984D03*
X2003107Y1741871D03*
X2001307D03*
X2014611Y1746456D03*
X2012811D03*
X1978509Y1738036D03*
X1980309D03*
X1973711Y1736656D03*
X1975511D03*
X1963045Y1721408D03*
Y1723208D03*
X1967379Y1720867D03*
Y1719067D03*
X1958325Y1740828D03*
X1956525D03*
X2093911Y1662556D03*
X2095711D03*
X2093911Y1665556D03*
X2095711D03*
X2099411Y1661056D03*
X2101211D03*
X2099411Y1664056D03*
X2101211D03*
X2093911Y1656556D03*
X2095711D03*
X2093911Y1659556D03*
X2095711D03*
X2099411Y1655056D03*
X2101211D03*
X2099411Y1658056D03*
X2101211D03*
X2093911Y1650556D03*
X2095711D03*
X2093911Y1653556D03*
X2095711D03*
X2099411Y1649056D03*
X2101211D03*
X2099411Y1652056D03*
X2101211D03*
X2093911Y1644556D03*
X2095711D03*
X2093911Y1647556D03*
X2095711D03*
X2099411Y1643056D03*
X2101211D03*
X2099411Y1646056D03*
X2101211D03*
X2093911Y1638556D03*
X2095711D03*
X2093911Y1641556D03*
X2095711D03*
X2099411Y1640056D03*
X2101211D03*
X2093911Y1635556D03*
X2095711D03*
X2099411Y1637056D03*
X2101211D03*
X1983342Y1728738D03*
Y1726938D03*
X2007627Y1630178D03*
Y1631978D03*
X2090211Y1649056D03*
X2088411D03*
X2088911Y1665556D03*
X2090711D03*
X2088411Y1651556D03*
X2090211D03*
X2088411Y1646056D03*
X2090211D03*
X1961233Y1726037D03*
X1963033D03*
X1942411Y1728556D03*
X1944211D03*
X1976329Y1749524D03*
X1974529D03*
X1976329Y1752371D03*
X1974529D03*
G54D98*
X1800000Y1794244D02*
X2200000D01*
Y1494244*
X1800000*
Y1794244*
G54D107*
X2181382Y1521214D03*
G54D109*
X1812093Y1782512D03*
X2180016Y1507629D03*
X1829505Y1551255D03*
G54D235*
X2098470Y1722426D03*
Y1725626D03*
X2108391Y1532597D03*
Y1535797D03*
X1965245Y1670341D03*
Y1667141D03*
X1960911Y1640856D03*
Y1637656D03*
X2020540Y1613213D03*
Y1616413D03*
X2077649Y1722000D03*
Y1725200D03*
X2081649Y1722000D03*
Y1725200D03*
X2118894Y1727097D03*
Y1730297D03*
X2122894Y1727097D03*
Y1730297D03*
X1976511Y1649256D03*
Y1646056D03*
X1980145Y1690710D03*
Y1693910D03*
X2009287Y1674443D03*
Y1671243D03*
X2013730Y1674443D03*
Y1671243D03*
X1994049Y1589908D03*
Y1586708D03*
X1989349Y1590008D03*
Y1586808D03*
X1978811Y1674656D03*
Y1677856D03*
X1979611Y1666056D03*
Y1669256D03*
X1984611Y1658956D03*
Y1662156D03*
X1888311Y1672056D03*
Y1675256D03*
X1889611Y1610156D03*
Y1613356D03*
X1888211Y1544856D03*
Y1548056D03*
X2008911Y1721356D03*
Y1718156D03*
X2019311Y1737256D03*
Y1734056D03*
X1968653Y1745075D03*
Y1741875D03*
X2013511Y1724456D03*
Y1721256D03*
X1905711Y1668056D03*
Y1671256D03*
X1906611Y1604856D03*
Y1608056D03*
X1906311Y1539356D03*
Y1542556D03*
X2004311Y1721356D03*
Y1718156D03*
X1901611Y1668056D03*
Y1671256D03*
X1988811Y1604456D03*
Y1601256D03*
X1902611Y1604856D03*
Y1608056D03*
X1901711Y1539356D03*
Y1542556D03*
X1988442Y1670384D03*
Y1673584D03*
X1969162Y1681024D03*
Y1684224D03*
X1992325Y1668200D03*
Y1671400D03*
X1990811Y1642056D03*
Y1638856D03*
X2009918Y1700539D03*
Y1697339D03*
X1983911Y1609156D03*
Y1612356D03*
X1973211Y1640856D03*
Y1637656D03*
G54D236*
X1984011Y1604456D03*
X1980811D03*
X1972405Y1693824D03*
X1975605D03*
X1991973Y1659342D03*
X1988773D03*
X1995082Y1655195D03*
X1991882D03*
X2008414Y1641270D03*
X2011614D03*
X2033210Y1621197D03*
X2030010D03*
X2112211Y1627156D03*
X2115411D03*
X2088411Y1584056D03*
X2085211D03*
X1964933Y1684255D03*
X1961733D03*
X2035641Y1703929D03*
X2032441D03*
X2030011Y1687656D03*
X2026811D03*
X2062641Y1709319D03*
X2065841D03*
X2100544Y1560662D03*
X2097344D03*
Y1556122D03*
X2100544D03*
X2124211Y1680056D03*
X2127411D03*
X2124211Y1675556D03*
X2127411D03*
X1995017Y1650732D03*
X1991817D03*
X1995017Y1646732D03*
X1991817D03*
X2029411Y1691456D03*
X2026211D03*
X1976111Y1623556D03*
X1972911D03*
X2020711Y1620856D03*
X2017511D03*
X1992325Y1675300D03*
X1995525D03*
X2006626Y1750239D03*
X2003426D03*
X1953091Y1775084D03*
X1949891D03*
X2005647Y1760815D03*
X2008847D03*
X2018570Y1647221D03*
X2021770D03*
X2026191Y1698075D03*
X2029391D03*
X1972911Y1618856D03*
X1976111D03*
X2121711Y1700056D03*
X2124911D03*
X1986911Y1666056D03*
X1983711D03*
X1968711Y1649356D03*
X1971911D03*
X2064711Y1644556D03*
X2067911D03*
X2064711Y1640556D03*
X2067911D03*
X2023527Y1703742D03*
X2026727D03*
X2070890Y1734436D03*
X2074090D03*
X1997531Y1721240D03*
X1994331D03*
X1980562Y1722144D03*
X1983762D03*
X1969945Y1670341D03*
X1973145D03*
X1965411Y1640856D03*
X1968611D03*
X1973145Y1665810D03*
X1969945D03*
X1983911Y1616956D03*
X1980711D03*
G54D237*
X1996746Y1663494D03*
X2002946D03*
X1996668Y1634590D03*
X2002868D03*
X1996711Y1641056D03*
X2002911D03*
X1972911Y1613256D03*
X1966711D03*
X2003925Y1670000D03*
X1997725D03*
X2130911Y1669556D03*
X2124711D03*
X2017211Y1640056D03*
X2023411D03*
X2000444Y1763893D03*
X1994244D03*
X1946911Y1762356D03*
X1953111D03*
X2063994Y1716619D03*
X2070194D03*
X2039611Y1708371D03*
X2033411D03*
X1997091Y1732339D03*
X1990891D03*
X1946911Y1769356D03*
X1953111D03*
X1925247Y1741127D03*
X1931447D03*
X2106317Y1556591D03*
X2112517D03*
X2113008Y1726595D03*
X2106808D03*
G54D240*
X1962111Y1647806D03*
Y1655306D03*
X2039311Y1619306D03*
Y1611806D03*
X2010411Y1608831D03*
Y1616331D03*
X1960511Y1769306D03*
Y1776806D03*
X1997879Y1608883D03*
Y1616383D03*
X2055811Y1723774D03*
Y1716274D03*
G54D244*
X1998006Y1692043D03*
Y1685843D03*
X2046711Y1618356D03*
Y1612156D03*
X2027011Y1652456D03*
Y1646256D03*
X2070109Y1729081D03*
Y1722881D03*
X2015620Y1695156D03*
Y1688956D03*
X2027702Y1615789D03*
Y1609589D03*
X2092649Y1726700D03*
Y1720500D03*
X2013611Y1736156D03*
Y1729956D03*
X1964511Y1760556D03*
Y1754356D03*
X2100554Y1543282D03*
Y1549482D03*
X2064109Y1729081D03*
Y1722881D03*
X2037369Y1721022D03*
Y1714822D03*
X1882611Y1678256D03*
Y1672056D03*
X1883911Y1616356D03*
Y1610156D03*
X1882411Y1551056D03*
Y1544856D03*
X2043915Y1721022D03*
Y1714822D03*
X2086649Y1720500D03*
Y1726700D03*
X2120558Y1535761D03*
Y1529561D03*
X2113990Y1535802D03*
Y1529602D03*
X1894811Y1672056D03*
Y1678256D03*
X1896111Y1609456D03*
Y1615656D03*
X1894911Y1544356D03*
Y1550556D03*
G54D267*
X1928611Y1723656D03*
Y1733056D03*
G54D273*
X2090561Y1577056D03*
X2083061D03*
X1982145Y1597513D03*
X1974645D03*
X2041040Y1693856D03*
X2048540D03*
X2122061Y1546156D03*
X2129561D03*
X2114016Y1521922D03*
X2106516D03*
X2055618Y1707328D03*
X2048118D03*
X1974645Y1588613D03*
X1982145D03*
G54D284*
X2085899Y1742500D03*
X2093399D03*
X2099399D03*
X2106899D03*
X2105811Y1542506D03*
Y1550006D03*
G54D285*
X2089649Y1734500D03*
X2103149D03*
G54D286*
X2113811Y1546256D03*
G54D329*
X2030111Y1739856D03*
Y1748856D03*
X2037511D03*
Y1739856D03*
X0Y0D02*
M02*
