*
*
G04 PADS 9.5 Build Number: 522968 generated Gerber (RS-274-X) file*
G04 PC Version=2.1*
*
%IN "core_QCA9558_0102.pcb"*%
*
%MOIN*%
*
%FSLAX35Y35*%
*
*
*
*
G04 PC Standard Apertures*
*
*
G04 Thermal Relief Aperture macro.*
%AMTER*
1,1,$1,0,0*
1,0,$1-$2,0,0*
21,0,$3,$4,0,0,45*
21,0,$3,$4,0,0,135*
%
*
*
G04 Annular Aperture macro.*
%AMANN*
1,1,$1,0,0*
1,0,$2,0,0*
%
*
*
G04 Odd Aperture macro.*
%AMODD*
1,1,$1,0,0*
1,0,$1-0.005,0,0*
%
*
*
G04 PC Custom Aperture Macros*
*
*
*
*
*
*
G04 PC Aperture Table*
*
%ADD010C,0.001*%
%ADD045C,0.01*%
%ADD097C,0.005*%
%ADD098C,0.004*%
%ADD102C,0.006*%
*
*
*
*
G04 PC Circuitry*
G04 Layer Name core_QCA9558_0102.pcb - circuitry*
%LPD*%
*
*
G04 PC Custom Flashes*
G04 Layer Name core_QCA9558_0102.pcb - flashes*
%LPD*%
*
*
G04 PC Circuitry*
G04 Layer Name core_QCA9558_0102.pcb - circuitry*
%LPD*%
*
G54D10*
G54D45*
G01X1920611Y1678311D02*
Y1675111D01*
X1936611*
Y1678011*
X1920611Y1690111D02*
Y1693111D01*
X1936611*
Y1690211*
X2086649Y1690355D02*
X2084149D01*
Y1695355*
X2092649Y1690355D02*
X2095149D01*
Y1695355*
X2089149Y1699355D02*
X2090149D01*
X2100149Y1690355D02*
X2097649D01*
Y1695355*
X2106149Y1690355D02*
X2108649D01*
Y1695355*
X2102649Y1699355D02*
X2103649D01*
X2113711Y1499011D02*
Y1496511D01*
X2108711*
X2113711Y1505011D02*
Y1507511D01*
X2108711*
X2104711Y1501511D02*
Y1502511D01*
G54D97*
X2099970Y1676282D02*
X2100470D01*
Y1683282*
X2099970*
X2096970D02*
X2096470D01*
Y1676282*
X2096970*
X2109891Y1486453D02*
X2110391D01*
Y1493453*
X2109891*
X2106891D02*
X2106391D01*
Y1486453*
X2106891*
X1963745Y1627996D02*
X1963245D01*
Y1620996*
X1963745*
X1966745D02*
X1967245D01*
Y1627996*
X1966745*
X1995006Y1645899D02*
Y1650699D01*
X2001006*
Y1645899*
X1995006Y1643499D02*
Y1638699D01*
X2001006*
Y1643499*
X1966111Y1605811D02*
Y1599311D01*
X1958111*
Y1605811*
X1966111Y1608811D02*
Y1615311D01*
X1958111*
Y1608811*
X1998646Y1616250D02*
X1993846D01*
Y1622250*
X1998646*
X2001046Y1616250D02*
X2005846D01*
Y1622250*
X2001046*
X1959411Y1598511D02*
X1958911D01*
Y1591511*
X1959411*
X1962411D02*
X1962911D01*
Y1598511*
X1962411*
X2043711Y1572211D02*
Y1577011D01*
X2049711*
Y1572211*
X2043711Y1569811D02*
Y1565011D01*
X2049711*
Y1569811*
X1985911Y1561711D02*
Y1562211D01*
X1978911*
Y1561711*
Y1558711D02*
Y1558211D01*
X1985911*
Y1558711*
X1970505Y1648079D02*
Y1647579D01*
X1977505*
Y1648079*
Y1651079D02*
Y1651579D01*
X1970505*
Y1651079*
X1993873Y1616598D02*
Y1617098D01*
X1986873*
Y1616598*
Y1613598D02*
Y1613098D01*
X1993873*
Y1613598*
X1996982Y1612451D02*
Y1612951D01*
X1989982*
Y1612451*
Y1609451D02*
Y1608951D01*
X1996982*
Y1609451*
X2006514Y1595526D02*
Y1595026D01*
X2013514*
Y1595526*
Y1598526D02*
Y1599026D01*
X2006514*
Y1598526*
X2035110Y1578453D02*
Y1578953D01*
X2028110*
Y1578453*
Y1575453D02*
Y1574953D01*
X2035110*
Y1575453*
X2022040Y1567068D02*
X2022540D01*
Y1574068*
X2022040*
X2019040D02*
X2018540D01*
Y1567068*
X2019040*
X2110311Y1581411D02*
Y1580911D01*
X2117311*
Y1581411*
Y1584411D02*
Y1584911D01*
X2110311*
Y1584411*
X2090311Y1541311D02*
Y1541811D01*
X2083311*
Y1541311*
Y1538311D02*
Y1537811D01*
X2090311*
Y1538311*
X2079149Y1675855D02*
X2079649D01*
Y1682855*
X2079149*
X2076149D02*
X2075649D01*
Y1675855*
X2076149*
X2083149D02*
X2083649D01*
Y1682855*
X2083149*
X2080149D02*
X2079649D01*
Y1675855*
X2080149*
X2120394Y1680952D02*
X2120894D01*
Y1687952*
X2120394*
X2117394D02*
X2116894D01*
Y1680952*
X2117394*
X2124394D02*
X2124894D01*
Y1687952*
X2124394*
X2121394D02*
X2120894D01*
Y1680952*
X2121394*
X1998568Y1587346D02*
X1993768D01*
Y1593346*
X1998568*
X2000968Y1587346D02*
X2005768D01*
Y1593346*
X2000968*
X2035311Y1572811D02*
Y1579311D01*
X2043311*
Y1572811*
X2035311Y1569811D02*
Y1563311D01*
X2043311*
Y1569811*
X2037559Y1640816D02*
Y1640116D01*
X2041759*
Y1640816*
Y1641816D02*
Y1642516D01*
X2037559*
Y1641816*
X1975111Y1642611D02*
X1974411D01*
Y1638411*
X1975111*
X1976111D02*
X1976811D01*
Y1642611*
X1976111*
X1986337Y1651056D02*
X1985637D01*
Y1646856*
X1986337*
X1987337D02*
X1988037D01*
Y1651056*
X1987337*
X1999858Y1633452D02*
X1999158D01*
Y1629252*
X1999858*
X2000858D02*
X2001558D01*
Y1633452*
X2000858*
X1984611Y1636111D02*
X1983911D01*
Y1631911*
X1984611*
X1985611D02*
X1986311D01*
Y1636111*
X1985611*
X1996011Y1637611D02*
X1995311D01*
Y1633411*
X1996011*
X1997011D02*
X1997711D01*
Y1637611*
X1997011*
X1982025Y1624924D02*
Y1624224D01*
X1986225*
Y1624924*
Y1625924D02*
Y1626624D01*
X1982025*
Y1625924*
X1982034Y1627726D02*
Y1627026D01*
X1986234*
Y1627726*
Y1628726D02*
Y1629426D01*
X1982034*
Y1628726*
X2021863Y1650474D02*
X2021163D01*
Y1646274*
X2021863*
X2022863D02*
X2023563D01*
Y1650474*
X2022863*
X2003111Y1639411D02*
X2003811D01*
Y1643611*
X2003111*
X2002111D02*
X2001411D01*
Y1639411*
X2002111*
X2010911Y1639511D02*
Y1638811D01*
X2015111*
Y1639511*
Y1640511D02*
Y1641211D01*
X2010911*
Y1640511*
X2004711Y1638511D02*
X2004011D01*
Y1634311*
X2004711*
X2005711D02*
X2006411D01*
Y1638511*
X2005711*
X2037211Y1635711D02*
Y1636411D01*
X2033011*
Y1635711*
Y1634711D02*
Y1634011D01*
X2037211*
Y1634711*
X2035411Y1626711D02*
Y1627411D01*
X2031211*
Y1626711*
Y1625711D02*
Y1625011D01*
X2035411*
Y1625711*
Y1624311D02*
Y1625011D01*
X2031211*
Y1624311*
Y1623311D02*
Y1622611D01*
X2035411*
Y1623311*
X1976188Y1618568D02*
Y1619268D01*
X1971988*
Y1618568*
Y1617568D02*
Y1616868D01*
X1976188*
Y1617568*
X1978611Y1609811D02*
Y1610511D01*
X1974411*
Y1609811*
Y1608811D02*
Y1608111D01*
X1978611*
Y1608811*
X1979811Y1606411D02*
X1979111D01*
Y1602211*
X1979811*
X1980811D02*
X1981511D01*
Y1606411*
X1980811*
X1983811Y1599311D02*
X1983111D01*
Y1595111*
X1983811*
X1984811D02*
X1985511D01*
Y1599311*
X1984811*
X1980811D02*
X1980111D01*
Y1595111*
X1980811*
X1981811D02*
X1982511D01*
Y1599311*
X1981811*
X1976211Y1587911D02*
Y1588611D01*
X1972011*
Y1587911*
Y1586911D02*
Y1586211D01*
X1976211*
Y1586911*
X1983211Y1584711D02*
Y1584011D01*
X1987411*
Y1584711*
Y1585711D02*
Y1586411D01*
X1983211*
Y1585711*
X2001782Y1584400D02*
Y1583700D01*
X2005982*
Y1584400*
Y1585400D02*
Y1586100D01*
X2001782*
Y1585400*
X1981611Y1577611D02*
X1982311D01*
Y1581811*
X1981611*
X1980611D02*
X1979911D01*
Y1577611*
X1980611*
X2038211Y1625111D02*
X2037511D01*
Y1620911*
X2038211*
X2039211D02*
X2039911D01*
Y1625111*
X2039211*
X2032511Y1616511D02*
Y1617211D01*
X2028311*
Y1616511*
Y1615511D02*
Y1614811D01*
X2032511*
Y1615511*
Y1613311D02*
Y1614011D01*
X2028311*
Y1613311*
Y1612311D02*
Y1611611D01*
X2032511*
Y1612311*
X2031311Y1608811D02*
X2030611D01*
Y1604611*
X2031311*
X2032311D02*
X2033011D01*
Y1608811*
X2032311*
X2037911Y1608011D02*
X2038611D01*
Y1612211*
X2037911*
X2036911D02*
X2036211D01*
Y1608011*
X2036911*
X2035411Y1600911D02*
Y1601611D01*
X2031211*
Y1600911*
Y1599911D02*
Y1599211D01*
X2035411*
Y1599911*
X2022911Y1590811D02*
Y1590111D01*
X2027111*
Y1590811*
Y1591811D02*
Y1592511D01*
X2022911*
Y1591811*
X2011011Y1587811D02*
X2011711D01*
Y1592011*
X2011011*
X2010011D02*
X2009311D01*
Y1587811*
X2010011*
X2013411Y1585711D02*
Y1585011D01*
X2017611*
Y1585711*
Y1586711D02*
Y1587411D01*
X2013411*
Y1586711*
X2022911Y1588411D02*
Y1587711D01*
X2027111*
Y1588411*
Y1589411D02*
Y1590111D01*
X2022911*
Y1589411*
X2035311Y1586411D02*
Y1585711D01*
X2039511*
Y1586411*
Y1587411D02*
Y1588111D01*
X2035311*
Y1587411*
X2037311Y1589311D02*
X2038011D01*
Y1593511*
X2037311*
X2036311D02*
X2035611D01*
Y1589311*
X2036311*
X2021911Y1581011D02*
Y1581711D01*
X2017711*
Y1581011*
Y1580011D02*
Y1579311D01*
X2021911*
Y1580011*
X2024711Y1584111D02*
Y1583411D01*
X2028911*
Y1584111*
Y1585111D02*
Y1585811D01*
X2024711*
Y1585111*
X2034111Y1581311D02*
Y1582011D01*
X2029911*
Y1581311*
Y1580311D02*
Y1579611D01*
X2034111*
Y1580311*
X2036411Y1579811D02*
Y1579111D01*
X2040611*
Y1579811*
Y1580811D02*
Y1581511D01*
X2036411*
Y1580811*
X1989511Y1576111D02*
X1988811D01*
Y1571911*
X1989511*
X1990511D02*
X1991211D01*
Y1576111*
X1990511*
X1966833Y1641511D02*
Y1642011D01*
X1959833*
Y1641511*
Y1638511D02*
Y1638011D01*
X1966833*
Y1638511*
X2037541Y1661185D02*
Y1661685D01*
X2030541*
Y1661185*
Y1658185D02*
Y1657685D01*
X2037541*
Y1658185*
X1975011Y1606911D02*
X1974511D01*
Y1599911*
X1975011*
X1978011D02*
X1978511D01*
Y1606911*
X1978011*
X1998611Y1593811D02*
X1993811D01*
Y1599811*
X1998611*
X2001011Y1593811D02*
X2005811D01*
Y1599811*
X2001011*
X1971011Y1572011D02*
X1975811D01*
Y1566011*
X1971011*
X1968611Y1572011D02*
X1963811D01*
Y1566011*
X1968611*
X2003724Y1629223D02*
X2004424D01*
Y1633423*
X2003724*
X2002724D02*
X2002024D01*
Y1629223*
X2002724*
X2041788Y1644632D02*
Y1645332D01*
X2037588*
Y1644632*
Y1643632D02*
Y1642932D01*
X2041788*
Y1643632*
X2031911Y1644911D02*
Y1645411D01*
X2024911*
Y1644911*
Y1641911D02*
Y1641411D01*
X2031911*
Y1641911*
X2015111Y1636911D02*
Y1637611D01*
X2010911*
Y1636911*
Y1635911D02*
Y1635211D01*
X2015111*
Y1635911*
X2030611Y1640911D02*
Y1641611D01*
X2026411*
Y1640911*
Y1639911D02*
Y1639211D01*
X2030611*
Y1639911*
X2041411Y1635811D02*
Y1636511D01*
X2037211*
Y1635811*
Y1634811D02*
Y1634111D01*
X2041411*
Y1634811*
X2038211Y1630211D02*
X2037511D01*
Y1626011*
X2038211*
X2039211D02*
X2039911D01*
Y1630211*
X2039211*
X2061450Y1660825D02*
Y1660125D01*
X2065650*
Y1660825*
Y1661825D02*
Y1662525D01*
X2061450*
Y1661825*
X2036611Y1618411D02*
X2037311D01*
Y1622611*
X2036611*
X2035611D02*
X2034911D01*
Y1618411*
X2035611*
X2034211Y1609811D02*
X2034911D01*
Y1614011*
X2034211*
X2033211D02*
X2032511D01*
Y1609811*
X2033211*
Y1619011D02*
X2032511D01*
Y1614811*
X2033211*
X2034211D02*
X2034911D01*
Y1619011*
X2034211*
X2034711Y1604611D02*
X2035411D01*
Y1608811*
X2034711*
X2033711D02*
X2033011D01*
Y1604611*
X2033711*
X2043611Y1608411D02*
Y1609111D01*
X2039411*
Y1608411*
Y1607411D02*
Y1606711D01*
X2043611*
Y1607411*
X2036711Y1605011D02*
X2036011D01*
Y1600811*
X2036711*
X2037711D02*
X2038411D01*
Y1605011*
X2037711*
X2012611Y1592011D02*
X2011911D01*
Y1587811*
X2012611*
X2013611D02*
X2014311D01*
Y1592011*
X2013611*
X2020428Y1590026D02*
X2019728D01*
Y1585826*
X2020428*
X2021428D02*
X2022128D01*
Y1590026*
X2021428*
X2029911Y1586411D02*
Y1585711D01*
X2034111*
Y1586411*
Y1587411D02*
Y1588111D01*
X2029911*
Y1587411*
X2033911Y1593511D02*
X2033211D01*
Y1589311*
X2033911*
X2034911D02*
X2035611D01*
Y1593511*
X2034911*
X2012811Y1580411D02*
X2013511D01*
Y1584611*
X2012811*
X2011811D02*
X2011111D01*
Y1580411*
X2011811*
X2028911Y1581111D02*
Y1581811D01*
X2024711*
Y1581111*
Y1580111D02*
Y1579411D01*
X2028911*
Y1580111*
X2040611Y1583211D02*
Y1583911D01*
X2036411*
Y1583211*
Y1582211D02*
Y1581511D01*
X2040611*
Y1582211*
X2060741Y1663574D02*
Y1663074D01*
X2067741*
Y1663574*
Y1666574D02*
Y1667074D01*
X2060741*
Y1666574*
X2014411Y1566836D02*
Y1560336D01*
X2006411*
Y1566836*
X2014411Y1569836D02*
Y1576336D01*
X2006411*
Y1569836*
X2101811Y1662711D02*
X2102511D01*
Y1666911*
X2101811*
X2100811D02*
X2100111D01*
Y1662711*
X2100811*
X2095311Y1661111D02*
X2094611D01*
Y1656911*
X2095311*
X2096311D02*
X2097011D01*
Y1661111*
X2096311*
X2094811Y1630911D02*
X2094111D01*
Y1626711*
X2094811*
X2095811D02*
X2096511D01*
Y1630911*
X2095811*
X2100811D02*
X2100111D01*
Y1626711*
X2100811*
X2101811D02*
X2102511D01*
Y1630911*
X2101811*
X2108311Y1662711D02*
X2109011D01*
Y1666911*
X2108311*
X2107311D02*
X2106611D01*
Y1662711*
X2107311*
X2114811D02*
X2115511D01*
Y1666911*
X2114811*
X2113811D02*
X2113111D01*
Y1662711*
X2113811*
X2120811D02*
X2121511D01*
Y1666911*
X2120811*
X2119811D02*
X2119111D01*
Y1662711*
X2119811*
X2129811D02*
X2130511D01*
Y1666911*
X2129811*
X2128811D02*
X2128111D01*
Y1662711*
X2128811*
X2102711Y1653311D02*
Y1652611D01*
X2106911*
Y1653311*
Y1654311D02*
Y1655011D01*
X2102711*
Y1654311*
X2113711Y1653311D02*
Y1652611D01*
X2117911*
Y1653311*
Y1654311D02*
Y1655011D01*
X2113711*
Y1654311*
X2102711Y1640311D02*
Y1639611D01*
X2106911*
Y1640311*
Y1641311D02*
Y1642011D01*
X2102711*
Y1641311*
X2109211Y1640311D02*
Y1639611D01*
X2113411*
Y1640311*
Y1641311D02*
Y1642011D01*
X2109211*
Y1641311*
X2107311Y1630911D02*
X2106611D01*
Y1626711*
X2107311*
X2108311D02*
X2109011D01*
Y1630911*
X2108311*
X2113811D02*
X2113111D01*
Y1626711*
X2113811*
X2114811D02*
X2115511D01*
Y1630911*
X2114811*
X2118311Y1631911D02*
X2117611D01*
Y1627711*
X2118311*
X2119311D02*
X2120011D01*
Y1631911*
X2119311*
X2138511Y1633011D02*
Y1633711D01*
X2134311*
Y1633011*
Y1632011D02*
Y1631311D01*
X2138511*
Y1632011*
X2102311Y1573711D02*
X2103011D01*
Y1577911*
X2102311*
X2101311D02*
X2100611D01*
Y1573711*
X2101311*
X2108311D02*
X2109011D01*
Y1577911*
X2108311*
X2107311D02*
X2106611D01*
Y1573711*
X2107311*
X2114811D02*
X2115511D01*
Y1577911*
X2114811*
X2113811D02*
X2113111D01*
Y1573711*
X2113811*
X2120811D02*
X2121511D01*
Y1577911*
X2120811*
X2119811D02*
X2119111D01*
Y1573711*
X2119811*
X2095811Y1570411D02*
X2095111D01*
Y1566211*
X2095811*
X2096811D02*
X2097511D01*
Y1570411*
X2096811*
X2093811Y1545711D02*
X2094511D01*
Y1549911*
X2093811*
X2092811D02*
X2092111D01*
Y1545711*
X2092811*
X2100911Y1543311D02*
Y1544011D01*
X2096711*
Y1543311*
Y1542311D02*
Y1541611D01*
X2100911*
Y1542311*
X2131211Y1571311D02*
Y1570611D01*
X2135411*
Y1571311*
Y1572311D02*
Y1573011D01*
X2131211*
Y1572311*
X2102211Y1560311D02*
Y1559611D01*
X2106411*
Y1560311*
Y1561311D02*
Y1562011D01*
X2102211*
Y1561311*
X2115211Y1560311D02*
Y1559611D01*
X2119411*
Y1560311*
Y1561311D02*
Y1562011D01*
X2115211*
Y1561311*
X2102211Y1553811D02*
Y1553111D01*
X2106411*
Y1553811*
Y1554811D02*
Y1555511D01*
X2102211*
Y1554811*
X2119411Y1553811D02*
Y1554511D01*
X2115211*
Y1553811*
Y1552811D02*
Y1552111D01*
X2119411*
Y1552811*
X2107311Y1541411D02*
X2106611D01*
Y1537211*
X2107311*
X2108311D02*
X2109011D01*
Y1541411*
X2108311*
X2113611Y1541711D02*
X2112911D01*
Y1537511*
X2113611*
X2114611D02*
X2115311D01*
Y1541711*
X2114611*
X2119311Y1541911D02*
X2118611D01*
Y1537711*
X2119311*
X2120311D02*
X2121011D01*
Y1541911*
X2120311*
X2138811Y1540911D02*
X2138111D01*
Y1536711*
X2138811*
X2139811D02*
X2140511D01*
Y1540911*
X2139811*
X2102444Y1517917D02*
Y1518417D01*
X2095444*
Y1517917*
Y1514917D02*
Y1514417D01*
X2102444*
Y1514917*
X2095444Y1510377D02*
Y1509877D01*
X2102444*
Y1510377*
Y1513377D02*
Y1513877D01*
X2095444*
Y1513377*
X1981645Y1644566D02*
X1982145D01*
Y1651566*
X1981645*
X1978645D02*
X1978145D01*
Y1644566*
X1978645*
X2122311Y1634311D02*
Y1633811D01*
X2129311*
Y1634311*
Y1637311D02*
Y1637811D01*
X2122311*
Y1637311*
Y1629811D02*
Y1629311D01*
X2129311*
Y1629811*
Y1632811D02*
Y1633311D01*
X2122311*
Y1632811*
X2002025Y1628756D02*
X2006825D01*
Y1622756*
X2002025*
X1999625Y1628756D02*
X1994825D01*
Y1622756*
X1999625*
X2129011Y1628311D02*
X2133811D01*
Y1622311*
X2129011*
X2126611Y1628311D02*
X2121811D01*
Y1622311*
X2126611*
X2024011Y1606311D02*
Y1611111D01*
X2030011*
Y1606311*
X2024011Y1603911D02*
Y1599111D01*
X2030011*
Y1603911*
X1978111Y1642611D02*
X1977411D01*
Y1638411*
X1978111*
X1979111D02*
X1979811D01*
Y1642611*
X1979111*
X1983505Y1651033D02*
X1982805D01*
Y1646833*
X1983505*
X1984505D02*
X1985205D01*
Y1651033*
X1984505*
X1990338Y1641904D02*
X1991038D01*
Y1646104*
X1990338*
X1989338D02*
X1988638D01*
Y1641904*
X1989338*
X1987755Y1636095D02*
X1987055D01*
Y1631895*
X1987755*
X1988755D02*
X1989455D01*
Y1636095*
X1988755*
X1976188Y1616168D02*
Y1616868D01*
X1971988*
Y1616168*
Y1615168D02*
Y1614468D01*
X1976188*
Y1615168*
X1980111Y1608711D02*
Y1608011D01*
X1984311*
Y1608711*
Y1609711D02*
Y1610411D01*
X1980111*
Y1609711*
X1985911Y1611811D02*
X1985211D01*
Y1607611*
X1985911*
X1986911D02*
X1987611D01*
Y1611811*
X1986911*
X1982711Y1606411D02*
X1982011D01*
Y1602211*
X1982711*
X1983711D02*
X1984411D01*
Y1606411*
X1983711*
X1976211Y1590311D02*
Y1591011D01*
X1972011*
Y1590311*
Y1589311D02*
Y1588611D01*
X1976211*
Y1589311*
X1990411Y1591311D02*
X1989711D01*
Y1587111*
X1990411*
X1991411D02*
X1992111D01*
Y1591311*
X1991411*
X1987111Y1576111D02*
X1986411D01*
Y1571911*
X1987111*
X1988111D02*
X1988811D01*
Y1576111*
X1988111*
X2101667Y1682164D02*
X2100967D01*
Y1677964*
X2101667*
X2102667D02*
X2103367D01*
Y1682164*
X2102667*
X2104131Y1492740D02*
X2103431D01*
Y1488540*
X2104131*
X2105131D02*
X2105831D01*
Y1492740*
X2105131*
X1993159Y1641924D02*
X1993859D01*
Y1646124*
X1993159*
X1992159D02*
X1991459D01*
Y1641924*
X1992159*
X1990111Y1633711D02*
Y1633011D01*
X1994311*
Y1633711*
Y1634711D02*
Y1635411D01*
X1990111*
Y1634711*
X2036524Y1656195D02*
Y1656895D01*
X2032324*
Y1656195*
Y1655195D02*
Y1654495D01*
X2036524*
Y1655195*
X2032511Y1640611D02*
X2031811D01*
Y1636411*
X2032511*
X2033511D02*
X2034211D01*
Y1640611*
X2033511*
X2043811Y1639611D02*
X2043111D01*
Y1635411*
X2043811*
X2044811D02*
X2045511D01*
Y1639611*
X2044811*
X2007111Y1638511D02*
X2006411D01*
Y1634311*
X2007111*
X2008111D02*
X2008811D01*
Y1638511*
X2008111*
X1988311Y1611811D02*
X1987611D01*
Y1607611*
X1988311*
X1989311D02*
X1990011D01*
Y1611811*
X1989311*
X2036711Y1598411D02*
X2036011D01*
Y1594211*
X2036711*
X2037711D02*
X2038411D01*
Y1598411*
X2037711*
X1996917Y1607988D02*
Y1608488D01*
X1989917*
Y1607988*
Y1604988D02*
Y1604488D01*
X1996917*
Y1604988*
Y1603988D02*
Y1604488D01*
X1989917*
Y1603988*
Y1600988D02*
Y1600488D01*
X1996917*
Y1600988*
X2007787Y1632098D02*
X2007287D01*
Y1625098*
X2007787*
X2010787D02*
X2011287D01*
Y1632098*
X2010787*
X2012230D02*
X2011730D01*
Y1625098*
X2012230*
X2015230D02*
X2015730D01*
Y1632098*
X2015230*
X1992549Y1547564D02*
X1992049D01*
Y1540564*
X1992549*
X1995549D02*
X1996049D01*
Y1547564*
X1995549*
X1987849Y1547664D02*
X1987349D01*
Y1540664*
X1987849*
X1990849D02*
X1991349D01*
Y1547664*
X1990849*
X1980311Y1628511D02*
X1980811D01*
Y1635511*
X1980311*
X1977311D02*
X1976811D01*
Y1628511*
X1977311*
X2031311Y1648711D02*
Y1649211D01*
X2024311*
Y1648711*
Y1645711D02*
Y1645211D01*
X2031311*
Y1645711*
X1981111Y1619911D02*
X1981611D01*
Y1626911*
X1981111*
X1978111D02*
X1977611D01*
Y1619911*
X1978111*
X1986111Y1612811D02*
X1986611D01*
Y1619811*
X1986111*
X1983111D02*
X1982611D01*
Y1612811*
X1983111*
X1978011Y1580811D02*
Y1581311D01*
X1971011*
Y1580811*
Y1577811D02*
Y1577311D01*
X1978011*
Y1577811*
X2022611Y1578111D02*
Y1578611D01*
X2015611*
Y1578111*
Y1575111D02*
Y1574611D01*
X2022611*
Y1575111*
X2067109Y1682937D02*
Y1687737D01*
X2073109*
Y1682937*
X2067109Y1680537D02*
Y1675737D01*
X2073109*
Y1680537*
X2012620Y1649011D02*
Y1653811D01*
X2018620*
Y1649011*
X2012620Y1646611D02*
Y1641811D01*
X2018620*
Y1646611*
X2019111Y1592811D02*
X2014311D01*
Y1598811*
X2019111*
X2021511Y1592811D02*
X2026311D01*
Y1598811*
X2021511*
X2024702Y1569644D02*
Y1574444D01*
X2024702D02*
X2030702D01*
X2030702D02*
Y1569644D01*
X2024702Y1567244D02*
Y1562444D01*
X2024702D02*
X2030702D01*
X2030702D02*
Y1567244D01*
X2002311Y1638511D02*
X2001611D01*
Y1634311*
X2002311*
X2003311D02*
X2004011D01*
Y1638511*
X2003311*
X1990425Y1629556D02*
Y1629056D01*
X1997425*
Y1629556*
Y1632556D02*
Y1633056D01*
X1990425*
Y1632556*
X1889811Y1625911D02*
X1890311D01*
Y1632911*
X1889811*
X1886811D02*
X1886311D01*
Y1625911*
X1886811*
X1891111Y1564011D02*
X1891611D01*
Y1571011*
X1891111*
X1888111D02*
X1887611D01*
Y1564011*
X1888111*
X1889711Y1498711D02*
X1890211D01*
Y1505711*
X1889711*
X1886711D02*
X1886211D01*
Y1498711*
X1886711*
X2088311Y1536811D02*
X2094811D01*
Y1528811*
X2088311*
X2085311Y1536811D02*
X2078811D01*
Y1528811*
X2085311*
X2039211Y1615911D02*
X2039911D01*
Y1620111*
X2039211*
X2038211D02*
X2037511D01*
Y1615911*
X2038211*
X2042311Y1586411D02*
X2041611D01*
Y1582211*
X2042311*
X2043311D02*
X2044011D01*
Y1586411*
X2043311*
X2007411Y1679011D02*
X2006911D01*
Y1672011*
X2007411*
X2010411D02*
X2010911D01*
Y1679011*
X2010411*
X1983586Y1731110D02*
X1982886D01*
Y1726910*
X1983586*
X1984586D02*
X1985286D01*
Y1731110*
X1984586*
X1987003Y1710558D02*
X1987703D01*
Y1714758*
X1987003*
X1986003D02*
X1985303D01*
Y1710558*
X1986003*
X1998330Y1733160D02*
X1997630D01*
Y1728960*
X1998330*
X1999330D02*
X2000030D01*
Y1733160*
X1999330*
X2009045Y1688907D02*
X2009745D01*
Y1693107*
X2009045*
X2008045D02*
X2007345D01*
Y1688907*
X2008045*
X2003573Y1712099D02*
Y1711399D01*
X2007773*
Y1712099*
Y1713099D02*
Y1713799D01*
X2003573*
Y1713099*
X1961511Y1684069D02*
Y1683369D01*
X1965711*
Y1684069*
Y1685069D02*
Y1685769D01*
X1961511*
Y1685069*
X1973290Y1710509D02*
Y1709809D01*
X1977490*
Y1710509*
Y1711509D02*
Y1712209D01*
X1973290*
Y1711509*
X1970104Y1691437D02*
Y1692137D01*
X1965904*
Y1691437*
Y1690437D02*
Y1689737D01*
X1970104*
Y1690437*
X2003311Y1680411D02*
X2004011D01*
Y1684611*
X2003311*
X2002311D02*
X2001611D01*
Y1680411*
X2002311*
X1977822Y1681387D02*
X1978522D01*
Y1685587*
X1977822*
X1976822D02*
X1976122D01*
Y1681387*
X1976822*
X2017811Y1678011D02*
X2018511D01*
Y1682211*
X2017811*
X2016811D02*
X2016111D01*
Y1678011*
X2016811*
X1970104Y1688434D02*
Y1689134D01*
X1965904*
Y1688434*
Y1687434D02*
Y1686734D01*
X1970104*
Y1687434*
X1979746Y1689170D02*
X1979046D01*
Y1684970*
X1979746*
X1980746D02*
X1981446D01*
Y1689170*
X1980746*
X1990696Y1682862D02*
Y1682162D01*
X1994896*
Y1682862*
Y1683862D02*
Y1684562D01*
X1990696*
Y1683862*
X1970336Y1685069D02*
Y1685769D01*
X1966136*
Y1685069*
Y1684069D02*
Y1683369D01*
X1970336*
Y1684069*
X2004841Y1688001D02*
Y1688701D01*
X2000641*
Y1688001*
Y1687001D02*
Y1686301D01*
X2004841*
Y1687001*
Y1690901D02*
Y1691601D01*
X2000641*
Y1690901*
Y1689901D02*
Y1689201D01*
X2004841*
Y1689901*
X2000107Y1694208D02*
Y1693508D01*
X2004307*
Y1694208*
Y1695208D02*
Y1695908D01*
X2000107*
Y1695208*
X2008911Y1681011D02*
Y1681711D01*
X2004711*
Y1681011*
Y1680011D02*
Y1679311D01*
X2008911*
Y1680011*
X1967892Y1725775D02*
X1968592D01*
Y1729975*
X1967892*
X1966892D02*
X1966192D01*
Y1725775*
X1966892*
X1969611Y1717711D02*
X1968911D01*
Y1713511*
X1969611*
X1970611D02*
X1971311D01*
Y1717711*
X1970611*
X1964453Y1702030D02*
X1963753D01*
Y1697830*
X1964453*
X1965453D02*
X1966153D01*
Y1702030*
X1965453*
X1959211Y1717511D02*
X1958511D01*
Y1713311*
X1959211*
X1960211D02*
X1960911D01*
Y1717511*
X1960211*
X1970089Y1694814D02*
Y1695514D01*
X1965889*
Y1694814*
Y1693814D02*
Y1693114D01*
X1970089*
Y1693814*
X1973511Y1713511D02*
X1974211D01*
Y1717711*
X1973511*
X1972511D02*
X1971811D01*
Y1713511*
X1972511*
X1974311Y1701711D02*
Y1701011D01*
X1978511*
Y1701711*
Y1702711D02*
Y1703411D01*
X1974311*
Y1702711*
X1976011Y1714311D02*
Y1713611D01*
X1980211*
Y1714311*
Y1715311D02*
Y1716011D01*
X1976011*
Y1715311*
X1982603Y1714758D02*
X1981903D01*
Y1710558*
X1982603*
X1983603D02*
X1984303D01*
Y1714758*
X1983603*
X1991703D02*
X1991003D01*
Y1710558*
X1991703*
X1992703D02*
X1993403D01*
Y1714758*
X1992703*
X1994603D02*
X1993903D01*
Y1710558*
X1994603*
X1995603D02*
X1996303D01*
Y1714758*
X1995603*
X2004064Y1726922D02*
X2004764D01*
Y1731122*
X2004064*
X2003064D02*
X2002364D01*
Y1726922*
X2003064*
X1991548Y1726904D02*
X1992248D01*
Y1731104*
X1991548*
X1990548D02*
X1989848D01*
Y1726904*
X1990548*
X1994493D02*
X1995193D01*
Y1731104*
X1994493*
X1993493D02*
X1992793D01*
Y1726904*
X1993493*
X1997422Y1715388D02*
X1996722D01*
Y1711188*
X1997422*
X1998422D02*
X1999122D01*
Y1715388*
X1998422*
X1970892Y1725775D02*
X1971592D01*
Y1729975*
X1970892*
X1969892D02*
X1969192D01*
Y1725775*
X1969892*
X2011611Y1698811D02*
Y1698111D01*
X2015811*
Y1698811*
Y1699811D02*
Y1700511D01*
X2011611*
Y1699811*
X2007816Y1702769D02*
Y1703469D01*
X2003616*
Y1702769*
Y1701769D02*
Y1701069D01*
X2007816*
Y1701769*
X2007777Y1710153D02*
Y1710853D01*
X2003577*
Y1710153*
Y1709153D02*
Y1708453D01*
X2007777*
Y1709153*
X1987711Y1726911D02*
X1988411D01*
Y1731111*
X1987711*
X1986711D02*
X1986011D01*
Y1726911*
X1986711*
X1998169Y1724771D02*
Y1725471D01*
X1993969*
Y1724771*
Y1723771D02*
Y1723071D01*
X1998169*
Y1723771*
X2000322Y1715388D02*
X1999622D01*
Y1711188*
X2000322*
X2001322D02*
X2002022D01*
Y1715388*
X2001322*
X2011611Y1695911D02*
Y1695211D01*
X2015811*
Y1695911*
Y1696911D02*
Y1697611D01*
X2011611*
Y1696911*
X2008911Y1683911D02*
Y1684611D01*
X2004711*
Y1683911*
Y1682911D02*
Y1682211D01*
X2008911*
Y1682911*
X2024611Y1702711D02*
X2023911D01*
Y1698511*
X2024611*
X2025611D02*
X2026311D01*
Y1702711*
X2025611*
Y1693411D02*
X2026311D01*
Y1697611*
X2025611*
X2024611D02*
X2023911D01*
Y1693411*
X2024611*
X1977260Y1690447D02*
Y1689747D01*
X1981460*
Y1690447*
Y1691447D02*
Y1692147D01*
X1977260*
Y1691447*
X1969779Y1677822D02*
X1969079D01*
Y1673622*
X1969779*
X1970779D02*
X1971479D01*
Y1677822*
X1970779*
X1960674Y1690406D02*
X1959974D01*
Y1686206*
X1960674*
X1961674D02*
X1962374D01*
Y1690406*
X1961674*
X2017811Y1694911D02*
X2017311D01*
Y1687911*
X2017811*
X2020811D02*
X2021311D01*
Y1694911*
X2020811*
X1967153Y1702730D02*
X1966653D01*
Y1695730*
X1967153*
X1970153D02*
X1970653D01*
Y1702730*
X1970153*
X2008526Y1707495D02*
Y1707995D01*
X2001526*
Y1707495*
Y1704495D02*
Y1703995D01*
X2008526*
Y1704495*
X2012011Y1682111D02*
X2011511D01*
Y1675111*
X2012011*
X2015011D02*
X2015511D01*
Y1682111*
X2015011*
X1954991Y1732340D02*
Y1732840D01*
X1947991*
Y1732340*
Y1729340D02*
Y1728840D01*
X1954991*
Y1729340*
X1998544Y1722649D02*
X2003344D01*
Y1716649*
X1998544*
X1996144Y1722649D02*
X1991344D01*
Y1716649*
X1996144*
X1964511Y1727311D02*
Y1720811D01*
X1956511*
Y1727311*
X1964511Y1730311D02*
Y1736811D01*
X1956511*
Y1730311*
X1948811Y1715111D02*
X1944011D01*
Y1721111*
X1948811*
X1951211Y1715111D02*
X1956011D01*
Y1721111*
X1951211*
X1979895Y1557269D02*
X1986395D01*
Y1549269*
X1979895*
X1976895Y1557269D02*
X1970395D01*
Y1549269*
X1976895*
X2065894Y1669375D02*
X2061094D01*
Y1675375*
X2065894*
X2068294Y1669375D02*
X2073094D01*
Y1675375*
X2068294*
X2089649Y1680555D02*
Y1685355D01*
X2095649*
Y1680555*
X2089649Y1678155D02*
Y1673355D01*
X2095649*
Y1678155*
X2037711Y1667127D02*
X2042511D01*
Y1661127*
X2037711*
X2035311Y1667127D02*
X2030511D01*
Y1661127*
X2035311*
X2043290Y1645612D02*
X2036790D01*
Y1653612*
X2043290*
X2046290Y1645612D02*
X2052790D01*
Y1653612*
X2046290*
X2124311Y1497911D02*
X2117811D01*
Y1505911*
X2124311*
X2127311Y1497911D02*
X2133811D01*
Y1505911*
X2127311*
X2111766Y1481678D02*
X2118266D01*
Y1473678*
X2111766*
X2108766Y1481678D02*
X2102266D01*
Y1473678*
X2108766*
X2053368Y1667083D02*
X2059868D01*
Y1659083*
X2053368*
X2050368Y1667083D02*
X2043868D01*
Y1659083*
X2050368*
X1907211Y1621911D02*
X1907711D01*
Y1628911*
X1907211*
X1904211D02*
X1903711D01*
Y1621911*
X1904211*
X1908111Y1558711D02*
X1908611D01*
Y1565711*
X1908111*
X1905111D02*
X1904611D01*
Y1558711*
X1905111*
X1907811Y1493211D02*
X1908311D01*
Y1500211*
X1907811*
X1904811D02*
X1904311D01*
Y1493211*
X1904811*
X2003747Y1715071D02*
Y1714571D01*
X2010747*
Y1715071*
Y1718071D02*
Y1718571D01*
X2003747*
Y1718071*
X2010611Y1690011D02*
Y1694811D01*
X2016611*
Y1690011*
X2010611Y1687611D02*
Y1682811D01*
X2016611*
Y1687611*
X1961511Y1714411D02*
Y1719211D01*
X1967511*
Y1714411*
X1961511Y1712011D02*
Y1707211D01*
X1967511*
Y1712011*
X1995191Y1691095D02*
X1999991D01*
Y1685095*
X1995191*
X1992791Y1691095D02*
X1987991D01*
Y1685095*
X1992791*
X1948811Y1722111D02*
X1944011D01*
Y1728111*
X1948811*
X1951211Y1722111D02*
X1956011D01*
Y1728111*
X1951211*
X2103554Y1500937D02*
Y1496137D01*
X2097554*
Y1500937*
X2103554Y1503337D02*
Y1508137D01*
X2097554*
Y1503337*
X2061109Y1682937D02*
Y1687737D01*
X2067109*
Y1682937*
X2061109Y1680537D02*
Y1675737D01*
X2067109*
Y1680537*
X2034369Y1674877D02*
Y1679677D01*
X2040369*
Y1674877*
X2034369Y1672477D02*
Y1667677D01*
X2040369*
Y1672477*
X2001879Y1566889D02*
Y1560389D01*
X1993879*
Y1566889*
X2001879Y1569889D02*
Y1576389D01*
X1993879*
Y1569889*
X1976895Y1540369D02*
X1970395D01*
Y1548369*
X1976895*
X1979895Y1540369D02*
X1986395D01*
Y1548369*
X1979895*
X2016670Y1601476D02*
Y1600976D01*
X2023670*
Y1601476*
Y1604476D02*
Y1604976D01*
X2016670*
Y1604476*
X2024291Y1652331D02*
Y1651831D01*
X2031291*
Y1652331*
Y1655331D02*
Y1655831D01*
X2024291*
Y1655331*
X1985754Y1685693D02*
X1985054D01*
Y1681493*
X1985754*
X1986754D02*
X1987454D01*
Y1685693*
X1986754*
X1989803Y1710558D02*
X1990503D01*
Y1714758*
X1989803*
X1988803D02*
X1988103D01*
Y1710558*
X1988803*
X1975022Y1681387D02*
X1975722D01*
Y1685587*
X1975022*
X1974022D02*
X1973322D01*
Y1681387*
X1974022*
X1972222D02*
X1972922D01*
Y1685587*
X1972222*
X1971222D02*
X1970522D01*
Y1681387*
X1971222*
X1959611Y1700511D02*
Y1701211D01*
X1955411*
Y1700511*
Y1699511D02*
Y1698811D01*
X1959611*
Y1699511*
X1974305Y1698765D02*
Y1698065D01*
X1978505*
Y1698765*
Y1699765D02*
Y1700465D01*
X1974305*
Y1699765*
X1959596Y1703832D02*
Y1704532D01*
X1955396*
Y1703832*
Y1702832D02*
Y1702132D01*
X1959596*
Y1702832*
X1961419Y1704503D02*
X1960719D01*
Y1700303*
X1961419*
X1962419D02*
X1963119D01*
Y1704503*
X1962419*
X1971311Y1708611D02*
X1972011D01*
Y1712811*
X1971311*
X1970311D02*
X1969611D01*
Y1708611*
X1970311*
X1977086Y1677745D02*
X1976386D01*
Y1673545*
X1977086*
X1978086D02*
X1978786D01*
Y1677745*
X1978086*
X1975984Y1677088D02*
Y1677788D01*
X1971784*
Y1677088*
Y1676088D02*
Y1675388D01*
X1975984*
Y1676088*
X2004307Y1698127D02*
Y1698827D01*
X2000107*
Y1698127*
Y1697127D02*
Y1696427D01*
X2004307*
Y1697127*
X2015811Y1702711D02*
Y1703411D01*
X2011611*
Y1702711*
Y1701711D02*
Y1701011D01*
X2015811*
Y1701711*
X1977309Y1693292D02*
Y1692592D01*
X1981509*
Y1693292*
Y1694292D02*
Y1694992D01*
X1977309*
Y1694292*
X1972511Y1691911D02*
Y1691211D01*
X1976711*
Y1691911*
Y1692911D02*
Y1693611D01*
X1972511*
Y1692911*
X1963545Y1675963D02*
X1964245D01*
Y1680163*
X1963545*
X1962545D02*
X1961845D01*
Y1675963*
X1962545*
X1966879Y1677822D02*
X1966179D01*
Y1673622*
X1966879*
X1967879D02*
X1968579D01*
Y1677822*
X1967879*
X1959525Y1697083D02*
Y1697783D01*
X1955325*
Y1697083*
Y1696083D02*
Y1695383D01*
X1959525*
Y1696083*
X2002811Y1679011D02*
X2002311D01*
Y1672011*
X2002811*
X2005811D02*
X2006311D01*
Y1679011*
X2005811*
X1927147Y1693883D02*
X1922347D01*
Y1699883*
X1927147*
X1929547Y1693883D02*
X1934347D01*
Y1699883*
X1929547*
X1903111Y1621911D02*
X1903611D01*
Y1628911*
X1903111*
X1900111D02*
X1899611D01*
Y1621911*
X1900111*
X1987311Y1562111D02*
X1986811D01*
Y1555111*
X1987311*
X1990311D02*
X1990811D01*
Y1562111*
X1990311*
X1904111Y1558711D02*
X1904611D01*
Y1565711*
X1904111*
X1901111D02*
X1900611D01*
Y1558711*
X1901111*
X1903211Y1493211D02*
X1903711D01*
Y1500211*
X1903211*
X1900211D02*
X1899711D01*
Y1493211*
X1900211*
X1879611Y1632111D02*
Y1636911D01*
X1885611*
Y1632111*
X1879611Y1629711D02*
Y1624911D01*
X1885611*
Y1629711*
X1880911Y1570211D02*
Y1575011D01*
X1886911*
Y1570211*
X1880911Y1567811D02*
Y1563011D01*
X1886911*
Y1567811*
X1879411Y1504911D02*
Y1509711D01*
X1885411*
Y1504911*
X1879411Y1502511D02*
Y1497711D01*
X1885411*
Y1502511*
X2092711Y1617811D02*
Y1617111D01*
X2096911*
Y1617811*
Y1618811D02*
Y1619511D01*
X2092711*
Y1618811*
Y1620811D02*
Y1620111D01*
X2096911*
Y1620811*
Y1621811D02*
Y1622511D01*
X2092711*
Y1621811*
X2098211Y1616311D02*
Y1615611D01*
X2102411*
Y1616311*
Y1617311D02*
Y1618011D01*
X2098211*
Y1617311*
Y1619311D02*
Y1618611D01*
X2102411*
Y1619311*
Y1620311D02*
Y1621011D01*
X2098211*
Y1620311*
X2092711Y1611811D02*
Y1611111D01*
X2096911*
Y1611811*
Y1612811D02*
Y1613511D01*
X2092711*
Y1612811*
Y1614811D02*
Y1614111D01*
X2096911*
Y1614811*
Y1615811D02*
Y1616511D01*
X2092711*
Y1615811*
X2098211Y1610311D02*
Y1609611D01*
X2102411*
Y1610311*
Y1611311D02*
Y1612011D01*
X2098211*
Y1611311*
Y1613311D02*
Y1612611D01*
X2102411*
Y1613311*
Y1614311D02*
Y1615011D01*
X2098211*
Y1614311*
X2092711Y1605811D02*
Y1605111D01*
X2096911*
Y1605811*
Y1606811D02*
Y1607511D01*
X2092711*
Y1606811*
Y1608811D02*
Y1608111D01*
X2096911*
Y1608811*
Y1609811D02*
Y1610511D01*
X2092711*
Y1609811*
X2098211Y1604311D02*
Y1603611D01*
X2102411*
Y1604311*
Y1605311D02*
Y1606011D01*
X2098211*
Y1605311*
Y1607311D02*
Y1606611D01*
X2102411*
Y1607311*
Y1608311D02*
Y1609011D01*
X2098211*
Y1608311*
X2092711Y1599811D02*
Y1599111D01*
X2096911*
Y1599811*
Y1600811D02*
Y1601511D01*
X2092711*
Y1600811*
Y1602811D02*
Y1602111D01*
X2096911*
Y1602811*
Y1603811D02*
Y1604511D01*
X2092711*
Y1603811*
X2098211Y1598311D02*
Y1597611D01*
X2102411*
Y1598311*
Y1599311D02*
Y1600011D01*
X2098211*
Y1599311*
Y1601311D02*
Y1600611D01*
X2102411*
Y1601311*
Y1602311D02*
Y1603011D01*
X2098211*
Y1602311*
X2092711Y1593811D02*
Y1593111D01*
X2096911*
Y1593811*
Y1594811D02*
Y1595511D01*
X2092711*
Y1594811*
Y1596811D02*
Y1596111D01*
X2096911*
Y1596811*
Y1597811D02*
Y1598511D01*
X2092711*
Y1597811*
X2098211Y1595311D02*
Y1594611D01*
X2102411*
Y1595311*
Y1596311D02*
Y1597011D01*
X2098211*
Y1596311*
X2092711Y1590811D02*
Y1590111D01*
X2096911*
Y1590811*
Y1591811D02*
Y1592511D01*
X2092711*
Y1591811*
X2098211Y1592311D02*
Y1591611D01*
X2102411*
Y1592311*
Y1593311D02*
Y1594011D01*
X2098211*
Y1593311*
X1982842Y1685693D02*
X1982142D01*
Y1681493*
X1982842*
X1983842D02*
X1984542D01*
Y1685693*
X1983842*
X2008127Y1584733D02*
X2008827D01*
Y1588933*
X2008127*
X2007127D02*
X2006427D01*
Y1584733*
X2007127*
X2091411Y1605311D02*
Y1606011D01*
X2087211*
Y1605311*
Y1604311D02*
Y1603611D01*
X2091411*
Y1604311*
X1989942Y1624239D02*
X1990442D01*
Y1631239*
X1989942*
X1986942D02*
X1986442D01*
Y1624239*
X1986942*
X1970662Y1634880D02*
X1971162D01*
Y1641880*
X1970662*
X1967662D02*
X1967162D01*
Y1634880*
X1967662*
X1971011Y1573111D02*
Y1572611D01*
X1978011*
Y1573111*
Y1576111D02*
Y1576611D01*
X1971011*
Y1576111*
X1993825Y1622056D02*
X1994325D01*
Y1629056*
X1993825*
X1990825D02*
X1990325D01*
Y1622056*
X1990825*
X2119811Y1654311D02*
Y1653811D01*
X2126811*
Y1654311*
Y1657311D02*
Y1657811D01*
X2119811*
Y1657311*
X1988811Y1623311D02*
Y1623811D01*
X1981811*
Y1623311*
Y1620311D02*
Y1619811D01*
X1988811*
Y1620311*
X1966811Y1603611D02*
Y1603111D01*
X1973811*
Y1603611*
Y1606611D02*
Y1607111D01*
X1966811*
Y1606611*
X1989311Y1599711D02*
X1988811D01*
Y1592711*
X1989311*
X1992311D02*
X1992811D01*
Y1599711*
X1992311*
X2062811Y1598811D02*
Y1598311D01*
X2069811*
Y1598811*
Y1601811D02*
Y1602311D01*
X2062811*
Y1601811*
Y1594811D02*
Y1594311D01*
X2069811*
Y1594811*
Y1597811D02*
Y1598311D01*
X2062811*
Y1597811*
X2008418Y1658194D02*
X2007918D01*
Y1651194*
X2008418*
X2011418D02*
X2011918D01*
Y1658194*
X2011418*
X2021627Y1657997D02*
Y1657497D01*
X2028627*
Y1657997*
Y1660997D02*
Y1661497D01*
X2021627*
Y1660997*
X2040915Y1674877D02*
Y1679677D01*
X2046915*
Y1674877*
X2040915Y1672477D02*
Y1667677D01*
X2046915*
Y1672477*
X2089649Y1678155D02*
Y1673355D01*
X2083649*
Y1678155*
X2089649Y1680555D02*
Y1685355D01*
X2083649*
Y1680555*
X2108217Y1509346D02*
X2103417D01*
Y1515346*
X2108217*
X2110617Y1509346D02*
X2115417D01*
Y1515346*
X2110617*
X2111108Y1685351D02*
X2115908D01*
Y1679351*
X2111108*
X2108708Y1685351D02*
X2103908D01*
Y1679351*
X2108708*
X2117558Y1489616D02*
Y1494416D01*
X2123558*
Y1489616*
X2117558Y1487216D02*
Y1482416D01*
X2123558*
Y1487216*
X2051811Y1677279D02*
Y1683779D01*
X2059811*
Y1677279*
X2051811Y1674279D02*
Y1667779D01*
X2059811*
Y1674279*
X2087711Y1620811D02*
Y1620111D01*
X2091911*
Y1620811*
Y1621811D02*
Y1622511D01*
X2087711*
Y1621811*
X2087211Y1606811D02*
Y1606111D01*
X2091411*
Y1606811*
Y1607811D02*
Y1608511D01*
X2087211*
Y1607811*
Y1601311D02*
Y1600611D01*
X2091411*
Y1601311*
Y1602311D02*
Y1603011D01*
X2087211*
Y1602311*
X2068990Y1688691D02*
Y1688191D01*
X2075990*
Y1688691*
Y1691691D02*
Y1692191D01*
X2068990*
Y1691691*
X1960033Y1681292D02*
Y1680592D01*
X1964233*
Y1681292*
Y1682292D02*
Y1682992D01*
X1960033*
Y1682292*
X1941211Y1683811D02*
Y1683111D01*
X1945411*
Y1683811*
Y1684811D02*
Y1685511D01*
X1941211*
Y1684811*
X1999431Y1678496D02*
Y1678996D01*
X1992431*
Y1678496*
Y1675496D02*
Y1674996D01*
X1999431*
Y1675496*
X1978662Y1676400D02*
Y1675900D01*
X1985662*
Y1676400*
Y1679400D02*
Y1679900D01*
X1978662*
Y1679400*
X1968045Y1624596D02*
Y1624096D01*
X1975045*
Y1624596*
Y1627596D02*
Y1628096D01*
X1968045*
Y1627596*
X1963511Y1595111D02*
Y1594611D01*
X1970511*
Y1595111*
Y1598111D02*
Y1598611D01*
X1963511*
Y1598111*
X1985411Y1563011D02*
X1985911D01*
Y1570011*
X1985411*
X1982411D02*
X1981911D01*
Y1563011*
X1982411*
X2110990Y1489657D02*
Y1494457D01*
X2116990*
Y1489657*
X2110990Y1487257D02*
Y1482457D01*
X2116990*
Y1487257*
X1975045Y1623066D02*
Y1623566D01*
X1968045*
Y1623066*
Y1620066D02*
Y1619566D01*
X1975045*
Y1620066*
X1971711Y1598511D02*
X1971211D01*
Y1591511*
X1971711*
X1974711D02*
X1975211D01*
Y1598511*
X1974711*
X1985811Y1574211D02*
Y1574711D01*
X1978811*
Y1574211*
Y1571211D02*
Y1570711D01*
X1985811*
Y1571211*
X1977529Y1705780D02*
Y1706480D01*
X1973329*
Y1705780*
Y1704780D02*
Y1704080D01*
X1977529*
Y1704780*
Y1708626D02*
Y1709326D01*
X1973329*
Y1708626*
Y1707626D02*
Y1706926D01*
X1977529*
Y1707626*
X1897811Y1629711D02*
Y1624911D01*
X1891811*
Y1629711*
X1897811Y1632111D02*
Y1636911D01*
X1891811*
Y1632111*
X1899111Y1567111D02*
Y1562311D01*
X1893111*
Y1567111*
X1899111Y1569511D02*
Y1574311D01*
X1893111*
Y1569511*
X1897911Y1502011D02*
Y1497211D01*
X1891911*
Y1502011*
X1897911Y1504411D02*
Y1509211D01*
X1891911*
Y1504411*
X2026268Y1694111D02*
G75*
G03X2026268I-457J0D01*
G03X2026268I-457J0*
G01X2025354Y1694103D02*
X2026268D01*
X2025693Y1694553D02*
X2025929D01*
G54D98*
X1800000Y1750000D02*
X2200000D01*
Y1450000*
X1800000*
Y1750000*
X1876002Y1641556D02*
X1910034D01*
Y1616386*
X1876002*
Y1641556*
X1876437Y1579494D02*
X1910468D01*
Y1554324*
X1876437*
Y1579494*
X1875627Y1516426D02*
X1909659D01*
Y1491257*
X1875627*
Y1516426*
X1917681Y1739656D02*
Y1660863D01*
X1955710*
Y1537382*
X2074717*
Y1470720*
X2152116*
X2152563Y1470273*
Y1712892*
X2018260*
Y1739656*
X1917681*
G54D102*
X2040311Y1692111D02*
Y1708111D01*
X2027311*
Y1692111*
X2040311*
G74*
X0Y0D02*
M02*
